<svg width="375" height="362" viewBox="0 0 375 362" fill="none" xmlns="http://www.w3.org/2000/svg">
<g filter="url(#filter0_d_1_184)">
<path d="M95 78H275V258H95V78Z" fill="white"/>
</g>
<path d="M243.004 220.414L234.397 229.021L232.983 227.607L241.589 219H234.004V217H245.004V228H243.004V220.414V220.414Z" fill="black" fill-opacity="0.3"/>
<path d="M122.828 106.408L121.148 115H120.32L122.012 106.408H122.828ZM125.768 106.408L124.076 115H123.248L124.94 106.408H125.768ZM120.044 108.94H126.536L126.38 109.72H119.9L120.044 108.94ZM119.72 111.688H126.056L125.912 112.468H119.564L119.72 111.688Z" fill="black" fill-opacity="0.6"/>
<path d="M129.27 107.188H127.518V106.408H130.098V115H129.27V107.188Z" fill="black" fill-opacity="0.6"/>
<path d="M137.309 115H131.645V114.316L134.393 111.916C134.793 111.572 135.121 111.268 135.377 111.004C135.633 110.74 135.833 110.5 135.977 110.284C136.129 110.06 136.233 109.84 136.289 109.624C136.353 109.408 136.385 109.172 136.385 108.916C136.385 108.34 136.221 107.884 135.893 107.548C135.565 107.212 135.117 107.044 134.549 107.044C133.957 107.044 133.477 107.244 133.109 107.644C132.749 108.044 132.561 108.576 132.545 109.24H131.681C131.705 108.64 131.837 108.116 132.077 107.668C132.317 107.22 132.649 106.872 133.073 106.624C133.505 106.376 134.001 106.252 134.561 106.252C135.105 106.252 135.577 106.364 135.977 106.588C136.385 106.804 136.701 107.108 136.925 107.5C137.149 107.884 137.261 108.34 137.261 108.868C137.261 109.172 137.221 109.464 137.141 109.744C137.061 110.016 136.933 110.288 136.757 110.56C136.581 110.832 136.349 111.12 136.061 111.424C135.773 111.728 135.413 112.068 134.981 112.444L132.581 114.544L132.317 114.196H137.309V115Z" fill="black" fill-opacity="0.6"/>
<path d="M141.253 115.144C140.677 115.144 140.177 115.032 139.753 114.808C139.329 114.576 139.001 114.252 138.769 113.836C138.537 113.42 138.421 112.932 138.421 112.372H139.285C139.285 112.988 139.461 113.472 139.813 113.824C140.173 114.176 140.657 114.352 141.265 114.352C141.697 114.352 142.073 114.264 142.393 114.088C142.713 113.904 142.961 113.652 143.137 113.332C143.313 113.012 143.401 112.64 143.401 112.216C143.401 111.816 143.317 111.456 143.149 111.136C142.981 110.808 142.737 110.548 142.417 110.356C142.105 110.164 141.721 110.068 141.265 110.068C140.873 110.068 140.501 110.152 140.149 110.32C139.805 110.48 139.517 110.688 139.285 110.944L138.601 110.728L139.633 106.408H143.785V107.2H139.825L140.377 106.708L139.501 110.32L139.213 110.284C139.461 109.964 139.777 109.72 140.161 109.552C140.545 109.384 140.953 109.3 141.385 109.3C141.977 109.3 142.489 109.432 142.921 109.696C143.353 109.952 143.685 110.3 143.917 110.74C144.157 111.172 144.277 111.656 144.277 112.192C144.277 112.768 144.149 113.28 143.893 113.728C143.637 114.168 143.281 114.516 142.825 114.772C142.377 115.02 141.853 115.144 141.253 115.144Z" fill="black" fill-opacity="0.6"/>
<path d="M145.43 110.704C145.43 109.808 145.566 109.028 145.838 108.364C146.118 107.7 146.514 107.18 147.026 106.804C147.546 106.428 148.162 106.24 148.874 106.24C149.586 106.24 150.198 106.428 150.71 106.804C151.222 107.18 151.614 107.7 151.886 108.364C152.166 109.028 152.306 109.808 152.306 110.704C152.306 111.6 152.17 112.38 151.898 113.044C151.626 113.708 151.234 114.228 150.722 114.604C150.21 114.972 149.594 115.156 148.874 115.156C148.154 115.156 147.534 114.972 147.014 114.604C146.502 114.228 146.11 113.708 145.838 113.044C145.566 112.38 145.43 111.6 145.43 110.704ZM146.282 110.704C146.282 111.448 146.382 112.096 146.582 112.648C146.79 113.2 147.086 113.628 147.47 113.932C147.854 114.228 148.322 114.376 148.874 114.376C149.418 114.376 149.882 114.228 150.266 113.932C150.658 113.628 150.954 113.2 151.154 112.648C151.362 112.096 151.466 111.448 151.466 110.704C151.466 109.952 151.362 109.304 151.154 108.76C150.954 108.208 150.658 107.784 150.266 107.488C149.882 107.184 149.418 107.032 148.874 107.032C148.322 107.032 147.854 107.184 147.47 107.488C147.086 107.784 146.79 108.208 146.582 108.76C146.382 109.304 146.282 109.952 146.282 110.704Z" fill="black" fill-opacity="0.6"/>
<path d="M152.858 106.408H158.702V107.2H152.858V106.408ZM158.042 106.708L158.702 107.2L155.318 115H154.43L158.042 106.708Z" fill="black" fill-opacity="0.6"/>
<path d="M164.907 115H159.243V114.316L161.991 111.916C162.391 111.572 162.719 111.268 162.975 111.004C163.231 110.74 163.431 110.5 163.575 110.284C163.727 110.06 163.831 109.84 163.887 109.624C163.951 109.408 163.983 109.172 163.983 108.916C163.983 108.34 163.819 107.884 163.491 107.548C163.163 107.212 162.715 107.044 162.147 107.044C161.555 107.044 161.075 107.244 160.707 107.644C160.347 108.044 160.159 108.576 160.143 109.24H159.279C159.303 108.64 159.435 108.116 159.675 107.668C159.915 107.22 160.247 106.872 160.671 106.624C161.103 106.376 161.599 106.252 162.159 106.252C162.703 106.252 163.175 106.364 163.575 106.588C163.983 106.804 164.299 107.108 164.523 107.5C164.747 107.884 164.859 108.34 164.859 108.868C164.859 109.172 164.819 109.464 164.739 109.744C164.659 110.016 164.531 110.288 164.355 110.56C164.179 110.832 163.947 111.12 163.659 111.424C163.371 111.728 163.011 112.068 162.579 112.444L160.179 114.544L159.915 114.196H164.907V115Z" fill="black" fill-opacity="0.6"/>
<path d="M171.045 112.096L168.897 115H167.889L170.373 111.7L170.529 111.76C170.249 111.952 169.985 112.088 169.737 112.168C169.489 112.248 169.233 112.288 168.969 112.288C168.369 112.288 167.845 112.16 167.397 111.904C166.957 111.64 166.613 111.28 166.365 110.824C166.117 110.368 165.993 109.86 165.993 109.3C165.993 108.716 166.125 108.196 166.389 107.74C166.661 107.276 167.029 106.912 167.493 106.648C167.957 106.384 168.473 106.252 169.041 106.252C169.617 106.252 170.137 106.388 170.601 106.66C171.073 106.932 171.445 107.3 171.717 107.764C171.989 108.22 172.125 108.736 172.125 109.312C172.125 109.64 172.089 109.948 172.017 110.236C171.953 110.516 171.841 110.804 171.681 111.1C171.529 111.396 171.317 111.728 171.045 112.096ZM171.261 109.3C171.261 108.868 171.165 108.484 170.973 108.148C170.789 107.804 170.529 107.536 170.193 107.344C169.865 107.144 169.481 107.044 169.041 107.044C168.617 107.044 168.241 107.144 167.913 107.344C167.585 107.536 167.325 107.804 167.133 108.148C166.949 108.484 166.857 108.868 166.857 109.3C166.857 109.732 166.949 110.12 167.133 110.464C167.325 110.8 167.585 111.064 167.913 111.256C168.241 111.44 168.617 111.532 169.041 111.532C169.481 111.532 169.865 111.44 170.193 111.256C170.529 111.064 170.789 110.8 170.973 110.464C171.165 110.12 171.261 109.732 171.261 109.3Z" fill="black" fill-opacity="0.6"/>
<path d="M176.128 115.144C175.552 115.144 175.052 115.032 174.628 114.808C174.204 114.576 173.876 114.252 173.644 113.836C173.412 113.42 173.296 112.932 173.296 112.372H174.16C174.16 112.988 174.336 113.472 174.688 113.824C175.048 114.176 175.532 114.352 176.14 114.352C176.572 114.352 176.948 114.264 177.268 114.088C177.588 113.904 177.836 113.652 178.012 113.332C178.188 113.012 178.276 112.64 178.276 112.216C178.276 111.816 178.192 111.456 178.024 111.136C177.856 110.808 177.612 110.548 177.292 110.356C176.98 110.164 176.596 110.068 176.14 110.068C175.748 110.068 175.376 110.152 175.024 110.32C174.68 110.48 174.392 110.688 174.16 110.944L173.476 110.728L174.508 106.408H178.66V107.2H174.7L175.252 106.708L174.376 110.32L174.088 110.284C174.336 109.964 174.652 109.72 175.036 109.552C175.42 109.384 175.828 109.3 176.26 109.3C176.852 109.3 177.364 109.432 177.796 109.696C178.228 109.952 178.56 110.3 178.792 110.74C179.032 111.172 179.152 111.656 179.152 112.192C179.152 112.768 179.024 113.28 178.768 113.728C178.512 114.168 178.156 114.516 177.7 114.772C177.252 115.02 176.728 115.144 176.128 115.144Z" fill="black" fill-opacity="0.6"/>
<path d="M179.729 106.408H185.573V107.2H179.729V106.408ZM184.913 106.708L185.573 107.2L182.189 115H181.301L184.913 106.708Z" fill="black" fill-opacity="0.6"/>
<path d="M191.778 115H186.114V114.316L188.862 111.916C189.262 111.572 189.59 111.268 189.846 111.004C190.102 110.74 190.302 110.5 190.446 110.284C190.598 110.06 190.702 109.84 190.758 109.624C190.822 109.408 190.854 109.172 190.854 108.916C190.854 108.34 190.69 107.884 190.362 107.548C190.034 107.212 189.586 107.044 189.018 107.044C188.426 107.044 187.946 107.244 187.578 107.644C187.218 108.044 187.03 108.576 187.014 109.24H186.15C186.174 108.64 186.306 108.116 186.546 107.668C186.786 107.22 187.118 106.872 187.542 106.624C187.974 106.376 188.47 106.252 189.03 106.252C189.574 106.252 190.046 106.364 190.446 106.588C190.854 106.804 191.17 107.108 191.394 107.5C191.618 107.884 191.73 108.34 191.73 108.868C191.73 109.172 191.69 109.464 191.61 109.744C191.53 110.016 191.402 110.288 191.226 110.56C191.05 110.832 190.818 111.12 190.53 111.424C190.242 111.728 189.882 112.068 189.45 112.444L187.05 114.544L186.786 114.196H191.778V115Z" fill="black" fill-opacity="0.6"/>
<path d="M121.172 167.188H119.42V166.408H122V175H121.172V167.188Z" fill="black" fill-opacity="0.6"/>
<path d="M129.212 175H123.548V174.316L126.296 171.916C126.696 171.572 127.024 171.268 127.28 171.004C127.536 170.74 127.736 170.5 127.88 170.284C128.032 170.06 128.136 169.84 128.192 169.624C128.256 169.408 128.288 169.172 128.288 168.916C128.288 168.34 128.124 167.884 127.796 167.548C127.468 167.212 127.02 167.044 126.452 167.044C125.86 167.044 125.38 167.244 125.012 167.644C124.652 168.044 124.464 168.576 124.448 169.24H123.584C123.608 168.64 123.74 168.116 123.98 167.668C124.22 167.22 124.552 166.872 124.976 166.624C125.408 166.376 125.904 166.252 126.464 166.252C127.008 166.252 127.48 166.364 127.88 166.588C128.288 166.804 128.604 167.108 128.828 167.5C129.052 167.884 129.164 168.34 129.164 168.868C129.164 169.172 129.124 169.464 129.044 169.744C128.964 170.016 128.836 170.288 128.66 170.56C128.484 170.832 128.252 171.12 127.964 171.424C127.676 171.728 127.316 172.068 126.884 172.444L124.484 174.544L124.22 174.196H129.212V175Z" fill="black" fill-opacity="0.6"/>
<path d="M134.97 175H134.118V166.408H134.97L138.102 173.98L141.234 166.408H142.098V175H141.246V170.92C141.246 170.544 141.246 170.216 141.246 169.936C141.254 169.656 141.258 169.412 141.258 169.204C141.266 168.996 141.274 168.812 141.282 168.652C141.29 168.484 141.302 168.324 141.318 168.172L138.522 175H137.694L134.898 168.208C134.922 168.368 134.938 168.676 134.946 169.132C134.962 169.58 134.97 170.132 134.97 170.788V175Z" fill="black" fill-opacity="0.6"/>
<path d="M145.673 175.144C145.057 175.144 144.573 174.984 144.221 174.664C143.877 174.344 143.705 173.932 143.705 173.428C143.705 172.892 143.897 172.464 144.281 172.144C144.665 171.824 145.197 171.636 145.877 171.58L147.797 171.424V171.232C147.797 170.848 147.729 170.548 147.593 170.332C147.457 170.108 147.273 169.952 147.041 169.864C146.809 169.776 146.549 169.732 146.261 169.732C145.749 169.732 145.353 169.84 145.073 170.056C144.793 170.272 144.653 170.576 144.653 170.968H143.897C143.897 170.576 143.997 170.236 144.197 169.948C144.397 169.66 144.677 169.436 145.037 169.276C145.397 169.116 145.813 169.036 146.285 169.036C146.741 169.036 147.141 169.116 147.485 169.276C147.829 169.428 148.101 169.668 148.301 169.996C148.509 170.316 148.613 170.732 148.613 171.244V175H147.917L147.809 173.98C147.633 174.348 147.353 174.636 146.969 174.844C146.593 175.044 146.161 175.144 145.673 175.144ZM145.865 174.472C146.481 174.472 146.957 174.276 147.293 173.884C147.629 173.492 147.797 172.984 147.797 172.36V172.048L146.081 172.18C145.537 172.228 145.145 172.364 144.905 172.588C144.665 172.812 144.545 173.084 144.545 173.404C144.545 173.756 144.665 174.024 144.905 174.208C145.145 174.384 145.465 174.472 145.865 174.472Z" fill="black" fill-opacity="0.6"/>
<path d="M150.265 169.192L152.449 175.12L151.837 175.6L149.389 169.192H150.265ZM149.557 177.532V176.848H150.193C150.361 176.848 150.525 176.832 150.685 176.8C150.853 176.776 151.005 176.708 151.141 176.596C151.285 176.484 151.401 176.296 151.489 176.032L153.973 169.192H154.825L152.161 176.332C151.993 176.788 151.765 177.116 151.477 177.316C151.197 177.516 150.849 177.616 150.433 177.616C150.265 177.616 150.109 177.608 149.965 177.592C149.821 177.584 149.685 177.564 149.557 177.532Z" fill="black" fill-opacity="0.6"/>
<path d="M164.462 175H158.798V174.316L161.546 171.916C161.946 171.572 162.274 171.268 162.53 171.004C162.786 170.74 162.986 170.5 163.13 170.284C163.282 170.06 163.386 169.84 163.442 169.624C163.506 169.408 163.538 169.172 163.538 168.916C163.538 168.34 163.374 167.884 163.046 167.548C162.718 167.212 162.27 167.044 161.702 167.044C161.11 167.044 160.63 167.244 160.262 167.644C159.902 168.044 159.714 168.576 159.698 169.24H158.834C158.858 168.64 158.99 168.116 159.23 167.668C159.47 167.22 159.802 166.872 160.226 166.624C160.658 166.376 161.154 166.252 161.714 166.252C162.258 166.252 162.73 166.364 163.13 166.588C163.538 166.804 163.854 167.108 164.078 167.5C164.302 167.884 164.414 168.34 164.414 168.868C164.414 169.172 164.374 169.464 164.294 169.744C164.214 170.016 164.086 170.288 163.91 170.56C163.734 170.832 163.502 171.12 163.214 171.424C162.926 171.728 162.566 172.068 162.134 172.444L159.734 174.544L159.47 174.196H164.462V175Z" fill="black" fill-opacity="0.6"/>
<path d="M165.656 170.704C165.656 169.808 165.792 169.028 166.064 168.364C166.344 167.7 166.74 167.18 167.252 166.804C167.772 166.428 168.388 166.24 169.1 166.24C169.812 166.24 170.424 166.428 170.936 166.804C171.448 167.18 171.84 167.7 172.112 168.364C172.392 169.028 172.532 169.808 172.532 170.704C172.532 171.6 172.396 172.38 172.124 173.044C171.852 173.708 171.46 174.228 170.948 174.604C170.436 174.972 169.82 175.156 169.1 175.156C168.38 175.156 167.76 174.972 167.24 174.604C166.728 174.228 166.336 173.708 166.064 173.044C165.792 172.38 165.656 171.6 165.656 170.704ZM166.508 170.704C166.508 171.448 166.608 172.096 166.808 172.648C167.016 173.2 167.312 173.628 167.696 173.932C168.08 174.228 168.548 174.376 169.1 174.376C169.644 174.376 170.108 174.228 170.492 173.932C170.884 173.628 171.18 173.2 171.38 172.648C171.588 172.096 171.692 171.448 171.692 170.704C171.692 169.952 171.588 169.304 171.38 168.76C171.18 168.208 170.884 167.784 170.492 167.488C170.108 167.184 169.644 167.032 169.1 167.032C168.548 167.032 168.08 167.184 167.696 167.488C167.312 167.784 167.016 168.208 166.808 168.76C166.608 169.304 166.508 169.952 166.508 170.704Z" fill="black" fill-opacity="0.6"/>
<path d="M179.392 175H173.728V174.316L176.476 171.916C176.876 171.572 177.204 171.268 177.46 171.004C177.716 170.74 177.916 170.5 178.06 170.284C178.212 170.06 178.316 169.84 178.372 169.624C178.436 169.408 178.468 169.172 178.468 168.916C178.468 168.34 178.304 167.884 177.976 167.548C177.648 167.212 177.2 167.044 176.632 167.044C176.04 167.044 175.56 167.244 175.192 167.644C174.832 168.044 174.644 168.576 174.628 169.24H173.764C173.788 168.64 173.92 168.116 174.16 167.668C174.4 167.22 174.732 166.872 175.156 166.624C175.588 166.376 176.084 166.252 176.644 166.252C177.188 166.252 177.66 166.364 178.06 166.588C178.468 166.804 178.784 167.108 179.008 167.5C179.232 167.884 179.344 168.34 179.344 168.868C179.344 169.172 179.304 169.464 179.224 169.744C179.144 170.016 179.016 170.288 178.84 170.56C178.664 170.832 178.432 171.12 178.144 171.424C177.856 171.728 177.496 172.068 177.064 172.444L174.664 174.544L174.4 174.196H179.392V175Z" fill="black" fill-opacity="0.6"/>
<path d="M182.121 167.188H180.369V166.408H182.949V175H182.121V167.188Z" fill="black" fill-opacity="0.6"/>
<path d="M185.709 174.88H185.769C185.729 174.92 185.677 174.952 185.613 174.976C185.557 175 185.485 175.012 185.397 175.012C185.237 175.012 185.093 174.956 184.965 174.844C184.837 174.724 184.773 174.564 184.773 174.364C184.773 174.156 184.837 173.984 184.965 173.848C185.101 173.712 185.273 173.644 185.481 173.644C185.697 173.644 185.885 173.728 186.045 173.896C186.205 174.064 186.285 174.296 186.285 174.592C186.285 174.84 186.225 175.072 186.105 175.288C185.993 175.504 185.837 175.68 185.637 175.816C185.437 175.96 185.213 176.052 184.965 176.092V175.648C185.181 175.608 185.357 175.516 185.493 175.372C185.637 175.236 185.709 175.072 185.709 174.88Z" fill="black" fill-opacity="0.6"/>
<path d="M192.598 167.188H190.846V166.408H193.426V175H192.598V167.188Z" fill="black" fill-opacity="0.6"/>
<path d="M196.559 167.188H194.807V166.408H197.387V175H196.559V167.188Z" fill="black" fill-opacity="0.6"/>
<path d="M200.087 175.132C199.887 175.132 199.711 175.06 199.559 174.916C199.407 174.772 199.331 174.6 199.331 174.4C199.331 174.192 199.407 174.016 199.559 173.872C199.711 173.72 199.887 173.644 200.087 173.644C200.295 173.644 200.471 173.72 200.615 173.872C200.767 174.016 200.843 174.192 200.843 174.4C200.843 174.6 200.767 174.772 200.615 174.916C200.471 175.06 200.295 175.132 200.087 175.132ZM200.087 170.536C199.887 170.536 199.711 170.464 199.559 170.32C199.407 170.168 199.331 169.992 199.331 169.792C199.331 169.584 199.407 169.408 199.559 169.264C199.711 169.12 199.887 169.048 200.087 169.048C200.295 169.048 200.471 169.12 200.615 169.264C200.767 169.408 200.843 169.584 200.843 169.792C200.843 169.992 200.767 170.168 200.615 170.32C200.471 170.464 200.295 170.536 200.087 170.536Z" fill="black" fill-opacity="0.6"/>
<path d="M202.441 170.704C202.441 169.808 202.577 169.028 202.849 168.364C203.129 167.7 203.525 167.18 204.037 166.804C204.557 166.428 205.173 166.24 205.885 166.24C206.597 166.24 207.209 166.428 207.721 166.804C208.233 167.18 208.625 167.7 208.897 168.364C209.177 169.028 209.317 169.808 209.317 170.704C209.317 171.6 209.181 172.38 208.909 173.044C208.637 173.708 208.245 174.228 207.733 174.604C207.221 174.972 206.605 175.156 205.885 175.156C205.165 175.156 204.545 174.972 204.025 174.604C203.513 174.228 203.121 173.708 202.849 173.044C202.577 172.38 202.441 171.6 202.441 170.704ZM203.293 170.704C203.293 171.448 203.393 172.096 203.593 172.648C203.801 173.2 204.097 173.628 204.481 173.932C204.865 174.228 205.333 174.376 205.885 174.376C206.429 174.376 206.893 174.228 207.277 173.932C207.669 173.628 207.965 173.2 208.165 172.648C208.373 172.096 208.477 171.448 208.477 170.704C208.477 169.952 208.373 169.304 208.165 168.76C207.965 168.208 207.669 167.784 207.277 167.488C206.893 167.184 206.429 167.032 205.885 167.032C205.333 167.032 204.865 167.184 204.481 167.488C204.097 167.784 203.801 168.208 203.593 168.76C203.393 169.304 203.293 169.952 203.293 170.704Z" fill="black" fill-opacity="0.6"/>
<path d="M210.633 170.704C210.633 169.808 210.769 169.028 211.041 168.364C211.321 167.7 211.717 167.18 212.229 166.804C212.749 166.428 213.365 166.24 214.077 166.24C214.789 166.24 215.401 166.428 215.913 166.804C216.425 167.18 216.817 167.7 217.089 168.364C217.369 169.028 217.509 169.808 217.509 170.704C217.509 171.6 217.373 172.38 217.101 173.044C216.829 173.708 216.437 174.228 215.925 174.604C215.413 174.972 214.797 175.156 214.077 175.156C213.357 175.156 212.737 174.972 212.217 174.604C211.705 174.228 211.313 173.708 211.041 173.044C210.769 172.38 210.633 171.6 210.633 170.704ZM211.485 170.704C211.485 171.448 211.585 172.096 211.785 172.648C211.993 173.2 212.289 173.628 212.673 173.932C213.057 174.228 213.525 174.376 214.077 174.376C214.621 174.376 215.085 174.228 215.469 173.932C215.861 173.628 216.157 173.2 216.357 172.648C216.565 172.096 216.669 171.448 216.669 170.704C216.669 169.952 216.565 169.304 216.357 168.76C216.157 168.208 215.861 167.784 215.469 167.488C215.085 167.184 214.621 167.032 214.077 167.032C213.525 167.032 213.057 167.184 212.673 167.488C212.289 167.784 211.993 168.208 211.785 168.76C211.585 169.304 211.485 169.952 211.485 170.704Z" fill="black" fill-opacity="0.6"/>
<path d="M219.028 177.532V169.192H219.748L219.832 170.368C220.04 169.92 220.336 169.588 220.72 169.372C221.112 169.148 221.548 169.036 222.028 169.036C222.588 169.036 223.068 169.168 223.468 169.432C223.868 169.696 224.176 170.056 224.392 170.512C224.608 170.968 224.716 171.488 224.716 172.072C224.716 172.656 224.608 173.18 224.392 173.644C224.184 174.108 223.88 174.476 223.48 174.748C223.088 175.012 222.604 175.144 222.028 175.144C221.532 175.144 221.096 175.04 220.72 174.832C220.344 174.616 220.056 174.3 219.856 173.884V177.532H219.028ZM219.868 172.096C219.868 172.536 219.948 172.932 220.108 173.284C220.268 173.628 220.496 173.9 220.792 174.1C221.096 174.3 221.46 174.4 221.884 174.4C222.308 174.4 222.668 174.3 222.964 174.1C223.26 173.9 223.484 173.628 223.636 173.284C223.796 172.932 223.876 172.536 223.876 172.096C223.876 171.648 223.796 171.252 223.636 170.908C223.484 170.556 223.26 170.284 222.964 170.092C222.668 169.892 222.308 169.792 221.884 169.792C221.46 169.792 221.096 169.892 220.792 170.092C220.496 170.284 220.268 170.556 220.108 170.908C219.948 171.252 219.868 171.648 219.868 172.096Z" fill="black" fill-opacity="0.6"/>
<path d="M226.864 175H226.036V169.192H226.756L226.876 170.284L226.756 170.248C226.876 169.88 227.1 169.588 227.428 169.372C227.764 169.148 228.156 169.036 228.604 169.036C229.124 169.036 229.556 169.18 229.9 169.468C230.252 169.748 230.476 170.132 230.572 170.62H230.392C230.472 170.132 230.688 169.748 231.04 169.468C231.4 169.18 231.848 169.036 232.384 169.036C233.008 169.036 233.512 169.228 233.896 169.612C234.28 169.996 234.472 170.524 234.472 171.196V175H233.668V171.364C233.668 170.868 233.54 170.48 233.284 170.2C233.028 169.92 232.676 169.78 232.228 169.78C231.908 169.78 231.632 169.856 231.4 170.008C231.168 170.152 230.988 170.348 230.86 170.596C230.74 170.844 230.68 171.116 230.68 171.412V175H229.864V171.352C229.864 170.856 229.732 170.472 229.468 170.2C229.212 169.928 228.864 169.792 228.424 169.792C228.104 169.792 227.824 169.864 227.584 170.008C227.352 170.152 227.172 170.348 227.044 170.596C226.924 170.836 226.864 171.104 226.864 171.4V175Z" fill="black" fill-opacity="0.6"/>
<path d="M121.288 152H119.176L123.4 140.304H125.496L129.72 152H127.56L126.616 149.296H122.248L121.288 152ZM124.184 143.792L122.84 147.568H126.024L124.68 143.792C124.637 143.632 124.589 143.472 124.536 143.312C124.483 143.152 124.451 143.014 124.44 142.896C124.419 143.003 124.381 143.142 124.328 143.312C124.285 143.472 124.237 143.632 124.184 143.792Z" fill="black"/>
<path d="M130.899 155.664V144.096H132.707L132.835 145.296C133.069 144.838 133.432 144.486 133.923 144.24C134.413 143.984 134.952 143.856 135.539 143.856C136.296 143.856 136.947 144.027 137.491 144.368C138.045 144.71 138.477 145.184 138.787 145.792C139.096 146.4 139.251 147.12 139.251 147.952C139.251 148.774 139.107 149.504 138.819 150.144C138.531 150.784 138.109 151.291 137.555 151.664C137.011 152.027 136.344 152.208 135.555 152.208C134.968 152.208 134.429 152.096 133.939 151.872C133.459 151.648 133.096 151.339 132.851 150.944V155.664H130.899ZM132.867 148.048C132.867 148.518 132.957 148.934 133.139 149.296C133.32 149.659 133.576 149.947 133.907 150.16C134.248 150.363 134.643 150.464 135.091 150.464C135.549 150.464 135.944 150.363 136.275 150.16C136.605 149.947 136.856 149.659 137.027 149.296C137.197 148.934 137.283 148.518 137.283 148.048C137.283 147.579 137.197 147.163 137.027 146.8C136.856 146.438 136.605 146.155 136.275 145.952C135.944 145.739 135.549 145.632 135.091 145.632C134.643 145.632 134.248 145.734 133.907 145.936C133.576 146.139 133.32 146.422 133.139 146.784C132.957 147.147 132.867 147.568 132.867 148.048Z" fill="black"/>
<path d="M140.805 155.664V144.096H142.613L142.741 145.296C142.976 144.838 143.338 144.486 143.829 144.24C144.32 143.984 144.858 143.856 145.445 143.856C146.202 143.856 146.853 144.027 147.397 144.368C147.952 144.71 148.384 145.184 148.693 145.792C149.002 146.4 149.157 147.12 149.157 147.952C149.157 148.774 149.013 149.504 148.725 150.144C148.437 150.784 148.016 151.291 147.461 151.664C146.917 152.027 146.25 152.208 145.461 152.208C144.874 152.208 144.336 152.096 143.845 151.872C143.365 151.648 143.002 151.339 142.757 150.944V155.664H140.805ZM142.773 148.048C142.773 148.518 142.864 148.934 143.045 149.296C143.226 149.659 143.482 149.947 143.813 150.16C144.154 150.363 144.549 150.464 144.997 150.464C145.456 150.464 145.85 150.363 146.181 150.16C146.512 149.947 146.762 149.659 146.933 149.296C147.104 148.934 147.189 148.518 147.189 148.048C147.189 147.579 147.104 147.163 146.933 146.8C146.762 146.438 146.512 146.155 146.181 145.952C145.85 145.739 145.456 145.632 144.997 145.632C144.549 145.632 144.154 145.734 143.813 145.936C143.482 146.139 143.226 146.422 143.045 146.784C142.864 147.147 142.773 147.568 142.773 148.048Z" fill="black"/>
<path d="M154.64 143.568C154.64 142.886 154.816 142.283 155.168 141.76C155.52 141.238 156.005 140.832 156.624 140.544C157.253 140.246 157.978 140.096 158.8 140.096C159.589 140.096 160.272 140.235 160.848 140.512C161.434 140.79 161.888 141.184 162.208 141.696C162.538 142.208 162.714 142.816 162.736 143.52H160.688C160.666 143.019 160.485 142.63 160.144 142.352C159.802 142.064 159.344 141.92 158.768 141.92C158.138 141.92 157.632 142.064 157.248 142.352C156.874 142.63 156.688 143.014 156.688 143.504C156.688 143.92 156.8 144.251 157.024 144.496C157.258 144.731 157.621 144.907 158.112 145.024L159.952 145.44C160.954 145.654 161.701 146.022 162.192 146.544C162.682 147.056 162.928 147.75 162.928 148.624C162.928 149.339 162.752 149.968 162.4 150.512C162.048 151.056 161.546 151.478 160.896 151.776C160.256 152.064 159.504 152.208 158.64 152.208C157.818 152.208 157.098 152.07 156.48 151.792C155.861 151.504 155.376 151.104 155.024 150.592C154.682 150.08 154.501 149.478 154.48 148.784H156.528C156.538 149.275 156.73 149.664 157.104 149.952C157.488 150.23 158.005 150.368 158.656 150.368C159.338 150.368 159.877 150.23 160.272 149.952C160.677 149.664 160.88 149.286 160.88 148.816C160.88 148.411 160.773 148.091 160.56 147.856C160.346 147.611 160 147.44 159.52 147.344L157.664 146.928C156.672 146.715 155.92 146.331 155.408 145.776C154.896 145.211 154.64 144.475 154.64 143.568Z" fill="black"/>
<path d="M163.708 144.096H168.7V145.728H163.708V144.096ZM167.18 152H165.228V141.632H167.18V152Z" fill="black"/>
<path d="M169.388 148.032C169.388 147.211 169.569 146.491 169.932 145.872C170.294 145.243 170.796 144.752 171.436 144.4C172.076 144.048 172.801 143.872 173.612 143.872C174.433 143.872 175.158 144.048 175.788 144.4C176.428 144.752 176.929 145.243 177.292 145.872C177.654 146.491 177.836 147.211 177.836 148.032C177.836 148.854 177.654 149.579 177.292 150.208C176.929 150.827 176.428 151.312 175.788 151.664C175.158 152.016 174.433 152.192 173.612 152.192C172.801 152.192 172.076 152.016 171.436 151.664C170.796 151.312 170.294 150.827 169.932 150.208C169.569 149.579 169.388 148.854 169.388 148.032ZM171.34 148.032C171.34 148.512 171.436 148.934 171.628 149.296C171.83 149.659 172.097 149.942 172.428 150.144C172.769 150.347 173.164 150.448 173.612 150.448C174.06 150.448 174.454 150.347 174.796 150.144C175.137 149.942 175.404 149.659 175.596 149.296C175.788 148.934 175.884 148.512 175.884 148.032C175.884 147.542 175.788 147.12 175.596 146.768C175.404 146.406 175.137 146.123 174.796 145.92C174.454 145.718 174.06 145.616 173.612 145.616C173.164 145.616 172.769 145.718 172.428 145.92C172.097 146.123 171.83 146.406 171.628 146.768C171.436 147.12 171.34 147.542 171.34 148.032Z" fill="black"/>
<path d="M184.343 144.064V145.872H183.623C182.908 145.872 182.348 146.064 181.943 146.448C181.538 146.822 181.335 147.392 181.335 148.16V152H179.383V144.112H181.223L181.383 145.744H181.191C181.298 145.222 181.548 144.795 181.943 144.464C182.338 144.134 182.85 143.968 183.479 143.968C183.618 143.968 183.756 143.974 183.895 143.984C184.034 143.995 184.183 144.022 184.343 144.064Z" fill="black"/>
<path d="M188.935 152.208C188.156 152.208 187.463 152.032 186.855 151.68C186.257 151.318 185.788 150.827 185.447 150.208C185.105 149.579 184.935 148.859 184.935 148.048C184.935 147.227 185.1 146.502 185.431 145.872C185.761 145.243 186.225 144.752 186.823 144.4C187.42 144.038 188.103 143.856 188.871 143.856C189.671 143.856 190.359 144.027 190.935 144.368C191.511 144.699 191.953 145.163 192.263 145.76C192.583 146.358 192.743 147.072 192.743 147.904V148.496L185.959 148.512L185.991 147.264H190.807C190.807 146.72 190.631 146.283 190.279 145.952C189.937 145.622 189.473 145.456 188.887 145.456C188.428 145.456 188.039 145.552 187.719 145.744C187.409 145.936 187.175 146.224 187.015 146.608C186.855 146.992 186.775 147.462 186.775 148.016C186.775 148.87 186.956 149.515 187.319 149.952C187.692 150.39 188.241 150.608 188.967 150.608C189.5 150.608 189.937 150.507 190.279 150.304C190.631 150.102 190.86 149.814 190.967 149.44H192.775C192.604 150.304 192.177 150.982 191.495 151.472C190.823 151.963 189.969 152.208 188.935 152.208Z" fill="black"/>
<path d="M123.16 230.52V215.768H124.392V230.52H123.16ZM119.624 220.568C119.624 219.885 119.8 219.283 120.152 218.76C120.504 218.237 120.989 217.832 121.608 217.544C122.237 217.245 122.963 217.096 123.784 217.096C124.573 217.096 125.256 217.235 125.832 217.512C126.419 217.789 126.872 218.184 127.192 218.696C127.523 219.208 127.699 219.816 127.72 220.52H125.736C125.715 219.987 125.528 219.576 125.176 219.288C124.835 219 124.36 218.856 123.752 218.856C123.101 218.856 122.584 219.005 122.2 219.304C121.816 219.592 121.624 219.992 121.624 220.504C121.624 220.92 121.741 221.256 121.976 221.512C122.211 221.768 122.584 221.955 123.096 222.072L124.936 222.488C125.96 222.712 126.712 223.08 127.192 223.592C127.672 224.093 127.912 224.771 127.912 225.624C127.912 226.339 127.736 226.968 127.384 227.512C127.032 228.056 126.531 228.477 125.88 228.776C125.24 229.064 124.488 229.208 123.624 229.208C122.803 229.208 122.083 229.069 121.464 228.792C120.845 228.504 120.36 228.104 120.008 227.592C119.667 227.08 119.485 226.477 119.464 225.784H121.512C121.523 226.307 121.715 226.712 122.088 227C122.461 227.288 122.979 227.432 123.64 227.432C124.344 227.432 124.899 227.288 125.304 227C125.72 226.701 125.928 226.307 125.928 225.816C125.928 225.005 125.453 224.493 124.504 224.28L122.648 223.88C121.645 223.667 120.888 223.283 120.376 222.728C119.875 222.163 119.624 221.443 119.624 220.568Z" fill="black"/>
<path d="M131.573 219.144H129.013V217.304H133.525V229H131.573V219.144Z" fill="black"/>
<path d="M137.196 220.744L139.724 217.304H142.06L138.764 221.704L138.252 221.576C138.486 221.363 138.774 221.197 139.116 221.08C139.468 220.963 139.809 220.904 140.14 220.904C140.94 220.904 141.644 221.08 142.252 221.432C142.86 221.773 143.334 222.253 143.676 222.872C144.017 223.48 144.188 224.179 144.188 224.968C144.188 225.8 143.996 226.536 143.612 227.176C143.238 227.805 142.721 228.301 142.06 228.664C141.409 229.027 140.668 229.208 139.836 229.208C138.993 229.208 138.236 229.021 137.564 228.648C136.902 228.275 136.38 227.768 135.996 227.128C135.612 226.477 135.42 225.752 135.42 224.952C135.42 224.472 135.473 224.029 135.58 223.624C135.697 223.208 135.884 222.771 136.14 222.312C136.406 221.853 136.758 221.331 137.196 220.744ZM137.516 224.968C137.516 225.448 137.612 225.869 137.804 226.232C138.006 226.595 138.278 226.877 138.62 227.08C138.972 227.283 139.377 227.384 139.836 227.384C140.284 227.384 140.678 227.283 141.02 227.08C141.361 226.877 141.628 226.595 141.82 226.232C142.022 225.869 142.124 225.448 142.124 224.968C142.124 224.499 142.022 224.088 141.82 223.736C141.628 223.373 141.361 223.091 141.02 222.888C140.678 222.685 140.284 222.584 139.836 222.584C139.377 222.584 138.972 222.685 138.62 222.888C138.268 223.091 137.996 223.373 137.804 223.736C137.612 224.088 137.516 224.499 137.516 224.968Z" fill="black"/>
<path d="M145.454 223.176C145.454 221.96 145.656 220.899 146.062 219.992C146.478 219.085 147.054 218.376 147.79 217.864C148.536 217.341 149.406 217.08 150.398 217.08C151.4 217.08 152.27 217.341 153.006 217.864C153.752 218.376 154.328 219.085 154.734 219.992C155.15 220.899 155.358 221.96 155.358 223.176C155.358 224.381 155.16 225.437 154.766 226.344C154.371 227.251 153.806 227.955 153.07 228.456C152.334 228.957 151.443 229.208 150.398 229.208C149.374 229.208 148.488 228.957 147.742 228.456C147.006 227.955 146.44 227.251 146.046 226.344C145.651 225.437 145.454 224.381 145.454 223.176ZM147.47 223.176C147.47 224.072 147.587 224.84 147.822 225.48C148.056 226.109 148.392 226.589 148.83 226.92C149.267 227.24 149.79 227.4 150.398 227.4C151.027 227.4 151.555 227.24 151.982 226.92C152.419 226.589 152.755 226.109 152.99 225.48C153.224 224.84 153.342 224.072 153.342 223.176C153.342 222.248 153.224 221.469 152.99 220.84C152.755 220.2 152.419 219.715 151.982 219.384C151.555 219.053 151.027 218.888 150.398 218.888C149.79 218.888 149.267 219.053 148.83 219.384C148.392 219.715 148.056 220.2 147.822 220.84C147.587 221.469 147.47 222.248 147.47 223.176Z" fill="black"/>
<path d="M158.077 228.856L158.269 228.808C158.183 228.883 158.087 228.941 157.981 228.984C157.885 229.016 157.767 229.032 157.629 229.032C157.319 229.032 157.053 228.931 156.829 228.728C156.605 228.515 156.493 228.248 156.493 227.928C156.493 227.544 156.605 227.235 156.829 227C157.053 226.765 157.346 226.648 157.709 226.648C158.114 226.648 158.445 226.797 158.701 227.096C158.957 227.395 159.085 227.795 159.085 228.296C159.085 228.733 158.989 229.133 158.797 229.496C158.605 229.869 158.338 230.173 157.997 230.408C157.655 230.643 157.266 230.787 156.829 230.84V230.056C157.191 229.992 157.49 229.853 157.725 229.64C157.959 229.437 158.077 229.176 158.077 228.856Z" fill="black"/>
<path d="M160.235 223.176C160.235 221.96 160.438 220.899 160.843 219.992C161.259 219.085 161.835 218.376 162.571 217.864C163.318 217.341 164.187 217.08 165.179 217.08C166.182 217.08 167.051 217.341 167.787 217.864C168.534 218.376 169.11 219.085 169.515 219.992C169.931 220.899 170.139 221.96 170.139 223.176C170.139 224.381 169.942 225.437 169.547 226.344C169.152 227.251 168.587 227.955 167.851 228.456C167.115 228.957 166.224 229.208 165.179 229.208C164.155 229.208 163.27 228.957 162.523 228.456C161.787 227.955 161.222 227.251 160.827 226.344C160.432 225.437 160.235 224.381 160.235 223.176ZM162.251 223.176C162.251 224.072 162.368 224.84 162.603 225.48C162.838 226.109 163.174 226.589 163.611 226.92C164.048 227.24 164.571 227.4 165.179 227.4C165.808 227.4 166.336 227.24 166.763 226.92C167.2 226.589 167.536 226.109 167.771 225.48C168.006 224.84 168.123 224.072 168.123 223.176C168.123 222.248 168.006 221.469 167.771 220.84C167.536 220.2 167.2 219.715 166.763 219.384C166.336 219.053 165.808 218.888 165.179 218.888C164.571 218.888 164.048 219.053 163.611 219.384C163.174 219.715 162.838 220.2 162.603 220.84C162.368 221.469 162.251 222.248 162.251 223.176Z" fill="black"/>
<path d="M171.516 223.176C171.516 221.96 171.719 220.899 172.124 219.992C172.54 219.085 173.116 218.376 173.852 217.864C174.599 217.341 175.468 217.08 176.46 217.08C177.463 217.08 178.332 217.341 179.068 217.864C179.815 218.376 180.391 219.085 180.796 219.992C181.212 220.899 181.42 221.96 181.42 223.176C181.42 224.381 181.223 225.437 180.828 226.344C180.433 227.251 179.868 227.955 179.132 228.456C178.396 228.957 177.505 229.208 176.46 229.208C175.436 229.208 174.551 228.957 173.804 228.456C173.068 227.955 172.503 227.251 172.108 226.344C171.713 225.437 171.516 224.381 171.516 223.176ZM173.532 223.176C173.532 224.072 173.649 224.84 173.884 225.48C174.119 226.109 174.455 226.589 174.892 226.92C175.329 227.24 175.852 227.4 176.46 227.4C177.089 227.4 177.617 227.24 178.044 226.92C178.481 226.589 178.817 226.109 179.052 225.48C179.287 224.84 179.404 224.072 179.404 223.176C179.404 222.248 179.287 221.469 179.052 220.84C178.817 220.2 178.481 219.715 178.044 219.384C177.617 219.053 177.089 218.888 176.46 218.888C175.852 218.888 175.329 219.053 174.892 219.384C174.455 219.715 174.119 220.2 173.884 220.84C173.649 221.469 173.532 222.248 173.532 223.176Z" fill="black"/>
<path d="M119 194H251V195H119V194Z" fill="#E5E5E5"/>
<defs>
<filter id="filter0_d_1_184" x="-5" y="-18" width="380" height="380" filterUnits="userSpaceOnUse" color-interpolation-filters="sRGB">
<feFlood flood-opacity="0" result="BackgroundImageFix"/>
<feColorMatrix in="SourceAlpha" type="matrix" values="0 0 0 0 0 0 0 0 0 0 0 0 0 0 0 0 0 0 127 0" result="hardAlpha"/>
<feOffset dy="4"/>
<feGaussianBlur stdDeviation="50"/>
<feComposite in2="hardAlpha" operator="out"/>
<feColorMatrix type="matrix" values="0 0 0 0 0.66277 0 0 0 0 0.66277 0 0 0 0 0.66277 0 0 0 0.16 0"/>
<feBlend mode="normal" in2="BackgroundImageFix" result="effect1_dropShadow_1_184"/>
<feBlend mode="normal" in="SourceGraphic" in2="effect1_dropShadow_1_184" result="shape"/>
</filter>
</defs>
</svg>
