<svg width="373" height="240" viewBox="0 0 373 240" fill="none" xmlns="http://www.w3.org/2000/svg">
<rect width="373" height="240" fill="#F9F9F9"/>
<mask id="mask0_1_312" style="mask-type:alpha" maskUnits="userSpaceOnUse" x="25" y="190" width="25" height="25">
<rect x="25" y="190" width="25" height="25" fill="#00B3FF"/>
</mask>
<g mask="url(#mask0_1_312)">
<path d="M50 215C50 211.717 49.3534 208.466 48.097 205.433C46.8406 202.4 44.9991 199.644 42.6777 197.322C40.3562 195.001 37.6002 193.159 34.5671 191.903C31.5339 190.647 28.283 190 25 190L25 215H50Z" fill="#E1E1E1"/>
</g>
<g filter="url(#filter0_d_1_312)">
<rect x="35" y="35" width="303" height="170" fill="white"/>
</g>
<path d="M62.648 63.792V72H61.784V63.792H62.648ZM59.144 64.2V63.408H65.3V64.2H59.144ZM65.0107 69.096C65.0107 68.496 65.1387 67.968 65.3947 67.512C65.6507 67.056 66.0027 66.696 66.4507 66.432C66.8987 66.168 67.4027 66.036 67.9627 66.036C68.5307 66.036 69.0347 66.168 69.4747 66.432C69.9227 66.696 70.2747 67.056 70.5307 67.512C70.7867 67.968 70.9147 68.496 70.9147 69.096C70.9147 69.68 70.7867 70.204 70.5307 70.668C70.2747 71.124 69.9227 71.484 69.4747 71.748C69.0347 72.012 68.5307 72.144 67.9627 72.144C67.4027 72.144 66.8987 72.012 66.4507 71.748C66.0027 71.484 65.6507 71.124 65.3947 70.668C65.1387 70.204 65.0107 69.68 65.0107 69.096ZM65.8507 69.084C65.8507 69.54 65.9387 69.944 66.1147 70.296C66.2987 70.64 66.5467 70.912 66.8587 71.112C67.1787 71.304 67.5467 71.4 67.9627 71.4C68.3787 71.4 68.7427 71.304 69.0547 71.112C69.3747 70.912 69.6227 70.64 69.7987 70.296C69.9827 69.944 70.0747 69.54 70.0747 69.084C70.0747 68.636 69.9827 68.24 69.7987 67.896C69.6227 67.552 69.3747 67.28 69.0547 67.08C68.7427 66.88 68.3787 66.78 67.9627 66.78C67.5467 66.78 67.1787 66.88 66.8587 67.08C66.5467 67.28 66.2987 67.552 66.1147 67.896C65.9387 68.24 65.8507 68.636 65.8507 69.084ZM71.5324 66.192H74.6764V66.888H71.5324V66.192ZM73.5124 72H72.6964V64.356H73.5124V72ZM77.3289 72.144C76.7129 72.144 76.2289 71.984 75.8769 71.664C75.5329 71.344 75.3609 70.932 75.3609 70.428C75.3609 69.892 75.5529 69.464 75.9369 69.144C76.3209 68.824 76.8529 68.636 77.5329 68.58L79.4529 68.424V68.232C79.4529 67.848 79.3849 67.548 79.2489 67.332C79.1129 67.108 78.9289 66.952 78.6969 66.864C78.4649 66.776 78.2049 66.732 77.9169 66.732C77.4049 66.732 77.0089 66.84 76.7289 67.056C76.4489 67.272 76.3089 67.576 76.3089 67.968H75.5529C75.5529 67.576 75.6529 67.236 75.8529 66.948C76.0529 66.66 76.3329 66.436 76.6929 66.276C77.0529 66.116 77.4689 66.036 77.9409 66.036C78.3969 66.036 78.7969 66.116 79.1409 66.276C79.4849 66.428 79.7569 66.668 79.9569 66.996C80.1649 67.316 80.2689 67.732 80.2689 68.244V72H79.5729L79.4649 70.98C79.2889 71.348 79.0089 71.636 78.6249 71.844C78.2489 72.044 77.8169 72.144 77.3289 72.144ZM77.5209 71.472C78.1369 71.472 78.6129 71.276 78.9489 70.884C79.2849 70.492 79.4529 69.984 79.4529 69.36V69.048L77.7369 69.18C77.1929 69.228 76.8009 69.364 76.5609 69.588C76.3209 69.812 76.2009 70.084 76.2009 70.404C76.2009 70.756 76.3209 71.024 76.5609 71.208C76.8009 71.384 77.1209 71.472 77.5209 71.472ZM82.7944 72H81.9664V63.252H82.7944V72ZM87.5475 65.64C87.5475 65.16 87.6675 64.744 87.9075 64.392C88.1475 64.032 88.4835 63.752 88.9155 63.552C89.3475 63.352 89.8515 63.252 90.4275 63.252C90.9475 63.252 91.3995 63.344 91.7835 63.528C92.1755 63.712 92.4875 63.976 92.7195 64.32C92.9515 64.664 93.0875 65.076 93.1275 65.556H92.2515C92.2035 65.076 92.0195 64.704 91.6995 64.44C91.3795 64.168 90.9515 64.032 90.4155 64.032C89.8155 64.032 89.3315 64.176 88.9635 64.464C88.5955 64.752 88.4115 65.14 88.4115 65.628C88.4115 66.004 88.5235 66.316 88.7475 66.564C88.9715 66.804 89.3075 66.98 89.7555 67.092L91.2315 67.452C91.9035 67.612 92.4115 67.884 92.7555 68.268C93.0995 68.644 93.2715 69.124 93.2715 69.708C93.2715 70.196 93.1515 70.624 92.9115 70.992C92.6715 71.36 92.3315 71.644 91.8915 71.844C91.4515 72.044 90.9355 72.144 90.3435 72.144C89.7915 72.144 89.2995 72.052 88.8675 71.868C88.4435 71.684 88.1075 71.42 87.8595 71.076C87.6195 70.732 87.4795 70.328 87.4395 69.864H88.3275C88.3515 70.32 88.5475 70.684 88.9155 70.956C89.2835 71.22 89.7595 71.352 90.3435 71.352C90.9755 71.352 91.4755 71.208 91.8435 70.92C92.2195 70.632 92.4075 70.244 92.4075 69.756C92.4075 69.364 92.2955 69.048 92.0715 68.808C91.8555 68.56 91.5155 68.38 91.0515 68.268L89.5995 67.908C88.9275 67.748 88.4155 67.48 88.0635 67.104C87.7195 66.72 87.5475 66.232 87.5475 65.64ZM94.6453 74.532V66.192H95.3652L95.4493 67.368C95.6573 66.92 95.9533 66.588 96.3373 66.372C96.7293 66.148 97.1653 66.036 97.6453 66.036C98.2053 66.036 98.6853 66.168 99.0853 66.432C99.4853 66.696 99.7933 67.056 100.009 67.512C100.225 67.968 100.333 68.488 100.333 69.072C100.333 69.656 100.225 70.18 100.009 70.644C99.8013 71.108 99.4973 71.476 99.0973 71.748C98.7053 72.012 98.2213 72.144 97.6453 72.144C97.1493 72.144 96.7133 72.04 96.3373 71.832C95.9613 71.616 95.6733 71.3 95.4733 70.884V74.532H94.6453ZM95.4853 69.096C95.4853 69.536 95.5653 69.932 95.7253 70.284C95.8853 70.628 96.1133 70.9 96.4093 71.1C96.7133 71.3 97.0773 71.4 97.5013 71.4C97.9253 71.4 98.2853 71.3 98.5813 71.1C98.8773 70.9 99.1013 70.628 99.2533 70.284C99.4133 69.932 99.4933 69.536 99.4933 69.096C99.4933 68.648 99.4133 68.252 99.2533 67.908C99.1013 67.556 98.8773 67.284 98.5813 67.092C98.2853 66.892 97.9253 66.792 97.5013 66.792C97.0773 66.792 96.7133 66.892 96.4093 67.092C96.1133 67.284 95.8853 67.556 95.7253 67.908C95.5653 68.252 95.4853 68.648 95.4853 69.096ZM104.089 72.144C103.529 72.144 103.033 72.016 102.601 71.76C102.177 71.504 101.845 71.148 101.605 70.692C101.365 70.236 101.245 69.704 101.245 69.096C101.245 68.496 101.361 67.968 101.593 67.512C101.833 67.048 102.161 66.688 102.577 66.432C102.993 66.168 103.477 66.036 104.029 66.036C104.557 66.036 105.017 66.152 105.409 66.384C105.809 66.616 106.117 66.94 106.333 67.356C106.557 67.764 106.669 68.244 106.669 68.796V69.204H101.701L101.725 68.604H105.841C105.841 68.044 105.673 67.596 105.337 67.26C105.009 66.916 104.573 66.744 104.029 66.744C103.629 66.744 103.277 66.836 102.973 67.02C102.677 67.204 102.449 67.468 102.289 67.812C102.129 68.148 102.049 68.548 102.049 69.012C102.049 69.78 102.225 70.376 102.577 70.8C102.937 71.224 103.445 71.436 104.101 71.436C104.573 71.436 104.961 71.336 105.265 71.136C105.569 70.936 105.773 70.644 105.877 70.26H106.669C106.517 70.868 106.221 71.336 105.781 71.664C105.341 71.984 104.777 72.144 104.089 72.144ZM108.821 72H107.993V66.192H108.713L108.833 67.2C109.025 66.832 109.297 66.548 109.649 66.348C110.009 66.14 110.401 66.036 110.825 66.036C111.625 66.036 112.201 66.256 112.553 66.696C112.905 67.136 113.081 67.72 113.081 68.448V72H112.253V68.628C112.253 67.948 112.109 67.472 111.821 67.2C111.541 66.928 111.161 66.792 110.681 66.792C110.089 66.792 109.629 66.992 109.301 67.392C108.981 67.784 108.821 68.308 108.821 68.964V72ZM117.011 72.144C116.451 72.144 115.971 72.012 115.571 71.748C115.171 71.484 114.863 71.124 114.647 70.668C114.431 70.204 114.323 69.684 114.323 69.108C114.323 68.524 114.431 68 114.647 67.536C114.863 67.072 115.171 66.708 115.571 66.444C115.979 66.172 116.471 66.036 117.047 66.036C117.527 66.036 117.951 66.14 118.319 66.348C118.695 66.556 118.983 66.872 119.183 67.296V63.252H120.011V72H119.291L119.207 70.812C118.999 71.26 118.703 71.596 118.319 71.82C117.935 72.036 117.499 72.144 117.011 72.144ZM117.155 71.388C117.587 71.388 117.951 71.292 118.247 71.1C118.543 70.9 118.771 70.628 118.931 70.284C119.091 69.932 119.171 69.532 119.171 69.084C119.171 68.636 119.091 68.24 118.931 67.896C118.771 67.552 118.543 67.28 118.247 67.08C117.951 66.88 117.587 66.78 117.155 66.78C116.739 66.78 116.379 66.88 116.075 67.08C115.779 67.28 115.551 67.552 115.391 67.896C115.239 68.24 115.163 68.636 115.163 69.084C115.163 69.532 115.239 69.932 115.391 70.284C115.551 70.628 115.779 70.9 116.075 71.1C116.379 71.292 116.739 71.388 117.155 71.388Z" fill="black" fill-opacity="0.6"/>
<path d="M64.2 104.9V86.46H65.74V104.9H64.2ZM59.78 92.46C59.78 91.6067 60 90.8533 60.44 90.2C60.88 89.5467 61.4867 89.04 62.26 88.68C63.0467 88.3067 63.9533 88.12 64.98 88.12C65.9667 88.12 66.82 88.2933 67.54 88.64C68.2733 88.9867 68.84 89.48 69.24 90.12C69.6533 90.76 69.8733 91.52 69.9 92.4H67.42C67.3933 91.7333 67.16 91.22 66.72 90.86C66.2933 90.5 65.7 90.32 64.94 90.32C64.1267 90.32 63.48 90.5067 63 90.88C62.52 91.24 62.28 91.74 62.28 92.38C62.28 92.9 62.4267 93.32 62.72 93.64C63.0133 93.96 63.48 94.1933 64.12 94.34L66.42 94.86C67.7 95.14 68.64 95.6 69.24 96.24C69.84 96.8667 70.14 97.7133 70.14 98.78C70.14 99.6733 69.92 100.46 69.48 101.14C69.04 101.82 68.4133 102.347 67.6 102.72C66.8 103.08 65.86 103.26 64.78 103.26C63.7533 103.26 62.8533 103.087 62.08 102.74C61.3067 102.38 60.7 101.88 60.26 101.24C59.8333 100.6 59.6067 99.8467 59.58 98.98H62.14C62.1533 99.6333 62.3933 100.14 62.86 100.5C63.3267 100.86 63.9733 101.04 64.8 101.04C65.68 101.04 66.3733 100.86 66.88 100.5C67.4 100.127 67.66 99.6333 67.66 99.02C67.66 98.0067 67.0667 97.3667 65.88 97.1L63.56 96.6C62.3067 96.3333 61.36 95.8533 60.72 95.16C60.0933 94.4533 59.78 93.5533 59.78 92.46ZM74.7159 90.68H71.5159V88.38H77.1559V103H74.7159V90.68ZM79.1205 88.38H89.6205V90.74H79.1205V88.38ZM87.6205 89.46L89.6205 90.74L84.3205 103H81.6605L87.6205 89.46ZM90.9123 102.82L91.1523 102.76C91.0457 102.853 90.9257 102.927 90.7923 102.98C90.6723 103.02 90.5257 103.04 90.3523 103.04C89.9657 103.04 89.6323 102.913 89.3523 102.66C89.0723 102.393 88.9323 102.06 88.9323 101.66C88.9323 101.18 89.0723 100.793 89.3523 100.5C89.6323 100.207 89.999 100.06 90.4523 100.06C90.959 100.06 91.3723 100.247 91.6923 100.62C92.0123 100.993 92.1723 101.493 92.1723 102.12C92.1723 102.667 92.0523 103.167 91.8123 103.62C91.5723 104.087 91.239 104.467 90.8123 104.76C90.3857 105.053 89.899 105.233 89.3523 105.3V104.32C89.8057 104.24 90.179 104.067 90.4723 103.8C90.7657 103.547 90.9123 103.22 90.9123 102.82ZM99.0602 103.24C98.0468 103.24 97.1535 103.04 96.3802 102.64C95.6202 102.227 95.0268 101.653 94.6002 100.92C94.1868 100.173 93.9802 99.3067 93.9802 98.32H96.5002C96.5002 99.1467 96.7335 99.7933 97.2002 100.26C97.6668 100.727 98.3068 100.96 99.1202 100.96C99.6935 100.96 100.187 100.847 100.6 100.62C101.027 100.38 101.353 100.04 101.58 99.6C101.82 99.16 101.94 98.6467 101.94 98.06C101.94 97.5 101.827 97.0067 101.6 96.58C101.387 96.14 101.073 95.8 100.66 95.56C100.247 95.32 99.7468 95.2 99.1602 95.2C98.6002 95.2 98.0802 95.3267 97.6002 95.58C97.1335 95.82 96.7668 96.1333 96.5002 96.52L94.2402 96.04L96.0402 88.38H103.66V90.74H97.2202L98.0802 89.94L96.9002 94.6L96.0402 94.96C96.3602 94.3467 96.8402 93.88 97.4802 93.56C98.1335 93.2267 98.8668 93.06 99.6802 93.06C100.653 93.06 101.5 93.2667 102.22 93.68C102.953 94.0933 103.52 94.6667 103.92 95.4C104.333 96.12 104.54 96.96 104.54 97.92C104.54 98.9733 104.307 99.9 103.84 100.7C103.387 101.5 102.747 102.127 101.92 102.58C101.107 103.02 100.153 103.24 99.0602 103.24ZM115.552 88.38V103H113.132V88.38H115.552ZM105.712 97.98L112.332 88.38H115.032L108.312 98.14L105.712 97.98ZM117.332 100.22H105.712V97.98H117.332V100.22ZM118.942 95.72C118.942 94.2 119.195 92.8733 119.702 91.74C120.222 90.6067 120.942 89.72 121.862 89.08C122.795 88.4267 123.882 88.1 125.122 88.1C126.375 88.1 127.462 88.4267 128.382 89.08C129.315 89.72 130.035 90.6067 130.542 91.74C131.062 92.8733 131.322 94.2 131.322 95.72C131.322 97.2267 131.075 98.5467 130.582 99.68C130.089 100.813 129.382 101.693 128.462 102.32C127.542 102.947 126.429 103.26 125.122 103.26C123.842 103.26 122.735 102.947 121.802 102.32C120.882 101.693 120.175 100.813 119.682 99.68C119.189 98.5467 118.942 97.2267 118.942 95.72ZM121.462 95.72C121.462 96.84 121.609 97.8 121.902 98.6C122.195 99.3867 122.615 99.9867 123.162 100.4C123.709 100.8 124.362 101 125.122 101C125.909 101 126.569 100.8 127.102 100.4C127.649 99.9867 128.069 99.3867 128.362 98.6C128.655 97.8 128.802 96.84 128.802 95.72C128.802 94.56 128.655 93.5867 128.362 92.8C128.069 92 127.649 91.3933 127.102 90.98C126.569 90.5667 125.909 90.36 125.122 90.36C124.362 90.36 123.709 90.5667 123.162 90.98C122.615 91.3933 122.195 92 121.902 92.8C121.609 93.5867 121.462 94.56 121.462 95.72Z" fill="black"/>
<path d="M166.528 70.64C166.528 70.16 166.648 69.744 166.888 69.392C167.128 69.032 167.464 68.752 167.896 68.552C168.328 68.352 168.832 68.252 169.408 68.252C169.928 68.252 170.38 68.344 170.764 68.528C171.156 68.712 171.468 68.976 171.7 69.32C171.932 69.664 172.068 70.076 172.108 70.556H171.232C171.184 70.076 171 69.704 170.68 69.44C170.36 69.168 169.932 69.032 169.396 69.032C168.796 69.032 168.312 69.176 167.944 69.464C167.576 69.752 167.392 70.14 167.392 70.628C167.392 71.004 167.504 71.316 167.728 71.564C167.952 71.804 168.288 71.98 168.736 72.092L170.212 72.452C170.884 72.612 171.392 72.884 171.736 73.268C172.08 73.644 172.252 74.124 172.252 74.708C172.252 75.196 172.132 75.624 171.892 75.992C171.652 76.36 171.312 76.644 170.872 76.844C170.432 77.044 169.916 77.144 169.324 77.144C168.772 77.144 168.28 77.052 167.848 76.868C167.424 76.684 167.088 76.42 166.84 76.076C166.6 75.732 166.46 75.328 166.42 74.864H167.308C167.332 75.32 167.528 75.684 167.896 75.956C168.264 76.22 168.74 76.352 169.324 76.352C169.956 76.352 170.456 76.208 170.824 75.92C171.2 75.632 171.388 75.244 171.388 74.756C171.388 74.364 171.276 74.048 171.052 73.808C170.836 73.56 170.496 73.38 170.032 73.268L168.58 72.908C167.908 72.748 167.396 72.48 167.044 72.104C166.7 71.72 166.528 71.232 166.528 70.64ZM173.626 77V71.192H174.454V77H173.626ZM174.034 69.596C173.866 69.596 173.722 69.536 173.602 69.416C173.482 69.296 173.422 69.152 173.422 68.984C173.422 68.816 173.482 68.672 173.602 68.552C173.722 68.424 173.866 68.36 174.034 68.36C174.202 68.36 174.346 68.424 174.466 68.552C174.594 68.672 174.658 68.816 174.658 68.984C174.658 69.152 174.594 69.296 174.466 69.416C174.346 69.536 174.202 69.596 174.034 69.596ZM177.008 77H176.18V71.192H176.9L177.02 72.2C177.212 71.832 177.484 71.548 177.836 71.348C178.196 71.14 178.588 71.036 179.012 71.036C179.812 71.036 180.388 71.256 180.74 71.696C181.092 72.136 181.268 72.72 181.268 73.448V77H180.44V73.628C180.44 72.948 180.296 72.472 180.008 72.2C179.728 71.928 179.348 71.792 178.868 71.792C178.276 71.792 177.816 71.992 177.488 72.392C177.168 72.784 177.008 73.308 177.008 73.964V77ZM182.511 74.108C182.511 73.5 182.627 72.968 182.859 72.512C183.099 72.048 183.427 71.688 183.843 71.432C184.267 71.168 184.759 71.036 185.319 71.036C185.991 71.036 186.555 71.216 187.011 71.576C187.475 71.936 187.763 72.416 187.875 73.016H187.047C186.935 72.616 186.723 72.308 186.411 72.092C186.099 71.876 185.739 71.768 185.331 71.768C184.947 71.768 184.603 71.864 184.299 72.056C183.995 72.248 183.755 72.52 183.579 72.872C183.411 73.216 183.327 73.624 183.327 74.096C183.327 74.56 183.407 74.964 183.567 75.308C183.727 75.652 183.951 75.92 184.239 76.112C184.535 76.304 184.879 76.4 185.271 76.4C185.711 76.4 186.091 76.292 186.411 76.076C186.731 75.852 186.947 75.552 187.059 75.176H187.899C187.811 75.568 187.643 75.912 187.395 76.208C187.147 76.504 186.839 76.736 186.471 76.904C186.111 77.064 185.711 77.144 185.271 77.144C184.719 77.144 184.235 77.02 183.819 76.772C183.411 76.516 183.091 76.16 182.859 75.704C182.627 75.248 182.511 74.716 182.511 74.108ZM191.589 77.144C191.029 77.144 190.533 77.016 190.101 76.76C189.677 76.504 189.345 76.148 189.105 75.692C188.865 75.236 188.745 74.704 188.745 74.096C188.745 73.496 188.861 72.968 189.093 72.512C189.333 72.048 189.661 71.688 190.077 71.432C190.493 71.168 190.977 71.036 191.529 71.036C192.057 71.036 192.517 71.152 192.909 71.384C193.309 71.616 193.617 71.94 193.833 72.356C194.057 72.764 194.169 73.244 194.169 73.796V74.204H189.201L189.225 73.604H193.341C193.341 73.044 193.173 72.596 192.837 72.26C192.509 71.916 192.073 71.744 191.529 71.744C191.129 71.744 190.777 71.836 190.473 72.02C190.177 72.204 189.949 72.468 189.789 72.812C189.629 73.148 189.549 73.548 189.549 74.012C189.549 74.78 189.725 75.376 190.077 75.8C190.437 76.224 190.945 76.436 191.601 76.436C192.073 76.436 192.461 76.336 192.765 76.136C193.069 75.936 193.273 75.644 193.377 75.26H194.169C194.017 75.868 193.721 76.336 193.281 76.664C192.841 76.984 192.277 77.144 191.589 77.144ZM167.044 95H166.168L169.324 86.408H170.392L173.584 95H172.684L171.844 92.72H167.884L167.044 95ZM169.744 87.62L168.148 91.964H171.568L169.96 87.62C169.944 87.556 169.924 87.492 169.9 87.428C169.876 87.364 169.86 87.312 169.852 87.272C169.844 87.312 169.828 87.368 169.804 87.44C169.788 87.504 169.768 87.564 169.744 87.62ZM175.832 95L173.456 89.192H174.344L175.844 92.936C175.932 93.152 176.008 93.36 176.072 93.56C176.144 93.752 176.208 93.944 176.264 94.136C176.32 93.936 176.384 93.74 176.456 93.548C176.528 93.348 176.608 93.144 176.696 92.936L178.22 89.192H179.072L176.66 95H175.832ZM182.226 95.144C181.666 95.144 181.17 95.016 180.738 94.76C180.314 94.504 179.982 94.148 179.742 93.692C179.502 93.236 179.382 92.704 179.382 92.096C179.382 91.496 179.498 90.968 179.73 90.512C179.97 90.048 180.298 89.688 180.714 89.432C181.13 89.168 181.614 89.036 182.166 89.036C182.694 89.036 183.154 89.152 183.546 89.384C183.946 89.616 184.254 89.94 184.47 90.356C184.694 90.764 184.806 91.244 184.806 91.796V92.204H179.838L179.862 91.604H183.978C183.978 91.044 183.81 90.596 183.474 90.26C183.146 89.916 182.71 89.744 182.166 89.744C181.766 89.744 181.414 89.836 181.11 90.02C180.814 90.204 180.586 90.468 180.426 90.812C180.266 91.148 180.186 91.548 180.186 92.012C180.186 92.78 180.362 93.376 180.714 93.8C181.074 94.224 181.582 94.436 182.238 94.436C182.71 94.436 183.098 94.336 183.402 94.136C183.706 93.936 183.91 93.644 184.014 93.26H184.806C184.654 93.868 184.358 94.336 183.918 94.664C183.478 94.984 182.914 95.144 182.226 95.144ZM189.166 89.12V89.864H188.71C188.174 89.864 187.746 90.028 187.426 90.356C187.114 90.684 186.958 91.128 186.958 91.688V95H186.13V89.192H186.91L186.982 90.332H186.898C186.978 89.956 187.174 89.652 187.486 89.42C187.798 89.18 188.178 89.06 188.626 89.06C188.714 89.06 188.802 89.064 188.89 89.072C188.978 89.08 189.07 89.096 189.166 89.12ZM191.7 95.144C191.084 95.144 190.6 94.984 190.248 94.664C189.904 94.344 189.732 93.932 189.732 93.428C189.732 92.892 189.924 92.464 190.308 92.144C190.692 91.824 191.224 91.636 191.904 91.58L193.824 91.424V91.232C193.824 90.848 193.756 90.548 193.62 90.332C193.484 90.108 193.3 89.952 193.068 89.864C192.836 89.776 192.576 89.732 192.288 89.732C191.776 89.732 191.38 89.84 191.1 90.056C190.82 90.272 190.68 90.576 190.68 90.968H189.924C189.924 90.576 190.024 90.236 190.224 89.948C190.424 89.66 190.704 89.436 191.064 89.276C191.424 89.116 191.84 89.036 192.312 89.036C192.768 89.036 193.168 89.116 193.512 89.276C193.856 89.428 194.128 89.668 194.328 89.996C194.536 90.316 194.64 90.732 194.64 91.244V95H193.944L193.836 93.98C193.66 94.348 193.38 94.636 192.996 94.844C192.62 95.044 192.188 95.144 191.7 95.144ZM191.892 94.472C192.508 94.472 192.984 94.276 193.32 93.884C193.656 93.492 193.824 92.984 193.824 92.36V92.048L192.108 92.18C191.564 92.228 191.172 92.364 190.932 92.588C190.692 92.812 190.572 93.084 190.572 93.404C190.572 93.756 190.692 94.024 190.932 94.208C191.172 94.384 191.492 94.472 191.892 94.472ZM195.906 91.928C195.906 91.4 196.014 90.92 196.229 90.488C196.446 90.048 196.758 89.696 197.166 89.432C197.574 89.168 198.062 89.036 198.63 89.036C199.182 89.036 199.654 89.172 200.046 89.444C200.438 89.716 200.718 90.108 200.886 90.62L200.754 90.788L200.862 89.192H201.582V94.82C201.582 95.396 201.466 95.896 201.234 96.32C201.002 96.752 200.674 97.084 200.25 97.316C199.834 97.556 199.342 97.676 198.774 97.676C198.03 97.676 197.414 97.476 196.926 97.076C196.438 96.676 196.134 96.128 196.014 95.432H196.842C196.93 95.904 197.142 96.268 197.478 96.524C197.822 96.788 198.258 96.92 198.786 96.92C199.386 96.92 199.866 96.736 200.226 96.368C200.586 96 200.766 95.512 200.766 94.904V93.08L200.886 93.236C200.718 93.724 200.426 94.112 200.01 94.4C199.602 94.68 199.122 94.82 198.57 94.82C198.018 94.82 197.542 94.688 197.142 94.424C196.742 94.16 196.434 93.812 196.218 93.38C196.01 92.94 195.906 92.456 195.906 91.928ZM196.734 91.916C196.734 92.316 196.81 92.68 196.962 93.008C197.122 93.336 197.346 93.596 197.634 93.788C197.93 93.98 198.282 94.076 198.69 94.076C199.106 94.076 199.462 93.984 199.758 93.8C200.062 93.608 200.294 93.352 200.454 93.032C200.614 92.704 200.694 92.332 200.694 91.916C200.694 91.5 200.614 91.132 200.454 90.812C200.302 90.492 200.078 90.24 199.782 90.056C199.494 89.864 199.134 89.768 198.702 89.768C198.286 89.768 197.93 89.868 197.634 90.068C197.346 90.26 197.122 90.52 196.962 90.848C196.81 91.168 196.734 91.524 196.734 91.916ZM205.745 95.144C205.185 95.144 204.689 95.016 204.257 94.76C203.833 94.504 203.501 94.148 203.261 93.692C203.021 93.236 202.901 92.704 202.901 92.096C202.901 91.496 203.017 90.968 203.249 90.512C203.489 90.048 203.817 89.688 204.233 89.432C204.649 89.168 205.133 89.036 205.685 89.036C206.213 89.036 206.673 89.152 207.065 89.384C207.465 89.616 207.773 89.94 207.989 90.356C208.213 90.764 208.325 91.244 208.325 91.796V92.204H203.357L203.381 91.604H207.497C207.497 91.044 207.329 90.596 206.993 90.26C206.665 89.916 206.229 89.744 205.685 89.744C205.285 89.744 204.933 89.836 204.629 90.02C204.333 90.204 204.105 90.468 203.945 90.812C203.785 91.148 203.705 91.548 203.705 92.012C203.705 92.78 203.881 93.376 204.233 93.8C204.593 94.224 205.101 94.436 205.757 94.436C206.229 94.436 206.617 94.336 206.921 94.136C207.225 93.936 207.429 93.644 207.533 93.26H208.325C208.173 93.868 207.877 94.336 207.437 94.664C206.997 94.984 206.433 95.144 205.745 95.144ZM212.641 88.64C212.641 88.16 212.761 87.744 213.001 87.392C213.241 87.032 213.577 86.752 214.009 86.552C214.441 86.352 214.945 86.252 215.521 86.252C216.041 86.252 216.493 86.344 216.877 86.528C217.269 86.712 217.581 86.976 217.813 87.32C218.045 87.664 218.181 88.076 218.221 88.556H217.345C217.297 88.076 217.113 87.704 216.793 87.44C216.473 87.168 216.045 87.032 215.509 87.032C214.909 87.032 214.425 87.176 214.057 87.464C213.689 87.752 213.505 88.14 213.505 88.628C213.505 89.004 213.617 89.316 213.841 89.564C214.065 89.804 214.401 89.98 214.849 90.092L216.325 90.452C216.997 90.612 217.505 90.884 217.849 91.268C218.193 91.644 218.365 92.124 218.365 92.708C218.365 93.196 218.245 93.624 218.005 93.992C217.765 94.36 217.425 94.644 216.985 94.844C216.545 95.044 216.029 95.144 215.437 95.144C214.885 95.144 214.393 95.052 213.961 94.868C213.537 94.684 213.201 94.42 212.953 94.076C212.713 93.732 212.573 93.328 212.533 92.864H213.421C213.445 93.32 213.641 93.684 214.009 93.956C214.377 94.22 214.853 94.352 215.437 94.352C216.069 94.352 216.569 94.208 216.937 93.92C217.313 93.632 217.501 93.244 217.501 92.756C217.501 92.364 217.389 92.048 217.165 91.808C216.949 91.56 216.609 91.38 216.145 91.268L214.693 90.908C214.021 90.748 213.509 90.48 213.157 90.104C212.813 89.72 212.641 89.232 212.641 88.64ZM219.739 97.532V89.192H220.459L220.543 90.368C220.751 89.92 221.047 89.588 221.431 89.372C221.823 89.148 222.259 89.036 222.739 89.036C223.299 89.036 223.779 89.168 224.179 89.432C224.579 89.696 224.887 90.056 225.103 90.512C225.319 90.968 225.427 91.488 225.427 92.072C225.427 92.656 225.319 93.18 225.103 93.644C224.895 94.108 224.591 94.476 224.191 94.748C223.799 95.012 223.315 95.144 222.739 95.144C222.243 95.144 221.807 95.04 221.431 94.832C221.055 94.616 220.767 94.3 220.567 93.884V97.532H219.739ZM220.579 92.096C220.579 92.536 220.659 92.932 220.819 93.284C220.979 93.628 221.207 93.9 221.503 94.1C221.807 94.3 222.171 94.4 222.595 94.4C223.019 94.4 223.379 94.3 223.675 94.1C223.971 93.9 224.195 93.628 224.347 93.284C224.507 92.932 224.587 92.536 224.587 92.096C224.587 91.648 224.507 91.252 224.347 90.908C224.195 90.556 223.971 90.284 223.675 90.092C223.379 89.892 223.019 89.792 222.595 89.792C222.171 89.792 221.807 89.892 221.503 90.092C221.207 90.284 220.979 90.556 220.819 90.908C220.659 91.252 220.579 91.648 220.579 92.096ZM229.183 95.144C228.623 95.144 228.127 95.016 227.695 94.76C227.271 94.504 226.939 94.148 226.699 93.692C226.459 93.236 226.339 92.704 226.339 92.096C226.339 91.496 226.455 90.968 226.687 90.512C226.927 90.048 227.255 89.688 227.671 89.432C228.087 89.168 228.571 89.036 229.123 89.036C229.651 89.036 230.111 89.152 230.503 89.384C230.903 89.616 231.211 89.94 231.427 90.356C231.651 90.764 231.763 91.244 231.763 91.796V92.204H226.795L226.819 91.604H230.935C230.935 91.044 230.767 90.596 230.431 90.26C230.103 89.916 229.667 89.744 229.123 89.744C228.723 89.744 228.371 89.836 228.067 90.02C227.771 90.204 227.543 90.468 227.383 90.812C227.223 91.148 227.143 91.548 227.143 92.012C227.143 92.78 227.319 93.376 227.671 93.8C228.031 94.224 228.539 94.436 229.195 94.436C229.667 94.436 230.055 94.336 230.359 94.136C230.663 93.936 230.867 93.644 230.971 93.26H231.763C231.611 93.868 231.315 94.336 230.875 94.664C230.435 94.984 229.871 95.144 229.183 95.144ZM233.915 95H233.087V89.192H233.807L233.927 90.2C234.119 89.832 234.391 89.548 234.743 89.348C235.103 89.14 235.495 89.036 235.919 89.036C236.719 89.036 237.295 89.256 237.647 89.696C237.999 90.136 238.175 90.72 238.175 91.448V95H237.347V91.628C237.347 90.948 237.203 90.472 236.915 90.2C236.635 89.928 236.255 89.792 235.775 89.792C235.183 89.792 234.723 89.992 234.395 90.392C234.075 90.784 233.915 91.308 233.915 91.964V95ZM242.105 95.144C241.545 95.144 241.065 95.012 240.665 94.748C240.265 94.484 239.957 94.124 239.741 93.668C239.525 93.204 239.417 92.684 239.417 92.108C239.417 91.524 239.525 91 239.741 90.536C239.957 90.072 240.265 89.708 240.665 89.444C241.073 89.172 241.565 89.036 242.141 89.036C242.621 89.036 243.045 89.14 243.413 89.348C243.789 89.556 244.077 89.872 244.277 90.296V86.252H245.105V95H244.385L244.301 93.812C244.093 94.26 243.797 94.596 243.413 94.82C243.029 95.036 242.593 95.144 242.105 95.144ZM242.249 94.388C242.681 94.388 243.045 94.292 243.341 94.1C243.637 93.9 243.865 93.628 244.025 93.284C244.185 92.932 244.265 92.532 244.265 92.084C244.265 91.636 244.185 91.24 244.025 90.896C243.865 90.552 243.637 90.28 243.341 90.08C243.045 89.88 242.681 89.78 242.249 89.78C241.833 89.78 241.473 89.88 241.169 90.08C240.873 90.28 240.645 90.552 240.485 90.896C240.333 91.24 240.257 91.636 240.257 92.084C240.257 92.532 240.333 92.932 240.485 93.284C240.645 93.628 240.873 93.9 241.169 94.1C241.473 94.292 241.833 94.388 242.249 94.388Z" fill="black" fill-opacity="0.6"/>
<path d="M198.197 74.528V74.012H199.673V74.528C199.673 74.864 199.773 75.148 199.973 75.38C200.173 75.612 200.485 75.728 200.909 75.728C201.341 75.728 201.653 75.616 201.845 75.392C202.037 75.16 202.133 74.856 202.133 74.48V68.228H203.669V74.564C203.669 75.068 203.553 75.516 203.321 75.908C203.097 76.3 202.781 76.608 202.373 76.832C201.965 77.048 201.481 77.156 200.921 77.156C200.329 77.156 199.829 77.044 199.421 76.82C199.013 76.588 198.705 76.276 198.497 75.884C198.297 75.484 198.197 75.032 198.197 74.528ZM207.086 77.156C206.462 77.156 205.966 76.988 205.598 76.652C205.238 76.308 205.058 75.86 205.058 75.308C205.058 74.764 205.246 74.332 205.622 74.012C206.006 73.684 206.55 73.492 207.254 73.436L209.03 73.292V73.16C209.03 72.888 208.978 72.672 208.874 72.512C208.778 72.344 208.638 72.224 208.454 72.152C208.27 72.072 208.054 72.032 207.806 72.032C207.374 72.032 207.042 72.12 206.81 72.296C206.578 72.464 206.462 72.704 206.462 73.016H205.214C205.214 72.584 205.322 72.212 205.538 71.9C205.762 71.58 206.074 71.332 206.474 71.156C206.882 70.98 207.35 70.892 207.878 70.892C208.414 70.892 208.874 70.988 209.258 71.18C209.642 71.364 209.938 71.644 210.146 72.02C210.354 72.388 210.458 72.848 210.458 73.4V77H209.174L209.066 76.124C208.938 76.428 208.69 76.676 208.322 76.868C207.962 77.06 207.55 77.156 207.086 77.156ZM207.554 76.052C208.01 76.052 208.37 75.924 208.634 75.668C208.906 75.412 209.042 75.056 209.042 74.6V74.288L207.806 74.384C207.35 74.424 207.026 74.52 206.834 74.672C206.642 74.816 206.546 75.008 206.546 75.248C206.546 75.512 206.634 75.712 206.81 75.848C206.986 75.984 207.234 76.052 207.554 76.052ZM213.361 77H211.897V71.072H213.253L213.373 71.84C213.557 71.544 213.817 71.312 214.153 71.144C214.497 70.976 214.869 70.892 215.269 70.892C216.013 70.892 216.573 71.112 216.949 71.552C217.333 71.992 217.525 72.592 217.525 73.352V77H216.061V73.7C216.061 73.204 215.949 72.836 215.725 72.596C215.501 72.348 215.197 72.224 214.813 72.224C214.357 72.224 214.001 72.368 213.745 72.656C213.489 72.944 213.361 73.328 213.361 73.808V77ZM223.769 69.608H221.849V68.228H225.233V77H223.769V69.608ZM227.987 70.808L229.883 68.228H231.635L229.163 71.528L228.779 71.432C228.955 71.272 229.171 71.148 229.427 71.06C229.691 70.972 229.947 70.928 230.195 70.928C230.795 70.928 231.323 71.06 231.779 71.324C232.235 71.58 232.591 71.94 232.847 72.404C233.103 72.86 233.231 73.384 233.231 73.976C233.231 74.6 233.087 75.152 232.799 75.632C232.519 76.104 232.131 76.476 231.635 76.748C231.147 77.02 230.591 77.156 229.967 77.156C229.335 77.156 228.767 77.016 228.263 76.736C227.767 76.456 227.375 76.076 227.087 75.596C226.799 75.108 226.655 74.564 226.655 73.964C226.655 73.604 226.695 73.272 226.775 72.968C226.863 72.656 227.003 72.328 227.195 71.984C227.395 71.64 227.659 71.248 227.987 70.808ZM228.227 73.976C228.227 74.336 228.299 74.652 228.443 74.924C228.595 75.196 228.799 75.408 229.055 75.56C229.319 75.712 229.623 75.788 229.967 75.788C230.303 75.788 230.599 75.712 230.855 75.56C231.111 75.408 231.311 75.196 231.455 74.924C231.607 74.652 231.683 74.336 231.683 73.976C231.683 73.624 231.607 73.316 231.455 73.052C231.311 72.78 231.111 72.568 230.855 72.416C230.599 72.264 230.303 72.188 229.967 72.188C229.623 72.188 229.319 72.264 229.055 72.416C228.791 72.568 228.587 72.78 228.443 73.052C228.299 73.316 228.227 73.624 228.227 73.976ZM235.433 76.892L235.577 76.856C235.513 76.912 235.441 76.956 235.361 76.988C235.289 77.012 235.201 77.024 235.097 77.024C234.865 77.024 234.665 76.948 234.497 76.796C234.329 76.636 234.245 76.436 234.245 76.196C234.245 75.908 234.329 75.676 234.497 75.5C234.665 75.324 234.885 75.236 235.157 75.236C235.461 75.236 235.709 75.348 235.901 75.572C236.093 75.796 236.189 76.096 236.189 76.472C236.189 76.8 236.117 77.1 235.973 77.372C235.829 77.652 235.629 77.88 235.373 78.056C235.117 78.232 234.825 78.34 234.497 78.38V77.792C234.769 77.744 234.993 77.64 235.169 77.48C235.345 77.328 235.433 77.132 235.433 76.892ZM243.605 76.988L237.521 77V75.848L240.389 73.424C240.685 73.176 240.933 72.948 241.133 72.74C241.341 72.532 241.505 72.336 241.625 72.152C241.745 71.968 241.833 71.784 241.889 71.6C241.945 71.416 241.973 71.216 241.973 71C241.973 70.504 241.845 70.12 241.589 69.848C241.333 69.576 240.973 69.44 240.509 69.44C240.029 69.44 239.649 69.6 239.369 69.92C239.089 70.24 238.945 70.68 238.937 71.24H237.413C237.421 70.6 237.553 70.044 237.809 69.572C238.065 69.092 238.425 68.724 238.889 68.468C239.353 68.204 239.893 68.072 240.509 68.072C241.133 68.072 241.669 68.188 242.117 68.42C242.573 68.644 242.925 68.968 243.173 69.392C243.421 69.816 243.545 70.324 243.545 70.916C243.545 71.22 243.501 71.512 243.413 71.792C243.333 72.064 243.209 72.332 243.041 72.596C242.873 72.852 242.665 73.112 242.417 73.376C242.169 73.64 241.877 73.916 241.541 74.204L239.405 76.028L238.853 75.56H243.605V76.988ZM244.551 72.632C244.551 71.72 244.703 70.924 245.007 70.244C245.319 69.564 245.751 69.032 246.303 68.648C246.863 68.256 247.515 68.06 248.259 68.06C249.011 68.06 249.663 68.256 250.215 68.648C250.775 69.032 251.207 69.564 251.511 70.244C251.823 70.924 251.979 71.72 251.979 72.632C251.979 73.536 251.831 74.328 251.535 75.008C251.239 75.688 250.815 76.216 250.263 76.592C249.711 76.968 249.043 77.156 248.259 77.156C247.491 77.156 246.827 76.968 246.267 76.592C245.715 76.216 245.291 75.688 244.995 75.008C244.699 74.328 244.551 73.536 244.551 72.632ZM246.063 72.632C246.063 73.304 246.151 73.88 246.327 74.36C246.503 74.832 246.755 75.192 247.083 75.44C247.411 75.68 247.803 75.8 248.259 75.8C248.731 75.8 249.127 75.68 249.447 75.44C249.775 75.192 250.027 74.832 250.203 74.36C250.379 73.88 250.467 73.304 250.467 72.632C250.467 71.936 250.379 71.352 250.203 70.88C250.027 70.4 249.775 70.036 249.447 69.788C249.127 69.54 248.731 69.416 248.259 69.416C247.803 69.416 247.411 69.54 247.083 69.788C246.755 70.036 246.503 70.4 246.327 70.88C246.151 71.352 246.063 71.936 246.063 72.632ZM259.132 76.988L253.048 77V75.848L255.916 73.424C256.212 73.176 256.46 72.948 256.66 72.74C256.868 72.532 257.032 72.336 257.152 72.152C257.272 71.968 257.36 71.784 257.416 71.6C257.472 71.416 257.5 71.216 257.5 71C257.5 70.504 257.372 70.12 257.116 69.848C256.86 69.576 256.5 69.44 256.036 69.44C255.556 69.44 255.176 69.6 254.896 69.92C254.616 70.24 254.472 70.68 254.464 71.24H252.94C252.948 70.6 253.08 70.044 253.336 69.572C253.592 69.092 253.952 68.724 254.416 68.468C254.88 68.204 255.42 68.072 256.036 68.072C256.66 68.072 257.196 68.188 257.644 68.42C258.1 68.644 258.452 68.968 258.7 69.392C258.948 69.816 259.072 70.324 259.072 70.916C259.072 71.22 259.028 71.512 258.94 71.792C258.86 72.064 258.736 72.332 258.568 72.596C258.4 72.852 258.192 73.112 257.944 73.376C257.696 73.64 257.404 73.916 257.068 74.204L254.932 76.028L254.38 75.56H259.132V76.988ZM261.973 69.608H260.053V68.228H263.437V77H261.973V69.608ZM253.129 92.516C253.129 91.916 253.305 91.404 253.657 90.98C254.017 90.548 254.485 90.276 255.061 90.164L255.073 90.44C254.553 90.304 254.149 90.06 253.861 89.708C253.581 89.356 253.441 88.928 253.441 88.424C253.441 87.96 253.569 87.552 253.825 87.2C254.081 86.848 254.437 86.572 254.893 86.372C255.357 86.172 255.889 86.072 256.489 86.072C257.089 86.072 257.613 86.172 258.061 86.372C258.517 86.564 258.869 86.84 259.117 87.2C259.373 87.552 259.501 87.968 259.501 88.448C259.501 88.952 259.357 89.38 259.069 89.732C258.781 90.076 258.377 90.308 257.857 90.428L257.845 90.176C258.237 90.232 258.581 90.372 258.877 90.596C259.173 90.812 259.401 91.084 259.561 91.412C259.729 91.74 259.813 92.108 259.813 92.516C259.813 93.044 259.673 93.508 259.393 93.908C259.121 94.3 258.733 94.604 258.229 94.82C257.733 95.036 257.145 95.144 256.465 95.144C255.793 95.144 255.205 95.036 254.701 94.82C254.205 94.604 253.817 94.3 253.537 93.908C253.265 93.508 253.129 93.044 253.129 92.516ZM254.629 92.408C254.629 92.688 254.701 92.932 254.845 93.14C254.997 93.348 255.209 93.508 255.481 93.62C255.761 93.732 256.093 93.788 256.477 93.788C256.845 93.788 257.165 93.732 257.437 93.62C257.717 93.508 257.929 93.352 258.073 93.152C258.225 92.944 258.301 92.696 258.301 92.408C258.301 91.984 258.133 91.648 257.797 91.4C257.469 91.152 257.025 91.028 256.465 91.028C255.905 91.028 255.457 91.152 255.121 91.4C254.793 91.648 254.629 91.984 254.629 92.408ZM254.833 88.556C254.833 88.916 254.981 89.208 255.277 89.432C255.573 89.648 255.969 89.756 256.465 89.756C256.953 89.756 257.341 89.648 257.629 89.432C257.925 89.216 258.073 88.928 258.073 88.568C258.073 88.2 257.925 87.912 257.629 87.704C257.341 87.488 256.953 87.38 256.465 87.38C255.969 87.38 255.573 87.488 255.277 87.704C254.981 87.912 254.833 88.196 254.833 88.556ZM262.198 94.892L262.342 94.856C262.278 94.912 262.206 94.956 262.126 94.988C262.054 95.012 261.966 95.024 261.862 95.024C261.63 95.024 261.43 94.948 261.262 94.796C261.094 94.636 261.01 94.436 261.01 94.196C261.01 93.908 261.094 93.676 261.262 93.5C261.43 93.324 261.65 93.236 261.922 93.236C262.226 93.236 262.474 93.348 262.666 93.572C262.858 93.796 262.954 94.096 262.954 94.472C262.954 94.8 262.882 95.1 262.738 95.372C262.594 95.652 262.394 95.88 262.138 96.056C261.882 96.232 261.59 96.34 261.262 96.38V95.792C261.534 95.744 261.758 95.64 261.934 95.48C262.11 95.328 262.198 95.132 262.198 94.892ZM269.869 86.228V95H268.417V86.228H269.869ZM263.965 91.988L267.937 86.228H269.557L265.525 92.084L263.965 91.988ZM270.937 93.332H263.965V91.988H270.937V93.332ZM271.903 90.632C271.903 89.72 272.055 88.924 272.359 88.244C272.671 87.564 273.103 87.032 273.655 86.648C274.215 86.256 274.867 86.06 275.611 86.06C276.363 86.06 277.015 86.256 277.567 86.648C278.127 87.032 278.559 87.564 278.863 88.244C279.175 88.924 279.331 89.72 279.331 90.632C279.331 91.536 279.183 92.328 278.887 93.008C278.591 93.688 278.167 94.216 277.615 94.592C277.063 94.968 276.395 95.156 275.611 95.156C274.843 95.156 274.179 94.968 273.619 94.592C273.067 94.216 272.643 93.688 272.347 93.008C272.051 92.328 271.903 91.536 271.903 90.632ZM273.415 90.632C273.415 91.304 273.503 91.88 273.679 92.36C273.855 92.832 274.107 93.192 274.435 93.44C274.763 93.68 275.155 93.8 275.611 93.8C276.083 93.8 276.479 93.68 276.799 93.44C277.127 93.192 277.379 92.832 277.555 92.36C277.731 91.88 277.819 91.304 277.819 90.632C277.819 89.936 277.731 89.352 277.555 88.88C277.379 88.4 277.127 88.036 276.799 87.788C276.479 87.54 276.083 87.416 275.611 87.416C275.155 87.416 274.763 87.54 274.435 87.788C274.107 88.036 273.855 88.4 273.679 88.88C273.503 89.352 273.415 89.936 273.415 90.632ZM280.364 90.632C280.364 89.72 280.516 88.924 280.82 88.244C281.132 87.564 281.564 87.032 282.116 86.648C282.676 86.256 283.328 86.06 284.072 86.06C284.824 86.06 285.476 86.256 286.028 86.648C286.588 87.032 287.02 87.564 287.324 88.244C287.636 88.924 287.792 89.72 287.792 90.632C287.792 91.536 287.644 92.328 287.348 93.008C287.052 93.688 286.628 94.216 286.076 94.592C285.524 94.968 284.856 95.156 284.072 95.156C283.304 95.156 282.64 94.968 282.08 94.592C281.528 94.216 281.104 93.688 280.808 93.008C280.512 92.328 280.364 91.536 280.364 90.632ZM281.876 90.632C281.876 91.304 281.964 91.88 282.14 92.36C282.316 92.832 282.568 93.192 282.896 93.44C283.224 93.68 283.616 93.8 284.072 93.8C284.544 93.8 284.94 93.68 285.26 93.44C285.588 93.192 285.84 92.832 286.016 92.36C286.192 91.88 286.28 91.304 286.28 90.632C286.28 89.936 286.192 89.352 286.016 88.88C285.84 88.4 285.588 88.036 285.26 87.788C284.94 87.54 284.544 87.416 284.072 87.416C283.616 87.416 283.224 87.54 282.896 87.788C282.568 88.036 282.316 88.4 282.14 88.88C281.964 89.352 281.876 89.936 281.876 90.632ZM289.585 95H288.133L291.553 86.24H293.017L289.585 95ZM298.474 95H297.01V89.072H298.354L298.534 90.128L298.366 89.984C298.486 89.696 298.706 89.444 299.026 89.228C299.346 89.004 299.746 88.892 300.226 88.892C300.746 88.892 301.17 89.028 301.498 89.3C301.834 89.572 302.066 89.932 302.194 90.38H301.954C302.042 89.932 302.266 89.572 302.626 89.3C302.994 89.028 303.438 88.892 303.958 88.892C304.678 88.892 305.23 89.096 305.614 89.504C305.998 89.904 306.19 90.444 306.19 91.124V95H304.738V91.508C304.738 91.084 304.63 90.764 304.414 90.548C304.206 90.324 303.926 90.212 303.574 90.212C303.35 90.212 303.142 90.264 302.95 90.368C302.766 90.472 302.618 90.628 302.506 90.836C302.394 91.044 302.338 91.312 302.338 91.64V95H300.874V91.496C300.874 91.08 300.77 90.764 300.562 90.548C300.354 90.332 300.078 90.224 299.734 90.224C299.502 90.224 299.29 90.276 299.098 90.38C298.906 90.476 298.754 90.632 298.642 90.848C298.53 91.056 298.474 91.32 298.474 91.64V95ZM307.279 92.024C307.279 91.408 307.415 90.868 307.687 90.404C307.959 89.932 308.335 89.564 308.815 89.3C309.295 89.036 309.839 88.904 310.447 88.904C311.063 88.904 311.607 89.036 312.079 89.3C312.559 89.564 312.935 89.932 313.207 90.404C313.479 90.868 313.615 91.408 313.615 92.024C313.615 92.64 313.479 93.184 313.207 93.656C312.935 94.12 312.559 94.484 312.079 94.748C311.607 95.012 311.063 95.144 310.447 95.144C309.839 95.144 309.295 95.012 308.815 94.748C308.335 94.484 307.959 94.12 307.687 93.656C307.415 93.184 307.279 92.64 307.279 92.024ZM308.743 92.024C308.743 92.384 308.815 92.7 308.959 92.972C309.111 93.244 309.311 93.456 309.559 93.608C309.815 93.76 310.111 93.836 310.447 93.836C310.783 93.836 311.079 93.76 311.335 93.608C311.591 93.456 311.791 93.244 311.935 92.972C312.079 92.7 312.151 92.384 312.151 92.024C312.151 91.656 312.079 91.34 311.935 91.076C311.791 90.804 311.591 90.592 311.335 90.44C311.079 90.288 310.783 90.212 310.447 90.212C310.111 90.212 309.815 90.288 309.559 90.44C309.311 90.592 309.111 90.804 308.959 91.076C308.815 91.34 308.743 91.656 308.743 92.024Z" fill="#36C857"/>
<rect x="149" y="59" width="1" height="44" fill="#E5E5E5"/>
<path d="M60.044 132H59.168L62.324 123.408H63.392L66.584 132H65.684L64.844 129.72H60.884L60.044 132ZM62.744 124.62L61.148 128.964H64.568L62.96 124.62C62.944 124.556 62.924 124.492 62.9 124.428C62.876 124.364 62.86 124.312 62.852 124.272C62.844 124.312 62.828 124.368 62.804 124.44C62.788 124.504 62.768 124.564 62.744 124.62ZM68.8317 132L66.4557 126.192H67.3437L68.8437 129.936C68.9317 130.152 69.0077 130.36 69.0717 130.56C69.1437 130.752 69.2077 130.944 69.2637 131.136C69.3197 130.936 69.3837 130.74 69.4557 130.548C69.5277 130.348 69.6077 130.144 69.6957 129.936L71.2197 126.192H72.0717L69.6597 132H68.8317ZM74.4578 132.144C73.8418 132.144 73.3578 131.984 73.0058 131.664C72.6618 131.344 72.4898 130.932 72.4898 130.428C72.4898 129.892 72.6818 129.464 73.0658 129.144C73.4498 128.824 73.9818 128.636 74.6618 128.58L76.5818 128.424V128.232C76.5818 127.848 76.5138 127.548 76.3778 127.332C76.2418 127.108 76.0578 126.952 75.8258 126.864C75.5938 126.776 75.3338 126.732 75.0458 126.732C74.5338 126.732 74.1378 126.84 73.8578 127.056C73.5778 127.272 73.4378 127.576 73.4378 127.968H72.6818C72.6818 127.576 72.7818 127.236 72.9818 126.948C73.1818 126.66 73.4618 126.436 73.8218 126.276C74.1818 126.116 74.5978 126.036 75.0698 126.036C75.5258 126.036 75.9258 126.116 76.2698 126.276C76.6138 126.428 76.8858 126.668 77.0858 126.996C77.2938 127.316 77.3978 127.732 77.3978 128.244V132H76.7018L76.5938 130.98C76.4178 131.348 76.1378 131.636 75.7538 131.844C75.3778 132.044 74.9458 132.144 74.4578 132.144ZM74.6498 131.472C75.2658 131.472 75.7418 131.276 76.0778 130.884C76.4138 130.492 76.5818 129.984 76.5818 129.36V129.048L74.8658 129.18C74.3218 129.228 73.9298 129.364 73.6898 129.588C73.4498 129.812 73.3298 130.084 73.3298 130.404C73.3298 130.756 73.4498 131.024 73.6898 131.208C73.9298 131.384 74.2498 131.472 74.6498 131.472ZM79.0593 132V126.192H79.8873V132H79.0593ZM79.4673 124.596C79.2993 124.596 79.1553 124.536 79.0353 124.416C78.9153 124.296 78.8553 124.152 78.8553 123.984C78.8553 123.816 78.9153 123.672 79.0353 123.552C79.1553 123.424 79.2993 123.36 79.4673 123.36C79.6353 123.36 79.7793 123.424 79.8993 123.552C80.0273 123.672 80.0913 123.816 80.0913 123.984C80.0913 124.152 80.0273 124.296 79.8993 124.416C79.7793 124.536 79.6353 124.596 79.4673 124.596ZM82.658 123.408V132H81.794V123.408H82.658ZM86.2351 132.144C85.6191 132.144 85.1351 131.984 84.7831 131.664C84.4391 131.344 84.2671 130.932 84.2671 130.428C84.2671 129.892 84.4591 129.464 84.8431 129.144C85.2271 128.824 85.7591 128.636 86.4391 128.58L88.3591 128.424V128.232C88.3591 127.848 88.2911 127.548 88.1551 127.332C88.0191 127.108 87.8351 126.952 87.6031 126.864C87.3711 126.776 87.1111 126.732 86.8231 126.732C86.3111 126.732 85.9151 126.84 85.6351 127.056C85.3551 127.272 85.2151 127.576 85.2151 127.968H84.4591C84.4591 127.576 84.5591 127.236 84.7591 126.948C84.9591 126.66 85.2391 126.436 85.5991 126.276C85.9591 126.116 86.3751 126.036 86.8471 126.036C87.3031 126.036 87.7031 126.116 88.0471 126.276C88.3911 126.428 88.6631 126.668 88.8631 126.996C89.0711 127.316 89.1751 127.732 89.1751 128.244V132H88.4791L88.3711 130.98C88.1951 131.348 87.9151 131.636 87.5311 131.844C87.1551 132.044 86.7231 132.144 86.2351 132.144ZM86.4271 131.472C87.0431 131.472 87.5191 131.276 87.8551 130.884C88.1911 130.492 88.3591 129.984 88.3591 129.36V129.048L86.6431 129.18C86.0991 129.228 85.7071 129.364 85.4671 129.588C85.2271 129.812 85.1071 130.084 85.1071 130.404C85.1071 130.756 85.2271 131.024 85.4671 131.208C85.7071 131.384 86.0271 131.472 86.4271 131.472ZM91.5567 132H90.8367V123.252H91.6647V127.32C91.8647 126.888 92.1527 126.568 92.5287 126.36C92.9127 126.144 93.3527 126.036 93.8487 126.036C94.4167 126.036 94.8967 126.172 95.2887 126.444C95.6887 126.708 95.9927 127.072 96.2007 127.536C96.4167 128 96.5247 128.524 96.5247 129.108C96.5247 129.684 96.4167 130.204 96.2007 130.668C95.9847 131.124 95.6767 131.484 95.2767 131.748C94.8767 132.012 94.3927 132.144 93.8247 132.144C93.3447 132.144 92.9127 132.036 92.5287 131.82C92.1447 131.596 91.8487 131.26 91.6407 130.812L91.5567 132ZM91.6767 129.084C91.6767 129.532 91.7567 129.932 91.9167 130.284C92.0767 130.628 92.3047 130.9 92.6007 131.1C92.9047 131.292 93.2687 131.388 93.6927 131.388C94.1167 131.388 94.4767 131.292 94.7727 131.1C95.0687 130.9 95.2927 130.628 95.4447 130.284C95.6047 129.932 95.6847 129.532 95.6847 129.084C95.6847 128.636 95.6047 128.24 95.4447 127.896C95.2927 127.552 95.0687 127.28 94.7727 127.08C94.4767 126.88 94.1167 126.78 93.6927 126.78C93.2687 126.78 92.9047 126.88 92.6007 127.08C92.3047 127.28 92.0767 127.552 91.9167 127.896C91.7567 128.24 91.6767 128.636 91.6767 129.084ZM98.7085 132H97.8805V123.252H98.7085V132ZM102.905 132.144C102.345 132.144 101.849 132.016 101.417 131.76C100.993 131.504 100.661 131.148 100.421 130.692C100.181 130.236 100.061 129.704 100.061 129.096C100.061 128.496 100.177 127.968 100.409 127.512C100.649 127.048 100.977 126.688 101.393 126.432C101.809 126.168 102.293 126.036 102.845 126.036C103.373 126.036 103.833 126.152 104.225 126.384C104.625 126.616 104.933 126.94 105.149 127.356C105.373 127.764 105.485 128.244 105.485 128.796V129.204H100.517L100.541 128.604H104.657C104.657 128.044 104.489 127.596 104.153 127.26C103.825 126.916 103.389 126.744 102.845 126.744C102.445 126.744 102.093 126.836 101.789 127.02C101.493 127.204 101.265 127.468 101.105 127.812C100.945 128.148 100.865 128.548 100.865 129.012C100.865 129.78 101.041 130.376 101.393 130.8C101.753 131.224 102.261 131.436 102.917 131.436C103.389 131.436 103.777 131.336 104.081 131.136C104.385 130.936 104.589 130.644 104.693 130.26H105.485C105.333 130.868 105.037 131.336 104.597 131.664C104.157 131.984 103.593 132.144 102.905 132.144ZM111.181 123.408V132H110.317V123.408H111.181ZM113.641 128.076H110.965V127.32H113.557C114.101 127.32 114.517 127.18 114.805 126.9C115.101 126.612 115.249 126.212 115.249 125.7C115.249 125.22 115.093 124.848 114.781 124.584C114.469 124.312 114.025 124.176 113.449 124.176H110.629V123.408H113.461C114.293 123.408 114.945 123.608 115.417 124.008C115.897 124.4 116.137 124.94 116.137 125.628C116.137 126.172 116.005 126.624 115.741 126.984C115.485 127.336 115.097 127.592 114.577 127.752V127.608C115.153 127.752 115.585 128.004 115.873 128.364C116.161 128.716 116.305 129.176 116.305 129.744C116.305 130.2 116.197 130.6 115.981 130.944C115.765 131.28 115.457 131.54 115.057 131.724C114.657 131.908 114.185 132 113.641 132H110.629V131.22H113.641C114.201 131.22 114.637 131.08 114.949 130.8C115.269 130.52 115.429 130.132 115.429 129.636C115.429 129.148 115.269 128.768 114.949 128.496C114.637 128.216 114.201 128.076 113.641 128.076ZM119.352 132.144C118.736 132.144 118.252 131.984 117.9 131.664C117.556 131.344 117.384 130.932 117.384 130.428C117.384 129.892 117.576 129.464 117.96 129.144C118.344 128.824 118.876 128.636 119.556 128.58L121.476 128.424V128.232C121.476 127.848 121.408 127.548 121.272 127.332C121.136 127.108 120.952 126.952 120.72 126.864C120.488 126.776 120.228 126.732 119.94 126.732C119.428 126.732 119.032 126.84 118.752 127.056C118.472 127.272 118.332 127.576 118.332 127.968H117.576C117.576 127.576 117.676 127.236 117.876 126.948C118.076 126.66 118.356 126.436 118.716 126.276C119.076 126.116 119.492 126.036 119.964 126.036C120.42 126.036 120.82 126.116 121.164 126.276C121.508 126.428 121.78 126.668 121.98 126.996C122.188 127.316 122.292 127.732 122.292 128.244V132H121.596L121.488 130.98C121.312 131.348 121.032 131.636 120.648 131.844C120.272 132.044 119.84 132.144 119.352 132.144ZM119.544 131.472C120.16 131.472 120.636 131.276 120.972 130.884C121.308 130.492 121.476 129.984 121.476 129.36V129.048L119.76 129.18C119.216 129.228 118.824 129.364 118.584 129.588C118.344 129.812 118.224 130.084 118.224 130.404C118.224 130.756 118.344 131.024 118.584 131.208C118.824 131.384 119.144 131.472 119.544 131.472ZM124.818 132H123.99V123.252H124.818V132ZM128.247 132.144C127.631 132.144 127.147 131.984 126.795 131.664C126.451 131.344 126.279 130.932 126.279 130.428C126.279 129.892 126.471 129.464 126.855 129.144C127.239 128.824 127.771 128.636 128.451 128.58L130.371 128.424V128.232C130.371 127.848 130.303 127.548 130.167 127.332C130.031 127.108 129.847 126.952 129.615 126.864C129.383 126.776 129.123 126.732 128.835 126.732C128.323 126.732 127.927 126.84 127.647 127.056C127.367 127.272 127.227 127.576 127.227 127.968H126.471C126.471 127.576 126.571 127.236 126.771 126.948C126.971 126.66 127.251 126.436 127.611 126.276C127.971 126.116 128.387 126.036 128.859 126.036C129.315 126.036 129.715 126.116 130.059 126.276C130.403 126.428 130.675 126.668 130.875 126.996C131.083 127.316 131.187 127.732 131.187 128.244V132H130.491L130.383 130.98C130.207 131.348 129.927 131.636 129.543 131.844C129.167 132.044 128.735 132.144 128.247 132.144ZM128.439 131.472C129.055 131.472 129.531 131.276 129.867 130.884C130.203 130.492 130.371 129.984 130.371 129.36V129.048L128.655 129.18C128.111 129.228 127.719 129.364 127.479 129.588C127.239 129.812 127.119 130.084 127.119 130.404C127.119 130.756 127.239 131.024 127.479 131.208C127.719 131.384 128.039 131.472 128.439 131.472ZM133.676 132H132.848V126.192H133.568L133.688 127.2C133.88 126.832 134.152 126.548 134.504 126.348C134.864 126.14 135.256 126.036 135.68 126.036C136.48 126.036 137.056 126.256 137.408 126.696C137.76 127.136 137.936 127.72 137.936 128.448V132H137.108V128.628C137.108 127.948 136.964 127.472 136.676 127.2C136.396 126.928 136.016 126.792 135.536 126.792C134.944 126.792 134.484 126.992 134.156 127.392C133.836 127.784 133.676 128.308 133.676 128.964V132ZM139.179 129.108C139.179 128.5 139.295 127.968 139.527 127.512C139.767 127.048 140.095 126.688 140.511 126.432C140.935 126.168 141.427 126.036 141.987 126.036C142.659 126.036 143.223 126.216 143.679 126.576C144.143 126.936 144.431 127.416 144.543 128.016H143.715C143.603 127.616 143.391 127.308 143.079 127.092C142.767 126.876 142.407 126.768 141.999 126.768C141.615 126.768 141.271 126.864 140.967 127.056C140.663 127.248 140.423 127.52 140.247 127.872C140.079 128.216 139.995 128.624 139.995 129.096C139.995 129.56 140.075 129.964 140.235 130.308C140.395 130.652 140.619 130.92 140.907 131.112C141.203 131.304 141.547 131.4 141.939 131.4C142.379 131.4 142.759 131.292 143.079 131.076C143.399 130.852 143.615 130.552 143.727 130.176H144.567C144.479 130.568 144.311 130.912 144.063 131.208C143.815 131.504 143.507 131.736 143.139 131.904C142.779 132.064 142.379 132.144 141.939 132.144C141.387 132.144 140.903 132.02 140.487 131.772C140.079 131.516 139.759 131.16 139.527 130.704C139.295 130.248 139.179 129.716 139.179 129.108ZM148.257 132.144C147.697 132.144 147.201 132.016 146.769 131.76C146.345 131.504 146.013 131.148 145.773 130.692C145.533 130.236 145.413 129.704 145.413 129.096C145.413 128.496 145.529 127.968 145.761 127.512C146.001 127.048 146.329 126.688 146.745 126.432C147.161 126.168 147.645 126.036 148.197 126.036C148.725 126.036 149.185 126.152 149.577 126.384C149.977 126.616 150.285 126.94 150.501 127.356C150.725 127.764 150.837 128.244 150.837 128.796V129.204H145.869L145.893 128.604H150.009C150.009 128.044 149.841 127.596 149.505 127.26C149.177 126.916 148.741 126.744 148.197 126.744C147.797 126.744 147.445 126.836 147.141 127.02C146.845 127.204 146.617 127.468 146.457 127.812C146.297 128.148 146.217 128.548 146.217 129.012C146.217 129.78 146.393 130.376 146.745 130.8C147.105 131.224 147.613 131.436 148.269 131.436C148.741 131.436 149.129 131.336 149.433 131.136C149.737 130.936 149.941 130.644 150.045 130.26H150.837C150.685 130.868 150.389 131.336 149.949 131.664C149.509 131.984 148.945 132.144 148.257 132.144Z" fill="black" fill-opacity="0.6"/>
<rect x="59" y="143" width="255" height="16" fill="#002F86"/>
<rect x="59" y="143" width="107" height="16" fill="#00B3FF"/>
<path d="M71.528 180.64C71.528 180.16 71.648 179.744 71.888 179.392C72.128 179.032 72.464 178.752 72.896 178.552C73.328 178.352 73.832 178.252 74.408 178.252C74.928 178.252 75.38 178.344 75.764 178.528C76.156 178.712 76.468 178.976 76.7 179.32C76.932 179.664 77.068 180.076 77.108 180.556H76.232C76.184 180.076 76 179.704 75.68 179.44C75.36 179.168 74.932 179.032 74.396 179.032C73.796 179.032 73.312 179.176 72.944 179.464C72.576 179.752 72.392 180.14 72.392 180.628C72.392 181.004 72.504 181.316 72.728 181.564C72.952 181.804 73.288 181.98 73.736 182.092L75.212 182.452C75.884 182.612 76.392 182.884 76.736 183.268C77.08 183.644 77.252 184.124 77.252 184.708C77.252 185.196 77.132 185.624 76.892 185.992C76.652 186.36 76.312 186.644 75.872 186.844C75.432 187.044 74.916 187.144 74.324 187.144C73.772 187.144 73.28 187.052 72.848 186.868C72.424 186.684 72.088 186.42 71.84 186.076C71.6 185.732 71.46 185.328 71.42 184.864H72.308C72.332 185.32 72.528 185.684 72.896 185.956C73.264 186.22 73.74 186.352 74.324 186.352C74.956 186.352 75.456 186.208 75.824 185.92C76.2 185.632 76.388 185.244 76.388 184.756C76.388 184.364 76.276 184.048 76.052 183.808C75.836 183.56 75.496 183.38 75.032 183.268L73.58 182.908C72.908 182.748 72.396 182.48 72.044 182.104C71.7 181.72 71.528 181.232 71.528 180.64ZM78.6257 189.532V181.192H79.3457L79.4297 182.368C79.6377 181.92 79.9337 181.588 80.3177 181.372C80.7097 181.148 81.1457 181.036 81.6257 181.036C82.1857 181.036 82.6657 181.168 83.0657 181.432C83.4657 181.696 83.7737 182.056 83.9897 182.512C84.2057 182.968 84.3137 183.488 84.3137 184.072C84.3137 184.656 84.2057 185.18 83.9897 185.644C83.7817 186.108 83.4777 186.476 83.0777 186.748C82.6857 187.012 82.2017 187.144 81.6257 187.144C81.1297 187.144 80.6937 187.04 80.3177 186.832C79.9417 186.616 79.6537 186.3 79.4537 185.884V189.532H78.6257ZM79.4657 184.096C79.4657 184.536 79.5457 184.932 79.7057 185.284C79.8657 185.628 80.0937 185.9 80.3897 186.1C80.6937 186.3 81.0577 186.4 81.4817 186.4C81.9057 186.4 82.2657 186.3 82.5617 186.1C82.8577 185.9 83.0817 185.628 83.2337 185.284C83.3937 184.932 83.4737 184.536 83.4737 184.096C83.4737 183.648 83.3937 183.252 83.2337 182.908C83.0817 182.556 82.8577 182.284 82.5617 182.092C82.2657 181.892 81.9057 181.792 81.4817 181.792C81.0577 181.792 80.6937 181.892 80.3897 182.092C80.0937 182.284 79.8657 182.556 79.7057 182.908C79.5457 183.252 79.4657 183.648 79.4657 184.096ZM88.0695 187.144C87.5095 187.144 87.0135 187.016 86.5815 186.76C86.1575 186.504 85.8255 186.148 85.5855 185.692C85.3455 185.236 85.2255 184.704 85.2255 184.096C85.2255 183.496 85.3415 182.968 85.5735 182.512C85.8135 182.048 86.1415 181.688 86.5575 181.432C86.9735 181.168 87.4575 181.036 88.0095 181.036C88.5375 181.036 88.9975 181.152 89.3895 181.384C89.7895 181.616 90.0975 181.94 90.3135 182.356C90.5375 182.764 90.6495 183.244 90.6495 183.796V184.204H85.6815L85.7055 183.604H89.8215C89.8215 183.044 89.6535 182.596 89.3175 182.26C88.9895 181.916 88.5535 181.744 88.0095 181.744C87.6095 181.744 87.2575 181.836 86.9535 182.02C86.6575 182.204 86.4295 182.468 86.2695 182.812C86.1095 183.148 86.0295 183.548 86.0295 184.012C86.0295 184.78 86.2055 185.376 86.5575 185.8C86.9175 186.224 87.4255 186.436 88.0815 186.436C88.5535 186.436 88.9415 186.336 89.2455 186.136C89.5495 185.936 89.7535 185.644 89.8575 185.26H90.6495C90.4975 185.868 90.2015 186.336 89.7615 186.664C89.3215 186.984 88.7575 187.144 88.0695 187.144ZM92.8014 187H91.9734V181.192H92.6934L92.8134 182.2C93.0054 181.832 93.2774 181.548 93.6294 181.348C93.9894 181.14 94.3814 181.036 94.8054 181.036C95.6054 181.036 96.1814 181.256 96.5334 181.696C96.8854 182.136 97.0614 182.72 97.0614 183.448V187H96.2334V183.628C96.2334 182.948 96.0894 182.472 95.8014 182.2C95.5214 181.928 95.1414 181.792 94.6614 181.792C94.0694 181.792 93.6094 181.992 93.2814 182.392C92.9614 182.784 92.8014 183.308 92.8014 183.964V187ZM98.0637 181.192H101.208V181.888H98.0637V181.192ZM100.044 187H99.2277V179.356H100.044V187Z" fill="black" fill-opacity="0.6"/>
<path d="M132.908 187H132.044V178.408H135.248C136.112 178.408 136.792 178.632 137.288 179.08C137.792 179.52 138.044 180.124 138.044 180.892C138.044 181.508 137.888 182.024 137.576 182.44C137.272 182.856 136.844 183.14 136.292 183.292L138.128 187H137.168L135.416 183.436H132.908V187ZM132.908 179.188V182.656H135.272C135.864 182.656 136.324 182.5 136.652 182.188C136.988 181.876 137.156 181.452 137.156 180.916C137.156 180.356 136.984 179.928 136.64 179.632C136.296 179.336 135.832 179.188 135.248 179.188H132.908ZM141.554 187.144C140.994 187.144 140.498 187.016 140.066 186.76C139.642 186.504 139.31 186.148 139.07 185.692C138.83 185.236 138.71 184.704 138.71 184.096C138.71 183.496 138.826 182.968 139.058 182.512C139.298 182.048 139.626 181.688 140.042 181.432C140.458 181.168 140.942 181.036 141.494 181.036C142.022 181.036 142.482 181.152 142.874 181.384C143.274 181.616 143.582 181.94 143.798 182.356C144.022 182.764 144.134 183.244 144.134 183.796V184.204H139.166L139.19 183.604H143.306C143.306 183.044 143.138 182.596 142.802 182.26C142.474 181.916 142.038 181.744 141.494 181.744C141.094 181.744 140.742 181.836 140.438 182.02C140.142 182.204 139.914 182.468 139.754 182.812C139.594 183.148 139.514 183.548 139.514 184.012C139.514 184.78 139.69 185.376 140.042 185.8C140.402 186.224 140.91 186.436 141.566 186.436C142.038 186.436 142.426 186.336 142.73 186.136C143.034 185.936 143.238 185.644 143.342 185.26H144.134C143.982 185.868 143.686 186.336 143.246 186.664C142.806 186.984 142.242 187.144 141.554 187.144ZM146.286 187H145.458V181.192H146.178L146.298 182.284L146.178 182.248C146.298 181.88 146.522 181.588 146.85 181.372C147.186 181.148 147.578 181.036 148.026 181.036C148.546 181.036 148.978 181.18 149.322 181.468C149.674 181.748 149.898 182.132 149.994 182.62H149.814C149.894 182.132 150.11 181.748 150.462 181.468C150.822 181.18 151.27 181.036 151.806 181.036C152.43 181.036 152.934 181.228 153.318 181.612C153.702 181.996 153.894 182.524 153.894 183.196V187H153.09V183.364C153.09 182.868 152.962 182.48 152.706 182.2C152.45 181.92 152.098 181.78 151.65 181.78C151.33 181.78 151.054 181.856 150.822 182.008C150.59 182.152 150.41 182.348 150.282 182.596C150.162 182.844 150.102 183.116 150.102 183.412V187H149.286V183.352C149.286 182.856 149.154 182.472 148.89 182.2C148.634 181.928 148.286 181.792 147.846 181.792C147.526 181.792 147.246 181.864 147.006 182.008C146.774 182.152 146.594 182.348 146.466 182.596C146.346 182.836 146.286 183.104 146.286 183.4V187ZM157.227 187.144C156.611 187.144 156.127 186.984 155.775 186.664C155.431 186.344 155.259 185.932 155.259 185.428C155.259 184.892 155.451 184.464 155.835 184.144C156.219 183.824 156.751 183.636 157.431 183.58L159.351 183.424V183.232C159.351 182.848 159.283 182.548 159.147 182.332C159.011 182.108 158.827 181.952 158.595 181.864C158.363 181.776 158.103 181.732 157.815 181.732C157.303 181.732 156.907 181.84 156.627 182.056C156.347 182.272 156.207 182.576 156.207 182.968H155.451C155.451 182.576 155.551 182.236 155.751 181.948C155.951 181.66 156.231 181.436 156.591 181.276C156.951 181.116 157.367 181.036 157.839 181.036C158.295 181.036 158.695 181.116 159.039 181.276C159.383 181.428 159.655 181.668 159.855 181.996C160.063 182.316 160.167 182.732 160.167 183.244V187H159.471L159.363 185.98C159.187 186.348 158.907 186.636 158.523 186.844C158.147 187.044 157.715 187.144 157.227 187.144ZM157.419 186.472C158.035 186.472 158.511 186.276 158.847 185.884C159.183 185.492 159.351 184.984 159.351 184.36V184.048L157.635 184.18C157.091 184.228 156.699 184.364 156.459 184.588C156.219 184.812 156.099 185.084 156.099 185.404C156.099 185.756 156.219 186.024 156.459 186.208C156.699 186.384 157.019 186.472 157.419 186.472ZM161.829 187V181.192H162.657V187H161.829ZM162.237 179.596C162.069 179.596 161.925 179.536 161.805 179.416C161.685 179.296 161.625 179.152 161.625 178.984C161.625 178.816 161.685 178.672 161.805 178.552C161.925 178.424 162.069 178.36 162.237 178.36C162.405 178.36 162.549 178.424 162.669 178.552C162.797 178.672 162.861 178.816 162.861 178.984C162.861 179.152 162.797 179.296 162.669 179.416C162.549 179.536 162.405 179.596 162.237 179.596ZM165.212 187H164.384V181.192H165.104L165.224 182.2C165.416 181.832 165.688 181.548 166.04 181.348C166.4 181.14 166.792 181.036 167.216 181.036C168.016 181.036 168.592 181.256 168.944 181.696C169.296 182.136 169.472 182.72 169.472 183.448V187H168.644V183.628C168.644 182.948 168.5 182.472 168.212 182.2C167.932 181.928 167.552 181.792 167.072 181.792C166.48 181.792 166.02 181.992 165.692 182.392C165.372 182.784 165.212 183.308 165.212 183.964V187ZM171.122 187V181.192H171.95V187H171.122ZM171.53 179.596C171.362 179.596 171.218 179.536 171.098 179.416C170.978 179.296 170.918 179.152 170.918 178.984C170.918 178.816 170.978 178.672 171.098 178.552C171.218 178.424 171.362 178.36 171.53 178.36C171.698 178.36 171.842 178.424 171.962 178.552C172.09 178.672 172.154 178.816 172.154 178.984C172.154 179.152 172.09 179.296 171.962 179.416C171.842 179.536 171.698 179.596 171.53 179.596ZM174.505 187H173.677V181.192H174.396L174.517 182.2C174.709 181.832 174.981 181.548 175.333 181.348C175.693 181.14 176.085 181.036 176.509 181.036C177.309 181.036 177.885 181.256 178.237 181.696C178.589 182.136 178.765 182.72 178.765 183.448V187H177.937V183.628C177.937 182.948 177.793 182.472 177.505 182.2C177.225 181.928 176.845 181.792 176.365 181.792C175.773 181.792 175.313 181.992 174.985 182.392C174.665 182.784 174.505 183.308 174.505 183.964V187ZM180.019 183.928C180.019 183.4 180.127 182.92 180.343 182.488C180.559 182.048 180.871 181.696 181.279 181.432C181.687 181.168 182.175 181.036 182.743 181.036C183.295 181.036 183.767 181.172 184.159 181.444C184.551 181.716 184.831 182.108 184.999 182.62L184.867 182.788L184.975 181.192H185.695V186.82C185.695 187.396 185.579 187.896 185.347 188.32C185.115 188.752 184.787 189.084 184.363 189.316C183.947 189.556 183.455 189.676 182.887 189.676C182.143 189.676 181.527 189.476 181.039 189.076C180.551 188.676 180.247 188.128 180.127 187.432H180.955C181.043 187.904 181.255 188.268 181.591 188.524C181.935 188.788 182.371 188.92 182.899 188.92C183.499 188.92 183.979 188.736 184.339 188.368C184.699 188 184.879 187.512 184.879 186.904V185.08L184.999 185.236C184.831 185.724 184.539 186.112 184.123 186.4C183.715 186.68 183.235 186.82 182.683 186.82C182.131 186.82 181.655 186.688 181.255 186.424C180.855 186.16 180.547 185.812 180.331 185.38C180.123 184.94 180.019 184.456 180.019 183.928ZM180.847 183.916C180.847 184.316 180.923 184.68 181.075 185.008C181.235 185.336 181.459 185.596 181.747 185.788C182.043 185.98 182.395 186.076 182.803 186.076C183.219 186.076 183.575 185.984 183.871 185.8C184.175 185.608 184.407 185.352 184.567 185.032C184.727 184.704 184.807 184.332 184.807 183.916C184.807 183.5 184.727 183.132 184.567 182.812C184.415 182.492 184.191 182.24 183.895 182.056C183.607 181.864 183.247 181.768 182.815 181.768C182.399 181.768 182.043 181.868 181.747 182.068C181.459 182.26 181.235 182.52 181.075 182.848C180.923 183.168 180.847 183.524 180.847 183.916Z" fill="black" fill-opacity="0.6"/>
<circle cx="62" cy="183" r="3" fill="#002F86"/>
<circle cx="122" cy="183" r="3" fill="#E0E6F0"/>
<path d="M349.158 15.8591L353.775 20.4753L349.158 25.0915L353.775 29.7077L349.158 34.3239L353.775 38.9401L349.158 43.5563L353.775 48.1725L349.158 52.7887L353.775 57.4049L349.158 62.0211L353.775 66.6373L349.158 71.2535L353.775 75.8697" stroke="#E1E1E1" stroke-width="1.94366"/>
<g filter="url(#filter1_d_1_312)">
<circle cx="353.775" cy="76.1127" r="3.88732" transform="rotate(90 353.775 76.1127)" fill="#002F86"/>
<circle cx="353.775" cy="76.1127" r="2.91549" transform="rotate(90 353.775 76.1127)" stroke="white" stroke-width="1.94366"/>
</g>
<g filter="url(#filter2_d_1_312)">
<circle cx="349.887" cy="14.8873" r="3.88732" transform="rotate(90 349.887 14.8873)" fill="#002F86"/>
<circle cx="349.887" cy="14.8873" r="2.91549" transform="rotate(90 349.887 14.8873)" stroke="white" stroke-width="1.94366"/>
</g>
<defs>
<filter id="filter0_d_1_312" x="10" y="14" width="353" height="220" filterUnits="userSpaceOnUse" color-interpolation-filters="sRGB">
<feFlood flood-opacity="0" result="BackgroundImageFix"/>
<feColorMatrix in="SourceAlpha" type="matrix" values="0 0 0 0 0 0 0 0 0 0 0 0 0 0 0 0 0 0 127 0" result="hardAlpha"/>
<feOffset dy="4"/>
<feGaussianBlur stdDeviation="12.5"/>
<feComposite in2="hardAlpha" operator="out"/>
<feColorMatrix type="matrix" values="0 0 0 0 0.779418 0 0 0 0 0.779418 0 0 0 0 0.779418 0 0 0 0.15 0"/>
<feBlend mode="normal" in2="BackgroundImageFix" result="effect1_dropShadow_1_312"/>
<feBlend mode="normal" in="SourceGraphic" in2="effect1_dropShadow_1_312" result="shape"/>
</filter>
<filter id="filter1_d_1_312" x="347.944" y="72.2253" width="11.662" height="11.662" filterUnits="userSpaceOnUse" color-interpolation-filters="sRGB">
<feFlood flood-opacity="0" result="BackgroundImageFix"/>
<feColorMatrix in="SourceAlpha" type="matrix" values="0 0 0 0 0 0 0 0 0 0 0 0 0 0 0 0 0 0 127 0" result="hardAlpha"/>
<feOffset dy="1.94366"/>
<feGaussianBlur stdDeviation="0.971831"/>
<feComposite in2="hardAlpha" operator="out"/>
<feColorMatrix type="matrix" values="0 0 0 0 0.733603 0 0 0 0 0.733603 0 0 0 0 0.733603 0 0 0 0.25 0"/>
<feBlend mode="normal" in2="BackgroundImageFix" result="effect1_dropShadow_1_312"/>
<feBlend mode="normal" in="SourceGraphic" in2="effect1_dropShadow_1_312" result="shape"/>
</filter>
<filter id="filter2_d_1_312" x="344.056" y="11" width="11.662" height="11.662" filterUnits="userSpaceOnUse" color-interpolation-filters="sRGB">
<feFlood flood-opacity="0" result="BackgroundImageFix"/>
<feColorMatrix in="SourceAlpha" type="matrix" values="0 0 0 0 0 0 0 0 0 0 0 0 0 0 0 0 0 0 127 0" result="hardAlpha"/>
<feOffset dy="1.94366"/>
<feGaussianBlur stdDeviation="0.971831"/>
<feComposite in2="hardAlpha" operator="out"/>
<feColorMatrix type="matrix" values="0 0 0 0 0.733603 0 0 0 0 0.733603 0 0 0 0 0.733603 0 0 0 0.25 0"/>
<feBlend mode="normal" in2="BackgroundImageFix" result="effect1_dropShadow_1_312"/>
<feBlend mode="normal" in="SourceGraphic" in2="effect1_dropShadow_1_312" result="shape"/>
</filter>
</defs>
</svg>
