<svg width="200" height="64" viewBox="0 0 200 64" fill="none" xmlns="http://www.w3.org/2000/svg">
<rect width="200" height="64" fill="white"/>
<g opacity="0.3">
<path d="M169.156 35.7016C169.156 39.2259 166.299 42.083 162.774 42.083C159.25 42.083 156.393 39.2259 156.393 35.7016C156.393 32.1773 159.25 29.3203 162.774 29.3203C166.299 29.3203 169.156 32.1773 169.156 35.7016Z" fill="black"/>
<path d="M92.5796 35.7016C92.5796 39.2259 89.7226 42.083 86.1983 42.083C82.674 42.083 79.817 39.2259 79.817 35.7016C79.817 32.1773 82.674 29.3203 86.1983 29.3203C89.7226 29.3203 92.5796 32.1773 92.5796 35.7016Z" fill="black"/>
<path d="M50.4011 26.7866V28.5742C48.9115 27.2707 46.975 26.4514 44.7405 26.4514C39.8619 26.4514 35.6165 30.4362 35.6165 35.6127C35.6165 40.7892 39.8619 44.8112 44.7405 44.8112C46.975 44.8112 48.9115 43.9919 50.4011 42.6513V44.4761H54.3487V26.7866H50.4011ZM45.0012 41.0871C42.0591 41.0871 39.6385 38.6292 39.6385 35.6127C39.6385 32.6334 42.0591 30.1755 45.0012 30.1755C48.0177 30.1755 50.4011 32.6334 50.4011 35.6127C50.4011 38.6292 48.0177 41.0871 45.0012 41.0871Z" fill="black"/>
<path d="M70.8284 16.9177V28.5742C69.3388 27.2707 67.4022 26.4514 65.1678 26.4514C60.2892 26.4514 56.0437 30.4362 56.0437 35.6127C56.0437 40.7892 60.2892 44.8112 65.1678 44.8112C67.4022 44.8112 69.3388 43.9919 70.8284 42.6513V44.4761H74.7759V16.9177H70.8284ZM65.4285 41.0871C62.4864 41.0871 60.0657 38.6292 60.0657 35.6127C60.0657 32.6334 62.4864 30.1755 65.4285 30.1755C68.445 30.1755 70.8284 32.6334 70.8284 35.6127C70.8284 38.6292 68.445 41.0871 65.4285 41.0871Z" fill="black"/>
<path d="M85.8185 44.923C91.0695 44.923 95.2032 40.752 95.2032 35.6872C95.2032 30.5852 91.0695 26.4514 85.8185 26.4514C80.6047 26.4514 76.471 30.5852 76.471 35.6872C76.471 40.752 80.6047 44.923 85.8185 44.923ZM85.8185 41.1616C82.7647 41.1616 80.493 38.6292 80.493 35.6872C80.493 32.7451 82.7647 30.25 85.8185 30.25C88.9095 30.25 91.1812 32.7451 91.1812 35.6872C91.1812 38.6292 88.9095 41.1616 85.8185 41.1616Z" fill="black"/>
<path d="M106.535 26.4514C104.301 26.4514 102.364 27.2707 100.875 28.5742V16.9177H96.9271V44.4761H100.875V42.6513C102.364 43.9919 104.301 44.8112 106.535 44.8112C111.414 44.8112 115.659 40.7892 115.659 35.6127C115.659 30.4362 111.414 26.4514 106.535 26.4514ZM106.275 41.0871C103.258 41.0871 100.875 38.6292 100.875 35.6127C100.875 32.6334 103.258 30.1755 106.275 30.1755C109.217 30.1755 111.637 32.6334 111.637 35.6127C111.637 38.6292 109.217 41.0871 106.275 41.0871Z" fill="black"/>
<path d="M130.91 26.7866V28.5742C129.42 27.2707 127.484 26.4514 125.249 26.4514C120.371 26.4514 116.125 30.4362 116.125 35.6127C116.125 40.7892 120.371 44.8112 125.249 44.8112C127.484 44.8112 129.42 43.9919 130.91 42.6513V44.4761H134.858V26.7866H130.91ZM125.51 41.0871C122.568 41.0871 120.147 38.6292 120.147 35.6127C120.147 32.6334 122.568 30.1755 125.51 30.1755C128.527 30.1755 130.91 32.6334 130.91 35.6127C130.91 38.6292 128.527 41.0871 125.51 41.0871Z" fill="black"/>
<path d="M145.9 44.923C149.252 44.923 152.194 43.2471 153.87 40.6402L150.518 38.6292C149.55 40.1933 147.837 41.1616 145.9 41.1616C142.884 41.1616 140.575 38.6665 140.575 35.6872C140.575 32.7079 142.884 30.25 145.9 30.25C147.799 30.25 149.401 31.1065 150.406 32.5962L153.758 30.6224C152.082 28.09 149.215 26.4514 145.9 26.4514C140.724 26.4514 136.553 30.5479 136.553 35.6872C136.553 40.7892 140.724 44.923 145.9 44.923Z" fill="black"/>
<path d="M162.945 44.923C168.196 44.923 172.33 40.752 172.33 35.6872C172.33 30.5852 168.196 26.4514 162.945 26.4514C157.731 26.4514 153.598 30.5852 153.598 35.6872C153.598 40.752 157.731 44.923 162.945 44.923ZM162.945 41.1616C159.891 41.1616 157.62 38.6292 157.62 35.6872C157.62 32.7451 159.891 30.25 162.945 30.25C166.036 30.25 168.308 32.7451 168.308 35.6872C168.308 38.6292 166.036 41.1616 162.945 41.1616Z" fill="black"/>
<path d="M78.1299 21.2123C77.9096 20.8308 78.0403 20.3429 78.4218 20.1227C78.8033 19.9024 79.2912 20.0331 79.5114 20.4146L81.5056 23.8686C81.7259 24.2501 81.5952 24.738 81.2136 24.9582C80.8321 25.1785 80.3443 25.0478 80.124 24.6663L78.1299 21.2123Z" fill="black"/>
<path d="M90.1864 20.4142C90.4067 20.0327 90.8945 19.902 91.276 20.1222C91.6576 20.3425 91.7883 20.8303 91.568 21.2119L89.5738 24.6658C89.3536 25.0474 88.8657 25.1781 88.4842 24.9578C88.1027 24.7375 87.972 24.2497 88.1922 23.8682L90.1864 20.4142Z" fill="black"/>
<path d="M84.0806 19.8301C84.0806 19.3896 84.4377 19.0325 84.8783 19.0325C85.3188 19.0325 85.6759 19.3896 85.6759 19.8301V23.8185C85.6759 24.259 85.3188 24.6161 84.8783 24.6161C84.4377 24.6161 84.0806 24.259 84.0806 23.8185V19.8301Z" fill="black"/>
<path d="M174.841 31.6317C175.201 31.6715 175.529 31.4113 175.536 31.0487C175.562 29.6076 175.154 28.1861 174.357 26.9731C173.56 25.7601 172.417 24.8217 171.084 24.2744C170.748 24.1367 170.379 24.3342 170.273 24.6809C170.166 25.0276 170.363 25.3915 170.696 25.5361C171.738 25.9889 172.631 26.737 173.26 27.6943C173.889 28.6517 174.221 29.7681 174.223 30.9043C174.224 31.2669 174.48 31.5919 174.841 31.6317Z" fill="black"/>
</g>
</svg>
