<svg width="200" height="64" viewBox="0 0 200 64" fill="none" xmlns="http://www.w3.org/2000/svg">
<rect width="200" height="64" fill="white"/>
<g opacity="0.3">
<path d="M73.9585 43.4773V19.5637H83.7807C85.4285 19.5637 86.8836 19.8526 88.1462 20.4304C89.4301 21.0082 90.4359 21.8641 91.1634 22.9983C91.891 24.1324 92.2548 25.5341 92.2548 27.2032C92.2548 28.8295 91.8803 30.2098 91.1313 31.3439C90.4038 32.4781 89.398 33.3448 88.1141 33.9439C86.8515 34.5217 85.4071 34.8106 83.7807 34.8106H78.9338V43.4773H73.9585ZM78.9338 30.4773H83.8128C84.8614 30.4773 85.6959 30.1777 86.3165 29.5785C86.9585 28.9793 87.2795 28.1876 87.2795 27.2032C87.2795 26.1975 86.9585 25.395 86.3165 24.7958C85.6959 24.1966 84.8614 23.897 83.8128 23.897H78.9338V30.4773Z" fill="black"/>
<path d="M94.671 43.4773V25.9514H99.1648V28.5835C99.6142 27.4921 100.245 26.7538 101.059 26.3686C101.893 25.9621 102.845 25.7588 103.915 25.7588H105.745V29.9316H103.434C102.257 29.9316 101.305 30.2954 100.577 31.023C99.8496 31.7291 99.4858 32.7349 99.4858 34.0402V43.4773H94.671Z" fill="black"/>
<path d="M107.68 24.3785V19.5637H112.495V24.3785H107.68ZM107.68 43.4773V25.9514H112.495V43.4773H107.68Z" fill="black"/>
<path d="M124.114 43.6698C121.996 43.6698 120.348 43.1028 119.171 41.9686C118.015 40.8131 117.438 39.2081 117.438 37.1538V30.1242H114.42V25.9514H114.645C116.507 25.9514 117.438 25.0526 117.438 23.2551V20.6872H122.253V25.9514H126.361V30.1242H122.253V37.1538C122.253 38.9299 123.248 39.818 125.238 39.818C125.537 39.818 125.912 39.7859 126.361 39.7217V43.5094C125.655 43.6164 124.906 43.6698 124.114 43.6698Z" fill="black"/>
<path d="M137.029 43.8624C135.296 43.8624 133.712 43.4666 132.278 42.6748C130.866 41.883 129.743 40.8024 128.908 39.4328C128.073 38.0419 127.656 36.469 127.656 34.7143C127.656 32.9382 128.073 31.3653 128.908 29.9958C129.743 28.6263 130.866 27.5456 132.278 26.7538C133.712 25.9621 135.296 25.5662 137.029 25.5662C138.762 25.5662 140.335 25.9621 141.747 26.7538C143.181 27.5456 144.315 28.6263 145.15 29.9958C145.984 31.3653 146.402 32.9382 146.402 34.7143C146.402 36.469 145.984 38.0419 145.15 39.4328C144.315 40.8024 143.181 41.883 141.747 42.6748C140.335 43.4666 138.762 43.8624 137.029 43.8624ZM137.029 39.5291C138.356 39.5291 139.415 39.0797 140.207 38.181C141.02 37.2822 141.426 36.1266 141.426 34.7143C141.426 33.3234 141.02 32.1785 140.207 31.2797C139.415 30.3596 138.356 29.8995 137.029 29.8995C135.724 29.8995 134.664 30.3596 133.851 31.2797C133.038 32.1785 132.631 33.3234 132.631 34.7143C132.631 36.1266 133.038 37.2822 133.851 38.181C134.664 39.0797 135.724 39.5291 137.029 39.5291Z" fill="black"/>
<path d="M148.649 43.4773V25.9514H153.143V28.0699C153.571 27.2353 154.17 26.6147 154.941 26.2082C155.733 25.7802 156.663 25.5662 157.733 25.5662C158.868 25.5662 159.884 25.8016 160.783 26.2723C161.682 26.7217 162.409 27.3851 162.965 28.2625C163.458 27.4493 164.175 26.7966 165.116 26.3044C166.058 25.8123 167.117 25.5662 168.294 25.5662C169.514 25.5662 170.594 25.8444 171.536 26.4007C172.477 26.9357 173.205 27.7061 173.719 28.7119C174.253 29.6962 174.521 30.8625 174.521 32.2106V43.4773H169.706V33.2378C169.706 32.1678 169.439 31.3439 168.904 30.7662C168.39 30.1884 167.705 29.8995 166.849 29.8995C165.993 29.8995 165.298 30.1884 164.763 30.7662C164.249 31.3439 163.993 32.1678 163.993 33.2378V43.4773H159.178V33.2378C159.178 32.1678 158.91 31.3439 158.375 30.7662C157.862 30.1884 157.177 29.8995 156.321 29.8995C155.465 29.8995 154.77 30.1884 154.235 30.7662C153.721 31.3439 153.464 32.1678 153.464 33.2378V43.4773H148.649Z" fill="black"/>
<path d="M29.8419 31.7895C29.8419 35.053 30.8096 38.2432 32.6227 40.9567C34.4358 43.6702 37.0129 45.7851 40.0279 47.034C43.043 48.2829 46.3607 48.6097 49.5615 47.973C52.7623 47.3363 55.7024 45.7648 58.0101 43.4571C60.3177 41.1495 61.8892 38.2094 62.5259 35.0086C63.1626 31.8078 62.8358 28.4901 61.5869 25.475C60.3381 22.4599 58.2231 19.8829 55.5096 18.0698C52.7961 16.2567 49.6059 15.289 46.3424 15.289L46.3424 31.7895L29.8419 31.7895Z" fill="url(#paint0_angular_1_277)"/>
</g>
<defs>
<radialGradient id="paint0_angular_1_277" cx="0" cy="0" r="1" gradientUnits="userSpaceOnUse" gradientTransform="translate(46.3424 31.7895) rotate(-90) scale(16.5005)">
<stop/>
<stop offset="1" stop-opacity="0"/>
</radialGradient>
</defs>
</svg>
