<svg width="200" height="64" viewBox="0 0 200 64" fill="none" xmlns="http://www.w3.org/2000/svg">
<rect width="200" height="64" fill="white"/>
<g opacity="0.3">
<circle cx="32.0548" cy="32.0547" r="16.0274" fill="black"/>
<circle cx="32.0548" cy="32.0548" r="8.4589" fill="black" stroke="white" stroke-width="4.45205"/>
</g>
<g opacity="0.3">
<path d="M66.5851 40.3177C72.2446 40.3177 75.6602 36.927 75.6602 31.7164C75.6602 26.5057 72.2446 23.115 66.5851 23.115C61.0503 23.115 57.6098 26.5057 57.6098 31.7164C57.6098 36.927 61.0503 40.3177 66.5851 40.3177ZM66.5851 36.7276C62.9202 36.7276 61.5739 35.4312 61.5739 31.7164C61.5739 28.0016 62.9202 26.7051 66.5851 26.7051C70.25 26.7051 71.6711 28.0016 71.6711 31.7164C71.6711 35.4312 70.25 36.7276 66.5851 36.7276Z" fill="black"/>
<path d="M85.8426 40.3177C91.0532 40.3177 94.3691 37.7249 94.3691 33.4865V33.1125H90.2056V33.4865C90.2056 35.6805 88.959 36.7276 85.9174 36.7276C82.2524 36.7276 80.8812 35.4312 80.8812 31.7164C80.8812 28.0016 82.2524 26.7051 85.9174 26.7051C88.959 26.7051 90.2056 27.7523 90.2056 29.9462V30.3202H94.3691V29.9462C94.3691 25.7079 91.0283 23.115 85.8426 23.115C80.3327 23.115 76.9171 26.5057 76.9171 31.7164C76.9171 36.927 80.3327 40.3177 85.8426 40.3177Z" fill="black"/>
<path d="M105.289 40.0684V26.7301H111.497V23.3643H95.3415V26.7301H101.549V40.0684H105.289Z" fill="black"/>
<path d="M121.439 40.3177C127.099 40.3177 130.514 36.927 130.514 31.7164C130.514 26.5057 127.099 23.115 121.439 23.115C115.905 23.115 112.464 26.5057 112.464 31.7164C112.464 36.927 115.905 40.3177 121.439 40.3177ZM121.439 36.7276C117.774 36.7276 116.428 35.4312 116.428 31.7164C116.428 28.0016 117.774 26.7051 121.439 26.7051C125.104 26.7051 126.525 28.0016 126.525 31.7164C126.525 35.4312 125.104 36.7276 121.439 36.7276Z" fill="black"/>
<path d="M135.885 40.0684V35.4561H140.871C144.736 35.4561 147.229 33.2372 147.229 29.3977C147.229 25.5583 144.736 23.3643 140.871 23.3643H132.145V40.0684H135.885ZM140.472 26.7301C142.542 26.7301 143.514 27.3533 143.514 29.3977C143.514 31.492 142.542 32.0903 140.472 32.0903H135.885V26.7301H140.472Z" fill="black"/>
<path d="M156.633 40.3177C162.093 40.3177 164.836 37.5753 164.836 33.0876V23.3643H161.096V32.8133C161.096 35.6555 160.049 36.6777 156.633 36.6777C153.242 36.6777 152.17 35.6555 152.17 32.8133V23.3643H148.431V33.0876C148.431 37.5753 151.198 40.3177 156.633 40.3177Z" fill="black"/>
<path d="M174.297 40.3177C179.608 40.3177 181.727 37.8744 181.727 35.1569C181.727 32.8632 180.381 31.0432 176.641 30.4449L171.954 29.6969C170.558 29.4476 170.009 29.0986 170.009 28.1262C170.009 27.0542 170.832 26.5306 173.525 26.5306C176.84 26.5306 177.663 27.2038 177.663 28.7994V29.1484H181.428V28.9988C181.428 25.4835 179.034 23.115 173.899 23.115C168.289 23.115 166.245 25.7577 166.245 28.2758C166.245 30.9933 168.015 32.4892 171.006 32.9629L175.694 33.6361C177.414 33.9353 177.987 34.3092 177.987 35.3314C177.987 36.4533 177.289 36.9021 174.297 36.9021C170.907 36.9021 170.134 36.2788 170.134 34.7331V34.2843H166.394V34.4339C166.394 38.3232 169.236 40.3177 174.297 40.3177Z" fill="black"/>
</g>
</svg>
