<svg width="200" height="64" viewBox="0 0 200 64" fill="none" xmlns="http://www.w3.org/2000/svg">
<rect width="200" height="64" fill="white"/>
<g opacity="0.3">
<path d="M73.017 19.5391C74.8009 19.5391 76.3495 19.8331 77.6628 20.4212C78.9958 21.0093 80.0152 21.8522 80.7209 22.9499C81.4266 24.0477 81.7794 25.3512 81.7794 26.8606C81.7794 28.3504 81.4266 29.654 80.7209 30.7714C80.0152 31.8691 78.9958 32.712 77.6628 33.3001C76.3495 33.8882 74.8009 34.1822 73.017 34.1822H68.3712V40.1218H64.5487V19.5391H73.017ZM72.8406 30.9478C74.5068 30.9478 75.7712 30.5949 76.6337 29.8892C77.4962 29.1836 77.9275 28.174 77.9275 26.8606C77.9275 25.5473 77.4962 24.5377 76.6337 23.832C75.7712 23.1263 74.5068 22.7735 72.8406 22.7735H68.3712V30.9478H72.8406Z" fill="black"/>
<path d="M91.5082 40.3276C89.9204 40.3276 88.4894 39.9846 87.2152 39.2985C85.9411 38.6124 84.9413 37.6617 84.216 36.4463C83.5103 35.2114 83.1575 33.8196 83.1575 32.271C83.1575 30.7224 83.5103 29.3404 84.216 28.125C84.9413 26.9096 85.9411 25.9589 87.2152 25.2728C88.4894 24.5867 89.9204 24.2437 91.5082 24.2437C93.1156 24.2437 94.5564 24.5867 95.8306 25.2728C97.1047 25.9589 98.0947 26.9096 98.8004 28.125C99.5257 29.3404 99.8883 30.7224 99.8883 32.271C99.8883 33.8196 99.5257 35.2114 98.8004 36.4463C98.0947 37.6617 97.1047 38.6124 95.8306 39.2985C94.5564 39.9846 93.1156 40.3276 91.5082 40.3276ZM91.5082 37.1814C92.8608 37.1814 93.9781 36.7306 94.8602 35.8288C95.7424 34.9271 96.1834 33.7412 96.1834 32.271C96.1834 30.8008 95.7424 29.6148 94.8602 28.7131C93.9781 27.8114 92.8608 27.3605 91.5082 27.3605C90.1556 27.3605 89.0383 27.8114 88.1561 28.7131C87.2936 29.6148 86.8624 30.8008 86.8624 32.271C86.8624 33.7412 87.2936 34.9271 88.1561 35.8288C89.0383 36.7306 90.1556 37.1814 91.5082 37.1814Z" fill="black"/>
<path d="M111.371 24.2437C112.9 24.2437 114.263 24.5769 115.459 25.2434C116.674 25.9099 117.625 26.8508 118.311 28.0662C118.997 29.2816 119.34 30.6832 119.34 32.271C119.34 33.8588 118.997 35.2702 118.311 36.5051C117.625 37.7205 116.674 38.6614 115.459 39.3279C114.263 39.9944 112.9 40.3276 111.371 40.3276C109.254 40.3276 107.578 39.6219 106.343 38.2106V45.8262H102.668V24.4201H106.167V26.4784C106.775 25.7335 107.52 25.1748 108.402 24.8024C109.303 24.4299 110.293 24.2437 111.371 24.2437ZM110.96 37.1814C112.312 37.1814 113.42 36.7306 114.282 35.8288C115.165 34.9271 115.606 33.7412 115.606 32.271C115.606 30.8008 115.165 29.6148 114.282 28.7131C113.42 27.8114 112.312 27.3605 110.96 27.3605C110.078 27.3605 109.284 27.5663 108.578 27.978C107.872 28.37 107.314 28.9385 106.902 29.6834C106.49 30.4283 106.285 31.2908 106.285 32.271C106.285 33.2511 106.49 34.1136 106.902 34.8585C107.314 35.6034 107.872 36.1817 108.578 36.5933C109.284 36.9854 110.078 37.1814 110.96 37.1814Z" fill="black"/>
<path d="M130.794 24.2437C132.323 24.2437 133.686 24.5769 134.881 25.2434C136.097 25.9099 137.047 26.8508 137.733 28.0662C138.42 29.2816 138.763 30.6832 138.763 32.271C138.763 33.8588 138.42 35.2702 137.733 36.5051C137.047 37.7205 136.097 38.6614 134.881 39.3279C133.686 39.9944 132.323 40.3276 130.794 40.3276C128.677 40.3276 127.001 39.6219 125.766 38.2106V45.8262H122.091V24.4201H125.59V26.4784C126.197 25.7335 126.942 25.1748 127.824 24.8024C128.726 24.4299 129.716 24.2437 130.794 24.2437ZM130.382 37.1814C131.735 37.1814 132.843 36.7306 133.705 35.8288C134.587 34.9271 135.028 33.7412 135.028 32.271C135.028 30.8008 134.587 29.6148 133.705 28.7131C132.843 27.8114 131.735 27.3605 130.382 27.3605C129.5 27.3605 128.706 27.5663 128.001 27.978C127.295 28.37 126.736 28.9385 126.325 29.6834C125.913 30.4283 125.707 31.2908 125.707 32.271C125.707 33.2511 125.913 34.1136 126.325 34.8585C126.736 35.6034 127.295 36.1817 128.001 36.5933C128.706 36.9854 129.5 37.1814 130.382 37.1814Z" fill="black"/>
<path d="M148.982 37.2108C150.687 37.2108 152.108 36.6423 153.245 35.5054L155.186 37.7695C154.5 38.6124 153.618 39.2495 152.54 39.6808C151.462 40.112 150.246 40.3276 148.894 40.3276C147.169 40.3276 145.649 39.9846 144.336 39.2985C143.023 38.6124 142.003 37.6617 141.278 36.4463C140.572 35.2114 140.219 33.8196 140.219 32.271C140.219 30.742 140.563 29.3698 141.249 28.1544C141.954 26.9194 142.915 25.9589 144.13 25.2728C145.365 24.5867 146.757 24.2437 148.306 24.2437C149.776 24.2437 151.109 24.5671 152.304 25.214C153.52 25.8413 154.48 26.7528 155.186 27.9486C155.892 29.1247 156.245 30.5067 156.245 32.0945L144.218 34.4469C144.591 35.3486 145.189 36.0347 146.012 36.5051C146.835 36.9756 147.825 37.2108 148.982 37.2108ZM148.306 27.1841C146.953 27.1841 145.855 27.6251 145.012 28.5073C144.189 29.3894 143.777 30.5753 143.777 32.0651V32.0945L152.657 30.3891C152.402 29.4286 151.883 28.6543 151.099 28.0662C150.334 27.4781 149.403 27.1841 148.306 27.1841Z" fill="black"/>
<path d="M162.54 26.7136C163.598 25.067 165.461 24.2437 168.127 24.2437V27.7428C167.813 27.684 167.529 27.6545 167.274 27.6545C165.843 27.6545 164.725 28.076 163.922 28.9189C163.118 29.7422 162.716 30.938 162.716 32.5062V40.1218H159.041V24.4201H162.54V26.7136Z" fill="black"/>
<path d="M175.418 40.3276C174.144 40.3276 172.9 40.161 171.684 39.8278C170.469 39.4945 169.499 39.0731 168.773 38.5634L170.185 35.77C170.89 36.2405 171.733 36.6227 172.713 36.9168C173.713 37.1912 174.693 37.3284 175.654 37.3284C177.849 37.3284 178.947 36.7502 178.947 35.5936C178.947 35.0447 178.663 34.6625 178.094 34.4469C177.545 34.2312 176.653 34.0254 175.418 33.8294C174.125 33.6333 173.066 33.4079 172.243 33.1531C171.439 32.8982 170.733 32.4572 170.126 31.8299C169.538 31.183 169.244 30.2911 169.244 29.1541C169.244 27.6643 169.861 26.4784 171.096 25.5963C172.351 24.6946 174.037 24.2437 176.154 24.2437C177.232 24.2437 178.31 24.3711 179.388 24.6259C180.466 24.8612 181.348 25.1846 182.034 25.5963L180.623 28.3896C179.29 27.6055 177.79 27.2135 176.124 27.2135C175.046 27.2135 174.223 27.3801 173.654 27.7134C173.105 28.027 172.831 28.4485 172.831 28.9777C172.831 29.5658 173.125 29.9873 173.713 30.2421C174.321 30.4773 175.252 30.7028 176.506 30.9184C177.761 31.1144 178.79 31.3398 179.594 31.5947C180.398 31.8495 181.084 32.2808 181.652 32.8884C182.24 33.4961 182.534 34.3586 182.534 35.476C182.534 36.9462 181.897 38.1223 180.623 39.0045C179.349 39.8866 177.614 40.3276 175.418 40.3276Z" fill="black"/>
<path d="M40.6136 14.2466C36.4545 14.2466 32.4657 15.8989 29.5247 18.8398C26.5837 21.7808 24.9315 25.7696 24.9315 29.9287C24.9315 34.0879 26.5837 38.0767 29.5247 41.0177C32.4657 43.9586 36.4545 45.6108 40.6136 45.6108L40.6136 29.9287L40.6136 14.2466Z" fill="black"/>
<path d="M53.1593 19.7354C50.4558 19.7354 47.8631 20.8093 45.9515 22.7209C44.0399 24.6325 42.9659 27.2253 42.9659 29.9287C42.9659 32.6322 44.0399 35.2249 45.9515 37.1365C47.8631 39.0481 50.4558 40.1221 53.1593 40.1221L53.1593 29.9287L53.1593 19.7354Z" fill="black"/>
</g>
</svg>
