<svg width="200" height="64" viewBox="0 0 200 64" fill="none" xmlns="http://www.w3.org/2000/svg">
<rect width="200" height="64" fill="white"/>
<g opacity="0.3">
<path d="M50.7785 43.2856C52.8278 43.2856 54.5966 42.8709 56.0849 42.0414C57.5975 41.2119 58.7686 40.0408 59.5981 38.5282C60.4276 36.9911 60.8423 35.1857 60.8423 33.112V16.1315H55.17V26.1222H55.0602C54.4991 25.3414 53.7427 24.7315 52.7912 24.2924C51.8641 23.8532 50.8395 23.6336 49.7172 23.6336C47.9606 23.6336 46.3992 24.0362 45.0329 24.8413C43.6911 25.6464 42.6298 26.7687 41.8491 28.2081C41.0928 29.6232 40.7146 31.27 40.7146 33.1486C40.7146 35.1003 41.1172 36.8448 41.9223 38.3818C42.7274 39.9188 43.874 41.1265 45.3623 42.0048C46.8749 42.8587 48.6803 43.2856 50.7785 43.2856ZM50.7785 38.3818C49.4854 38.3818 48.4485 37.9182 47.6678 36.9911C46.8871 36.0396 46.4968 34.8686 46.4968 33.4779C46.4968 32.1117 46.8871 30.965 47.6678 30.0379C48.4485 29.0864 49.4854 28.6107 50.7785 28.6107C52.0959 28.6107 53.1328 29.0864 53.8891 30.0379C54.6698 30.965 55.0602 32.1117 55.0602 33.4779C55.0602 34.8686 54.6698 36.0396 53.8891 36.9911C53.1328 37.9182 52.0959 38.3818 50.7785 38.3818Z" fill="black"/>
<path d="M74.2985 43.2856C72.3711 43.2856 70.6999 42.9197 69.2848 42.1877C67.8942 41.4314 66.8207 40.4189 66.0644 39.1503C65.3081 37.8572 64.9299 36.43 64.9299 34.8686V24.0728H70.6023V34.7222C70.6023 35.6981 70.9439 36.552 71.627 37.2839C72.3345 37.9914 73.2128 38.3452 74.2619 38.3452C75.2866 38.3452 76.1405 37.9914 76.8236 37.2839C77.5311 36.552 77.8849 35.6981 77.8849 34.7222V24.0728H83.5572V34.8686C83.5572 36.43 83.1913 37.8572 82.4594 39.1503C81.7274 40.4189 80.6662 41.4314 79.2755 42.1877C77.8849 42.9197 76.2259 43.2856 74.2985 43.2856Z" fill="black"/>
<path d="M87.8024 42.8465V16.1315H93.4747V42.8465H87.8024Z" fill="black"/>
<path d="M105.205 43.2856C103.521 43.2856 102.045 42.8587 100.777 42.0048C99.5325 41.1509 98.5566 40.0042 97.8491 38.5648C97.1416 37.1009 96.7878 35.4541 96.7878 33.6243C96.7878 31.7213 97.1904 30.0257 97.9955 28.5375C98.825 27.0249 99.996 25.8294 101.509 24.9511C103.046 24.0728 104.863 23.6336 106.961 23.6336C109.06 23.6336 110.841 24.0728 112.304 24.9511C113.793 25.8294 114.927 27.0127 115.708 28.5009C116.513 29.9891 116.916 31.6603 116.916 33.5145V42.8465H111.353V39.8456H111.207C110.67 40.8215 109.926 41.6388 108.974 42.2975C108.023 42.9563 106.766 43.2856 105.205 43.2856ZM106.888 38.3818C108.181 38.3818 109.206 37.9182 109.962 36.9911C110.743 36.0396 111.133 34.8564 111.133 33.4413C111.133 32.0995 110.743 30.965 109.962 30.0379C109.206 29.0864 108.181 28.6107 106.888 28.6107C105.546 28.6107 104.485 29.0864 103.704 30.0379C102.948 30.965 102.57 32.0995 102.57 33.4413C102.57 34.832 102.948 36.003 103.704 36.9545C104.485 37.906 105.546 38.3818 106.888 38.3818Z" fill="black"/>
<path d="M121.11 42.8465V16.1315H126.783V42.8465H121.11Z" fill="black"/>
<path d="M130.974 42.8465V24.0728H136.683V42.8465H130.974ZM133.829 21.9502C132.926 21.9502 132.145 21.6209 131.486 20.9621C130.828 20.3034 130.498 19.5227 130.498 18.62C130.498 17.6929 130.828 16.9 131.486 16.2413C132.145 15.5825 132.926 15.2532 133.829 15.2532C134.756 15.2532 135.536 15.5825 136.171 16.2413C136.829 16.9 137.159 17.6929 137.159 18.62C137.159 19.5227 136.829 20.3034 136.171 20.9621C135.536 21.6209 134.756 21.9502 133.829 21.9502Z" fill="black"/>
<path d="M139.447 42.8465L145.156 34.649C143.668 33.8927 142.533 32.8924 141.753 31.6481C140.972 30.3795 140.582 28.9522 140.582 27.3664V24.0728H146.254V27.0736C146.254 27.9519 146.498 28.7205 146.986 29.3792C147.498 30.0135 148.133 30.4405 148.889 30.66L153.207 24.0728H159.611L154.195 31.9409C155.854 32.624 157.123 33.6365 158.001 34.9784C158.904 36.3202 159.355 37.8328 159.355 39.5162V42.8465H153.646V39.6992C153.646 38.7233 153.317 37.8938 152.658 37.2107C152 36.5032 151.219 36.1006 150.316 36.003L145.815 42.8465H139.447Z" fill="black"/>
</g>
</svg>
