<svg width="144" height="32" viewBox="0 0 144 32" fill="none" xmlns="http://www.w3.org/2000/svg">
<path d="M49.48 8.12V4.7H48.73C44.83 4.7 42.79 6.77 42.79 10.76V12.14H40.48V15.23H42.79V26H46.45V15.23H49.3V12.14H46.45V10.76C46.45 8.75 47.38 8.12 49.06 8.12H49.48ZM51.2252 5.18V9.23H55.4252V5.18H51.2252ZM55.1552 26V12.14H51.4652V26H55.1552ZM64.315 26.45C66.565 26.45 68.065 25.49 68.935 24.05H68.995V26H72.655V12.14H68.995V14.09H68.935C68.065 12.65 66.565 11.69 64.315 11.69C60.685 11.69 57.655 14.33 57.655 19.07C57.655 23.81 60.685 26.45 64.315 26.45ZM65.245 22.97C63.025 22.97 61.495 21.41 61.495 19.07C61.495 16.73 63.025 15.17 65.245 15.17C67.465 15.17 68.995 16.73 68.995 19.07C68.995 21.41 67.465 22.97 65.245 22.97ZM84.0588 11.69C82.0188 11.69 80.4588 12.65 79.5288 14.24H79.4688V12.14H75.8388V26H79.4988V19.22C79.4988 16.22 80.8488 15.11 82.7388 15.11C84.5388 15.11 85.5888 16.07 85.5888 18.32V26H89.2788V17.45C89.2788 13.37 87.0588 11.69 84.0588 11.69ZM99.1722 26.45C101.062 26.45 102.592 25.97 104.032 25.07L102.442 22.04C101.542 22.61 100.492 23 99.2322 23C96.9522 23 95.3022 21.41 95.3022 19.07C95.3022 16.73 96.9522 15.14 99.2322 15.14C100.492 15.14 101.542 15.53 102.442 16.1L104.032 13.07C102.592 12.17 101.062 11.69 99.1722 11.69C94.7022 11.69 91.5222 14.63 91.5222 19.07C91.5222 23.51 94.7022 26.45 99.1722 26.45ZM111.642 11.69C107.292 11.69 104.442 14.69 104.442 19.1C104.442 23.51 107.382 26.45 111.912 26.45C114.822 26.45 116.682 25.1 117.912 23.96L116.052 21.29C115.272 22.07 113.892 23.18 111.912 23.18C109.782 23.18 108.222 21.95 108.012 19.82H118.362V19.1C118.362 14.36 115.842 11.69 111.642 11.69ZM111.462 14.66C113.262 14.66 114.522 15.68 114.642 17.45H108.102C108.402 15.53 109.692 14.66 111.462 14.66ZM127.532 11.69C123.122 11.69 119.852 14.72 119.852 19.07C119.852 23.42 123.122 26.45 127.532 26.45C131.942 26.45 135.212 23.42 135.212 19.07C135.212 14.72 131.942 11.69 127.532 11.69ZM127.532 15.17C129.782 15.17 131.402 16.7 131.402 19.07C131.402 21.44 129.782 22.97 127.532 22.97C125.282 22.97 123.632 21.44 123.632 19.07C123.632 16.7 125.282 15.17 127.532 15.17Z" fill="black"/>
<path d="M137.447 21.83V26H141.587V21.83H137.447Z" fill="#00B3FF"/>
<mask id="mask0_1_298" style="mask-type:alpha" maskUnits="userSpaceOnUse" x="0" y="2" width="28" height="28">
<rect y="2" width="28" height="28" fill="#C4C4C4"/>
</mask>
<g mask="url(#mask0_1_298)">
<path d="M28 2C24.287 2 20.726 3.475 18.1005 6.1005C15.475 8.72601 14 12.287 14 16C14 19.713 15.475 23.274 18.1005 25.8995C20.726 28.525 24.287 30 28 30L28 16L28 2Z" fill="black"/>
<mask id="path-4-inside-1_1_298" fill="white">
<path d="M-1.22392e-06 30C3.71303 30 7.27398 28.525 9.89949 25.8995C12.525 23.274 14 19.713 14 16C14 12.287 12.525 8.72602 9.8995 6.10051C7.27399 3.475 3.71303 2 2.11394e-06 2L-6.11959e-07 16L-1.22392e-06 30Z"/>
</mask>
<path d="M-1.22392e-06 30C3.71303 30 7.27398 28.525 9.89949 25.8995C12.525 23.274 14 19.713 14 16C14 12.287 12.525 8.72602 9.8995 6.10051C7.27399 3.475 3.71303 2 2.11394e-06 2L-6.11959e-07 16L-1.22392e-06 30Z" fill="white" stroke="black" stroke-width="1.75" mask="url(#path-4-inside-1_1_298)"/>
</g>
</svg>
