<svg width="353" height="328" viewBox="0 0 353 328" fill="none" xmlns="http://www.w3.org/2000/svg">
<g filter="url(#filter0_d_1_194)">
<path d="M33 56H293V294H33V56Z" fill="white"/>
</g>
<path d="M62.14 96.2401L57.2 87.3801H60.06L62.94 92.7001C63.0467 92.9001 63.14 93.0868 63.22 93.2601C63.3 93.4335 63.38 93.6068 63.46 93.7801C63.5267 93.6601 63.58 93.5468 63.62 93.4401C63.66 93.3335 63.7067 93.2268 63.76 93.1201C63.8267 93.0001 63.9 92.8601 63.98 92.7001L66.84 87.3801H69.62L64.7 96.2401V102H62.14V96.2401Z" fill="black"/>
<path d="M68.4027 97.0401C68.4027 96.0134 68.6293 95.1135 69.0827 94.3401C69.536 93.5535 70.1627 92.9401 70.9627 92.5001C71.7627 92.0601 72.6693 91.8401 73.6827 91.8401C74.7093 91.8401 75.616 92.0601 76.4027 92.5001C77.2027 92.9401 77.8293 93.5535 78.2827 94.3401C78.736 95.1135 78.9627 96.0134 78.9627 97.0401C78.9627 98.0668 78.736 98.9735 78.2827 99.7601C77.8293 100.533 77.2027 101.14 76.4027 101.58C75.616 102.02 74.7093 102.24 73.6827 102.24C72.6693 102.24 71.7627 102.02 70.9627 101.58C70.1627 101.14 69.536 100.533 69.0827 99.7601C68.6293 98.9735 68.4027 98.0668 68.4027 97.0401ZM70.8427 97.0401C70.8427 97.6401 70.9627 98.1668 71.2027 98.6201C71.456 99.0735 71.7893 99.4268 72.2027 99.6801C72.6293 99.9335 73.1227 100.06 73.6827 100.06C74.2427 100.06 74.736 99.9335 75.1627 99.6801C75.5893 99.4268 75.9227 99.0735 76.1627 98.6201C76.4027 98.1668 76.5227 97.6401 76.5227 97.0401C76.5227 96.4268 76.4027 95.9001 76.1627 95.4601C75.9227 95.0068 75.5893 94.6535 75.1627 94.4001C74.736 94.1468 74.2427 94.0201 73.6827 94.0201C73.1227 94.0201 72.6293 94.1468 72.2027 94.4001C71.7893 94.6535 71.456 95.0068 71.2027 95.4601C70.9627 95.9001 70.8427 96.4268 70.8427 97.0401Z" fill="black"/>
<path d="M87.3624 92.1201H89.8024V102H87.5424L87.3624 100.68C87.069 101.147 86.629 101.527 86.0424 101.82C85.4557 102.113 84.829 102.26 84.1624 102.26C83.029 102.26 82.1424 101.9 81.5024 101.18C80.8624 100.46 80.5424 99.5001 80.5424 98.3001V92.1201H82.9824V97.4401C82.9824 98.3735 83.1624 99.0468 83.5224 99.4601C83.8824 99.8734 84.4024 100.08 85.0824 100.08C85.8557 100.08 86.429 99.8535 86.8024 99.4001C87.1757 98.9335 87.3624 98.2334 87.3624 97.3001V92.1201Z" fill="black"/>
<path d="M98.5225 92.0801V94.3401H97.6225C96.7292 94.3401 96.0292 94.5801 95.5225 95.0601C95.0158 95.5268 94.7625 96.2401 94.7625 97.2001V102H92.3225V92.1401H94.6225L94.8225 94.1801H94.5825C94.7158 93.5268 95.0292 92.9935 95.5225 92.5801C96.0158 92.1668 96.6558 91.9601 97.4425 91.9601C97.6158 91.9601 97.7892 91.9668 97.9625 91.9801C98.1358 91.9935 98.3225 92.0268 98.5225 92.0801Z" fill="black"/>
<path d="M112.325 89.5401C111.365 89.5401 110.545 89.7601 109.865 90.2001C109.185 90.6401 108.665 91.2534 108.305 92.0401C107.945 92.8134 107.765 93.7334 107.765 94.8001C107.765 95.8801 107.958 96.8001 108.345 97.5601C108.731 98.3068 109.265 98.8735 109.945 99.2601C110.638 99.6468 111.431 99.8401 112.325 99.8401C112.978 99.8401 113.551 99.7601 114.045 99.6001C114.551 99.4268 114.978 99.1801 115.325 98.8601C115.671 98.5268 115.938 98.1268 116.125 97.6601C116.325 97.1935 116.425 96.6735 116.425 96.1001V94.8201L117.625 96.0401H112.005V93.7801H118.805V102H116.645L116.425 99.6401L116.725 99.9401C116.511 100.38 116.171 100.773 115.705 101.12C115.251 101.467 114.711 101.74 114.085 101.94C113.458 102.127 112.778 102.22 112.045 102.22C110.685 102.22 109.478 101.913 108.425 101.3C107.385 100.673 106.565 99.8001 105.965 98.6801C105.378 97.5601 105.085 96.2468 105.085 94.7401C105.085 93.2601 105.385 91.9535 105.985 90.8201C106.598 89.6734 107.451 88.7735 108.545 88.1201C109.651 87.4668 110.931 87.1401 112.385 87.1401C113.505 87.1401 114.518 87.3468 115.425 87.7601C116.331 88.1601 117.071 88.7268 117.645 89.4601C118.231 90.1934 118.591 91.0601 118.725 92.0601H116.025C115.798 91.1934 115.345 90.5601 114.665 90.1601C113.985 89.7468 113.205 89.5401 112.325 89.5401Z" fill="black"/>
<path d="M120.61 97.0401C120.61 96.0134 120.836 95.1135 121.29 94.3401C121.743 93.5535 122.37 92.9401 123.17 92.5001C123.97 92.0601 124.876 91.8401 125.89 91.8401C126.916 91.8401 127.823 92.0601 128.61 92.5001C129.41 92.9401 130.036 93.5535 130.49 94.3401C130.943 95.1135 131.17 96.0134 131.17 97.0401C131.17 98.0668 130.943 98.9735 130.49 99.7601C130.036 100.533 129.41 101.14 128.61 101.58C127.823 102.02 126.916 102.24 125.89 102.24C124.876 102.24 123.97 102.02 123.17 101.58C122.37 101.14 121.743 100.533 121.29 99.7601C120.836 98.9735 120.61 98.0668 120.61 97.0401ZM123.05 97.0401C123.05 97.6401 123.17 98.1668 123.41 98.6201C123.663 99.0735 123.996 99.4268 124.41 99.6801C124.836 99.9335 125.33 100.06 125.89 100.06C126.45 100.06 126.943 99.9335 127.37 99.6801C127.796 99.4268 128.13 99.0735 128.37 98.6201C128.61 98.1668 128.73 97.6401 128.73 97.0401C128.73 96.4268 128.61 95.9001 128.37 95.4601C128.13 95.0068 127.796 94.6535 127.37 94.4001C126.943 94.1468 126.45 94.0201 125.89 94.0201C125.33 94.0201 124.836 94.1468 124.41 94.4001C123.996 94.6535 123.663 95.0068 123.41 95.4601C123.17 95.9001 123.05 96.4268 123.05 97.0401Z" fill="black"/>
<path d="M136.044 102.26C135.004 102.26 134.177 101.98 133.564 101.42C132.964 100.847 132.664 100.1 132.664 99.1801C132.664 98.2735 132.977 97.5535 133.604 97.0201C134.244 96.4735 135.15 96.1535 136.324 96.0601L139.284 95.8201V95.6001C139.284 95.1468 139.197 94.7868 139.024 94.5201C138.864 94.2401 138.63 94.0401 138.324 93.9201C138.017 93.7868 137.657 93.7201 137.244 93.7201C136.524 93.7201 135.97 93.8668 135.584 94.1601C135.197 94.4401 135.004 94.8401 135.004 95.3601H132.924C132.924 94.6401 133.104 94.0201 133.464 93.5001C133.837 92.9668 134.357 92.5534 135.024 92.2601C135.704 91.9668 136.484 91.8201 137.364 91.8201C138.257 91.8201 139.024 91.9801 139.664 92.3001C140.304 92.6068 140.797 93.0735 141.144 93.7001C141.49 94.3135 141.664 95.0801 141.664 96.0001V102H139.524L139.344 100.54C139.13 101.047 138.717 101.46 138.104 101.78C137.504 102.1 136.817 102.26 136.044 102.26ZM136.824 100.42C137.584 100.42 138.184 100.207 138.624 99.7801C139.077 99.3535 139.304 98.7601 139.304 98.0001V97.4801L137.244 97.6401C136.484 97.7068 135.944 97.8668 135.624 98.1201C135.304 98.3601 135.144 98.6801 135.144 99.0801C135.144 99.5201 135.29 99.8535 135.584 100.08C135.877 100.307 136.29 100.42 136.824 100.42Z" fill="black"/>
<path d="M146.521 102H144.101V87.1201H146.521V102Z" fill="black"/>
<path d="M148.32 99.0001H150.64C150.654 99.4268 150.814 99.7668 151.12 100.02C151.427 100.273 151.854 100.4 152.4 100.4C152.987 100.4 153.427 100.293 153.72 100.08C154.027 99.8668 154.18 99.5801 154.18 99.2201C154.18 98.9801 154.1 98.7668 153.94 98.5801C153.78 98.3935 153.48 98.2535 153.04 98.1601L151.26 97.7401C150.367 97.5401 149.7 97.2201 149.26 96.7801C148.834 96.3268 148.62 95.7068 148.62 94.9201C148.62 94.2801 148.787 93.7268 149.12 93.2601C149.467 92.7935 149.934 92.4401 150.52 92.2001C151.107 91.9468 151.78 91.8201 152.54 91.8201C153.274 91.8201 153.92 91.9535 154.48 92.2201C155.04 92.4868 155.474 92.8601 155.78 93.3401C156.1 93.8201 156.267 94.3801 156.28 95.0201H153.96C153.96 94.5935 153.827 94.2601 153.56 94.0201C153.294 93.7668 152.92 93.6401 152.44 93.6401C151.96 93.6401 151.587 93.7468 151.32 93.9601C151.054 94.1735 150.92 94.4601 150.92 94.8201C150.92 95.3668 151.347 95.7401 152.2 95.9401L153.98 96.3601C154.807 96.5468 155.427 96.8468 155.84 97.2601C156.267 97.6735 156.48 98.2601 156.48 99.0201C156.48 99.6868 156.307 100.267 155.96 100.76C155.614 101.24 155.127 101.613 154.5 101.88C153.874 102.133 153.154 102.26 152.34 102.26C151.114 102.26 150.134 101.96 149.4 101.36C148.68 100.76 148.32 99.9735 148.32 99.0001Z" fill="black"/>
<path d="M57 130H269V194H57V130Z" fill="white"/>
<path fill-rule="evenodd" clip-rule="evenodd" d="M268 131H58V193H268V131ZM57 130V194H269V130H57Z" fill="#E5E5E5"/>
<path d="M57 206H269V270H57V206Z" fill="white"/>
<path fill-rule="evenodd" clip-rule="evenodd" d="M268 207H58V269H268V207ZM57 206V270H269V206H57Z" fill="#E5E5E5"/>
<path d="M128.344 148.304V160H126.296V148.304H128.344ZM130.936 155.024H127.72V153.296H130.824C131.389 153.296 131.821 153.157 132.12 152.88C132.419 152.592 132.568 152.187 132.568 151.664C132.568 151.163 132.413 150.779 132.104 150.512C131.795 150.245 131.347 150.112 130.76 150.112H127.656V148.304H130.936C132.099 148.304 133.011 148.587 133.672 149.152C134.333 149.717 134.664 150.491 134.664 151.472C134.664 152.176 134.493 152.768 134.152 153.248C133.811 153.717 133.304 154.059 132.632 154.272V154.048C133.357 154.219 133.907 154.539 134.28 155.008C134.653 155.477 134.84 156.085 134.84 156.832C134.84 157.493 134.691 158.064 134.392 158.544C134.093 159.013 133.656 159.376 133.08 159.632C132.515 159.877 131.832 160 131.032 160H127.656V158.192H130.936C131.523 158.192 131.971 158.053 132.28 157.776C132.589 157.499 132.744 157.099 132.744 156.576C132.744 156.085 132.584 155.707 132.264 155.44C131.955 155.163 131.512 155.024 130.936 155.024Z" fill="black"/>
<path d="M138.782 160.208C137.95 160.208 137.289 159.984 136.798 159.536C136.318 159.077 136.078 158.48 136.078 157.744C136.078 157.019 136.329 156.443 136.83 156.016C137.342 155.579 138.067 155.323 139.006 155.248L141.374 155.056V154.88C141.374 154.517 141.305 154.229 141.166 154.016C141.038 153.792 140.851 153.632 140.606 153.536C140.361 153.429 140.073 153.376 139.742 153.376C139.166 153.376 138.723 153.493 138.414 153.728C138.105 153.952 137.95 154.272 137.95 154.688H136.286C136.286 154.112 136.43 153.616 136.718 153.2C137.017 152.773 137.433 152.443 137.966 152.208C138.51 151.973 139.134 151.856 139.838 151.856C140.553 151.856 141.166 151.984 141.678 152.24C142.19 152.485 142.585 152.859 142.862 153.36C143.139 153.851 143.278 154.464 143.278 155.2V160H141.566L141.422 158.832C141.251 159.237 140.921 159.568 140.43 159.824C139.95 160.08 139.401 160.208 138.782 160.208ZM139.406 158.736C140.014 158.736 140.494 158.565 140.846 158.224C141.209 157.883 141.39 157.408 141.39 156.8V156.384L139.742 156.512C139.134 156.565 138.702 156.693 138.446 156.896C138.19 157.088 138.062 157.344 138.062 157.664C138.062 158.016 138.179 158.283 138.414 158.464C138.649 158.645 138.979 158.736 139.406 158.736Z" fill="black"/>
<path d="M147.164 160H145.228V148.096H147.164V160Z" fill="black"/>
<path d="M149.211 160V152.096H151.163V160H149.211ZM150.171 150.512C149.84 150.512 149.558 150.4 149.323 150.176C149.099 149.941 148.987 149.659 148.987 149.328C148.987 148.997 149.099 148.72 149.323 148.496C149.558 148.272 149.84 148.16 150.171 148.16C150.502 148.16 150.779 148.272 151.003 148.496C151.238 148.72 151.355 148.997 151.355 149.328C151.355 149.659 151.238 149.941 151.003 150.176C150.779 150.4 150.502 150.512 150.171 150.512Z" fill="black"/>
<path d="M162.228 149.28V160H160.18V149.28H162.228ZM156.756 150.192V148.304H165.652V150.192H156.756Z" fill="black"/>
<path d="M165.122 156.032C165.122 155.211 165.303 154.491 165.666 153.872C166.029 153.243 166.53 152.752 167.17 152.4C167.81 152.048 168.535 151.872 169.346 151.872C170.167 151.872 170.893 152.048 171.522 152.4C172.162 152.752 172.663 153.243 173.026 153.872C173.389 154.491 173.57 155.211 173.57 156.032C173.57 156.853 173.389 157.579 173.026 158.208C172.663 158.827 172.162 159.312 171.522 159.664C170.893 160.016 170.167 160.192 169.346 160.192C168.535 160.192 167.81 160.016 167.17 159.664C166.53 159.312 166.029 158.827 165.666 158.208C165.303 157.579 165.122 156.853 165.122 156.032ZM167.074 156.032C167.074 156.512 167.17 156.933 167.362 157.296C167.565 157.659 167.831 157.941 168.162 158.144C168.503 158.347 168.898 158.448 169.346 158.448C169.794 158.448 170.189 158.347 170.53 158.144C170.871 157.941 171.138 157.659 171.33 157.296C171.522 156.933 171.618 156.512 171.618 156.032C171.618 155.541 171.522 155.12 171.33 154.768C171.138 154.405 170.871 154.123 170.53 153.92C170.189 153.717 169.794 153.616 169.346 153.616C168.898 153.616 168.503 153.717 168.162 153.92C167.831 154.123 167.565 154.405 167.362 154.768C167.17 155.12 167.074 155.541 167.074 156.032Z" fill="black"/>
<path d="M180.29 152.096H182.242V160H180.434L180.29 158.944C180.055 159.317 179.703 159.621 179.234 159.856C178.765 160.091 178.263 160.208 177.73 160.208C176.823 160.208 176.114 159.92 175.602 159.344C175.09 158.768 174.834 158 174.834 157.04V152.096H176.786V156.352C176.786 157.099 176.93 157.637 177.218 157.968C177.506 158.299 177.922 158.464 178.466 158.464C179.085 158.464 179.543 158.283 179.842 157.92C180.141 157.547 180.29 156.987 180.29 156.24V152.096Z" fill="black"/>
<path d="M189.218 152.064V153.872H188.498C187.783 153.872 187.223 154.064 186.818 154.448C186.413 154.821 186.21 155.392 186.21 156.16V160H184.258V152.112H186.098L186.258 153.744H186.066C186.173 153.221 186.423 152.795 186.818 152.464C187.213 152.133 187.725 151.968 188.354 151.968C188.493 151.968 188.631 151.973 188.77 151.984C188.909 151.995 189.058 152.021 189.218 152.064Z" fill="black"/>
<path d="M126.908 170.408V179H126.044V170.408H126.908ZM126.188 179V178.208H130.856V179H126.188Z" fill="black" fill-opacity="0.6"/>
<path d="M133.637 179.144C133.021 179.144 132.537 178.984 132.185 178.664C131.841 178.344 131.669 177.932 131.669 177.428C131.669 176.892 131.861 176.464 132.245 176.144C132.629 175.824 133.161 175.636 133.841 175.58L135.761 175.424V175.232C135.761 174.848 135.693 174.548 135.557 174.332C135.421 174.108 135.237 173.952 135.005 173.864C134.773 173.776 134.513 173.732 134.225 173.732C133.713 173.732 133.317 173.84 133.037 174.056C132.757 174.272 132.617 174.576 132.617 174.968H131.861C131.861 174.576 131.961 174.236 132.161 173.948C132.361 173.66 132.641 173.436 133.001 173.276C133.361 173.116 133.777 173.036 134.249 173.036C134.705 173.036 135.105 173.116 135.449 173.276C135.793 173.428 136.065 173.668 136.265 173.996C136.473 174.316 136.577 174.732 136.577 175.244V179H135.881L135.773 177.98C135.597 178.348 135.317 178.636 134.933 178.844C134.557 179.044 134.125 179.144 133.637 179.144ZM133.829 178.472C134.445 178.472 134.921 178.276 135.257 177.884C135.593 177.492 135.761 176.984 135.761 176.36V176.048L134.045 176.18C133.501 176.228 133.109 176.364 132.869 176.588C132.629 176.812 132.509 177.084 132.509 177.404C132.509 177.756 132.629 178.024 132.869 178.208C133.109 178.384 133.429 178.472 133.829 178.472Z" fill="black" fill-opacity="0.6"/>
<path d="M137.747 177.368H138.539C138.539 177.704 138.659 177.972 138.899 178.172C139.139 178.364 139.459 178.46 139.859 178.46C140.307 178.46 140.655 178.372 140.903 178.196C141.159 178.012 141.287 177.764 141.287 177.452C141.287 177.212 141.219 177.02 141.083 176.876C140.947 176.732 140.707 176.616 140.363 176.528L139.367 176.276C138.863 176.148 138.487 175.952 138.239 175.688C137.991 175.424 137.867 175.096 137.867 174.704C137.867 174.368 137.955 174.076 138.131 173.828C138.307 173.572 138.551 173.376 138.863 173.24C139.183 173.104 139.551 173.036 139.967 173.036C140.375 173.036 140.731 173.108 141.035 173.252C141.339 173.396 141.575 173.6 141.743 173.864C141.919 174.12 142.011 174.428 142.019 174.788H141.215C141.207 174.444 141.091 174.18 140.867 173.996C140.643 173.812 140.335 173.72 139.943 173.72C139.535 173.72 139.219 173.804 138.995 173.972C138.779 174.14 138.671 174.38 138.671 174.692C138.671 175.14 138.987 175.444 139.619 175.604L140.615 175.856C141.119 175.984 141.487 176.172 141.719 176.42C141.959 176.668 142.079 177 142.079 177.416C142.079 177.76 141.987 178.064 141.803 178.328C141.619 178.592 141.359 178.796 141.023 178.94C140.695 179.076 140.311 179.144 139.871 179.144C139.223 179.144 138.707 178.984 138.323 178.664C137.939 178.336 137.747 177.904 137.747 177.368Z" fill="black" fill-opacity="0.6"/>
<path d="M142.794 173.192H145.938V173.888H142.794V173.192ZM144.774 179H143.958V171.356H144.774V179Z" fill="black" fill-opacity="0.6"/>
<path d="M151.112 173.3L153.26 170.408H154.268L151.784 173.708L151.628 173.636C151.908 173.444 152.172 173.308 152.42 173.228C152.668 173.148 152.924 173.108 153.188 173.108C153.788 173.108 154.312 173.24 154.76 173.504C155.208 173.768 155.552 174.128 155.792 174.584C156.04 175.032 156.164 175.536 156.164 176.096C156.164 176.68 156.028 177.204 155.756 177.668C155.492 178.124 155.128 178.484 154.664 178.748C154.208 179.012 153.692 179.144 153.116 179.144C152.54 179.144 152.016 179.012 151.544 178.748C151.08 178.476 150.712 178.112 150.44 177.656C150.168 177.192 150.032 176.672 150.032 176.096C150.032 175.76 150.064 175.452 150.128 175.172C150.2 174.884 150.312 174.592 150.464 174.296C150.624 174 150.84 173.668 151.112 173.3ZM150.908 176.108C150.908 176.54 151 176.928 151.184 177.272C151.368 177.608 151.628 177.876 151.964 178.076C152.3 178.268 152.684 178.364 153.116 178.364C153.54 178.364 153.916 178.268 154.244 178.076C154.572 177.876 154.828 177.608 155.012 177.272C155.204 176.928 155.3 176.54 155.3 176.108C155.3 175.668 155.204 175.28 155.012 174.944C154.828 174.608 154.572 174.344 154.244 174.152C153.916 173.96 153.54 173.864 153.116 173.864C152.684 173.864 152.3 173.96 151.964 174.152C151.628 174.344 151.368 174.608 151.184 174.944C151 175.28 150.908 175.668 150.908 176.108Z" fill="black" fill-opacity="0.6"/>
<path d="M161.731 179H160.903V173.192H161.623L161.743 174.284L161.623 174.248C161.743 173.88 161.967 173.588 162.295 173.372C162.631 173.148 163.023 173.036 163.471 173.036C163.991 173.036 164.423 173.18 164.767 173.468C165.119 173.748 165.343 174.132 165.439 174.62H165.259C165.339 174.132 165.555 173.748 165.907 173.468C166.267 173.18 166.715 173.036 167.251 173.036C167.875 173.036 168.379 173.228 168.763 173.612C169.147 173.996 169.339 174.524 169.339 175.196V179H168.535V175.364C168.535 174.868 168.407 174.48 168.151 174.2C167.895 173.92 167.543 173.78 167.095 173.78C166.775 173.78 166.499 173.856 166.267 174.008C166.035 174.152 165.855 174.348 165.727 174.596C165.607 174.844 165.547 175.116 165.547 175.412V179H164.731V175.352C164.731 174.856 164.599 174.472 164.335 174.2C164.079 173.928 163.731 173.792 163.291 173.792C162.971 173.792 162.691 173.864 162.451 174.008C162.219 174.152 162.039 174.348 161.911 174.596C161.791 174.836 161.731 175.104 161.731 175.4V179Z" fill="black" fill-opacity="0.6"/>
<path d="M170.597 176.096C170.597 175.496 170.725 174.968 170.981 174.512C171.237 174.056 171.589 173.696 172.037 173.432C172.485 173.168 172.989 173.036 173.549 173.036C174.117 173.036 174.621 173.168 175.061 173.432C175.509 173.696 175.861 174.056 176.117 174.512C176.373 174.968 176.501 175.496 176.501 176.096C176.501 176.68 176.373 177.204 176.117 177.668C175.861 178.124 175.509 178.484 175.061 178.748C174.621 179.012 174.117 179.144 173.549 179.144C172.989 179.144 172.485 179.012 172.037 178.748C171.589 178.484 171.237 178.124 170.981 177.668C170.725 177.204 170.597 176.68 170.597 176.096ZM171.437 176.084C171.437 176.54 171.525 176.944 171.701 177.296C171.885 177.64 172.133 177.912 172.445 178.112C172.765 178.304 173.133 178.4 173.549 178.4C173.965 178.4 174.329 178.304 174.641 178.112C174.961 177.912 175.209 177.64 175.385 177.296C175.569 176.944 175.661 176.54 175.661 176.084C175.661 175.636 175.569 175.24 175.385 174.896C175.209 174.552 174.961 174.28 174.641 174.08C174.329 173.88 173.965 173.78 173.549 173.78C173.133 173.78 172.765 173.88 172.445 174.08C172.133 174.28 171.885 174.552 171.701 174.896C171.525 175.24 171.437 175.636 171.437 176.084Z" fill="black" fill-opacity="0.6"/>
<path d="M178.653 179H177.825V173.192H178.545L178.665 174.2C178.857 173.832 179.129 173.548 179.481 173.348C179.841 173.14 180.233 173.036 180.657 173.036C181.457 173.036 182.033 173.256 182.385 173.696C182.737 174.136 182.913 174.72 182.913 175.448V179H182.085V175.628C182.085 174.948 181.941 174.472 181.653 174.2C181.373 173.928 180.993 173.792 180.513 173.792C179.921 173.792 179.461 173.992 179.133 174.392C178.813 174.784 178.653 175.308 178.653 175.964V179Z" fill="black" fill-opacity="0.6"/>
<path d="M183.915 173.192H187.059V173.888H183.915V173.192ZM185.895 179H185.079V171.356H185.895V179Z" fill="black" fill-opacity="0.6"/>
<path d="M188.965 178.988H188.137V170.252H188.965V174.2C189.149 173.848 189.413 173.568 189.757 173.36C190.109 173.144 190.529 173.036 191.017 173.036C191.785 173.036 192.345 173.256 192.697 173.696C193.049 174.136 193.225 174.72 193.225 175.448V179H192.397V175.628C192.397 175.172 192.333 174.812 192.205 174.548C192.077 174.276 191.897 174.084 191.665 173.972C191.433 173.852 191.165 173.792 190.861 173.792C190.445 173.792 190.097 173.884 189.817 174.068C189.537 174.252 189.325 174.5 189.181 174.812C189.037 175.116 188.965 175.456 188.965 175.832V178.988Z" fill="black" fill-opacity="0.6"/>
<path d="M194.313 177.368H195.105C195.105 177.704 195.225 177.972 195.465 178.172C195.705 178.364 196.025 178.46 196.425 178.46C196.873 178.46 197.221 178.372 197.469 178.196C197.725 178.012 197.853 177.764 197.853 177.452C197.853 177.212 197.785 177.02 197.649 176.876C197.513 176.732 197.273 176.616 196.929 176.528L195.933 176.276C195.429 176.148 195.053 175.952 194.805 175.688C194.557 175.424 194.433 175.096 194.433 174.704C194.433 174.368 194.521 174.076 194.697 173.828C194.873 173.572 195.117 173.376 195.429 173.24C195.749 173.104 196.117 173.036 196.533 173.036C196.941 173.036 197.297 173.108 197.601 173.252C197.905 173.396 198.141 173.6 198.309 173.864C198.485 174.12 198.577 174.428 198.585 174.788H197.781C197.773 174.444 197.657 174.18 197.433 173.996C197.209 173.812 196.901 173.72 196.509 173.72C196.101 173.72 195.785 173.804 195.561 173.972C195.345 174.14 195.237 174.38 195.237 174.692C195.237 175.14 195.553 175.444 196.185 175.604L197.181 175.856C197.685 175.984 198.053 176.172 198.285 176.42C198.525 176.668 198.645 177 198.645 177.416C198.645 177.76 198.553 178.064 198.369 178.328C198.185 178.592 197.925 178.796 197.589 178.94C197.261 179.076 196.877 179.144 196.437 179.144C195.789 179.144 195.273 178.984 194.889 178.664C194.505 178.336 194.313 177.904 194.313 177.368Z" fill="black" fill-opacity="0.6"/>
<path d="M128.312 236H126.296V224.304H128.328L134.408 233.504H133.816V224.304H135.832V236H133.816L127.72 226.816H128.312V236Z" fill="black"/>
<path d="M141.669 236.208C140.89 236.208 140.197 236.032 139.589 235.68C138.992 235.317 138.522 234.827 138.181 234.208C137.84 233.579 137.669 232.859 137.669 232.048C137.669 231.227 137.834 230.501 138.165 229.872C138.496 229.243 138.96 228.752 139.557 228.4C140.154 228.037 140.837 227.856 141.605 227.856C142.405 227.856 143.093 228.027 143.669 228.368C144.245 228.699 144.688 229.163 144.997 229.76C145.317 230.357 145.477 231.072 145.477 231.904V232.496L138.693 232.512L138.725 231.264H143.541C143.541 230.72 143.365 230.283 143.013 229.952C142.672 229.621 142.208 229.456 141.621 229.456C141.162 229.456 140.773 229.552 140.453 229.744C140.144 229.936 139.909 230.224 139.749 230.608C139.589 230.992 139.509 231.461 139.509 232.016C139.509 232.869 139.69 233.515 140.053 233.952C140.426 234.389 140.976 234.608 141.701 234.608C142.234 234.608 142.672 234.507 143.013 234.304C143.365 234.101 143.594 233.813 143.701 233.44H145.509C145.338 234.304 144.912 234.981 144.229 235.472C143.557 235.963 142.704 236.208 141.669 236.208Z" fill="black"/>
<path d="M148.455 236L145.895 228.096H147.927L148.967 231.488C149.052 231.797 149.138 232.123 149.223 232.464C149.308 232.805 149.383 233.163 149.447 233.536C149.5 233.28 149.548 233.045 149.591 232.832C149.644 232.619 149.703 232.411 149.767 232.208C149.831 231.995 149.906 231.755 149.991 231.488L151.079 228.096H153.063L154.119 231.488C154.14 231.563 154.172 231.691 154.215 231.872C154.268 232.043 154.322 232.229 154.375 232.432C154.428 232.635 154.476 232.837 154.519 233.04C154.572 233.232 154.61 233.397 154.631 233.536C154.674 233.333 154.727 233.104 154.791 232.848C154.855 232.592 154.919 232.347 154.983 232.112C155.058 231.867 155.116 231.659 155.159 231.488L156.215 228.096H158.279L155.543 236H153.719L152.631 232.576C152.471 232.053 152.343 231.611 152.247 231.248C152.151 230.875 152.087 230.587 152.055 230.384C152.023 230.576 151.964 230.832 151.879 231.152C151.794 231.472 151.65 231.957 151.447 232.608L150.359 236H148.455Z" fill="black"/>
<path d="M163.39 227.568C163.39 226.885 163.566 226.283 163.918 225.76C164.27 225.237 164.755 224.832 165.374 224.544C166.003 224.245 166.728 224.096 167.55 224.096C168.339 224.096 169.022 224.235 169.598 224.512C170.184 224.789 170.638 225.184 170.958 225.696C171.288 226.208 171.464 226.816 171.486 227.52H169.438C169.416 227.019 169.235 226.629 168.894 226.352C168.552 226.064 168.094 225.92 167.518 225.92C166.888 225.92 166.382 226.064 165.998 226.352C165.624 226.629 165.438 227.013 165.438 227.504C165.438 227.92 165.55 228.251 165.774 228.496C166.008 228.731 166.371 228.907 166.862 229.024L168.702 229.44C169.704 229.653 170.451 230.021 170.942 230.544C171.432 231.056 171.678 231.749 171.678 232.624C171.678 233.339 171.502 233.968 171.15 234.512C170.798 235.056 170.296 235.477 169.646 235.776C169.006 236.064 168.254 236.208 167.39 236.208C166.568 236.208 165.848 236.069 165.23 235.792C164.611 235.504 164.126 235.104 163.774 234.592C163.432 234.08 163.251 233.477 163.23 232.784H165.278C165.288 233.275 165.48 233.664 165.854 233.952C166.238 234.229 166.755 234.368 167.406 234.368C168.088 234.368 168.627 234.229 169.022 233.952C169.427 233.664 169.63 233.285 169.63 232.816C169.63 232.411 169.523 232.091 169.31 231.856C169.096 231.611 168.75 231.44 168.27 231.344L166.414 230.928C165.422 230.715 164.67 230.331 164.158 229.776C163.646 229.211 163.39 228.475 163.39 227.568Z" fill="black"/>
<path d="M176.778 236.208C176 236.208 175.306 236.032 174.698 235.68C174.101 235.317 173.632 234.827 173.29 234.208C172.949 233.579 172.778 232.859 172.778 232.048C172.778 231.227 172.944 230.501 173.274 229.872C173.605 229.243 174.069 228.752 174.666 228.4C175.264 228.037 175.946 227.856 176.714 227.856C177.514 227.856 178.202 228.027 178.778 228.368C179.354 228.699 179.797 229.163 180.106 229.76C180.426 230.357 180.586 231.072 180.586 231.904V232.496L173.802 232.512L173.834 231.264H178.65C178.65 230.72 178.474 230.283 178.122 229.952C177.781 229.621 177.317 229.456 176.73 229.456C176.272 229.456 175.882 229.552 175.562 229.744C175.253 229.936 175.018 230.224 174.858 230.608C174.698 230.992 174.618 231.461 174.618 232.016C174.618 232.869 174.8 233.515 175.162 233.952C175.536 234.389 176.085 234.608 176.81 234.608C177.344 234.608 177.781 234.507 178.122 234.304C178.474 234.101 178.704 233.813 178.81 233.44H180.618C180.448 234.304 180.021 234.981 179.338 235.472C178.666 235.963 177.813 236.208 176.778 236.208Z" fill="black"/>
<path d="M181.287 228.096H186.279V229.728H181.287V228.096ZM184.759 236H182.807V225.632H184.759V236Z" fill="black"/>
<path d="M192.868 228.096H194.82V236H193.012L192.868 234.944C192.633 235.317 192.281 235.621 191.812 235.856C191.343 236.091 190.841 236.208 190.308 236.208C189.401 236.208 188.692 235.92 188.18 235.344C187.668 234.768 187.412 234 187.412 233.04V228.096H189.364V232.352C189.364 233.099 189.508 233.637 189.796 233.968C190.084 234.299 190.5 234.464 191.044 234.464C191.663 234.464 192.121 234.283 192.42 233.92C192.719 233.547 192.868 232.987 192.868 232.24V228.096Z" fill="black"/>
<path d="M196.836 239.664V228.096H198.644L198.772 229.296C199.007 228.837 199.369 228.485 199.86 228.24C200.351 227.984 200.889 227.856 201.476 227.856C202.233 227.856 202.884 228.027 203.428 228.368C203.983 228.709 204.415 229.184 204.724 229.792C205.033 230.4 205.188 231.12 205.188 231.952C205.188 232.773 205.044 233.504 204.756 234.144C204.468 234.784 204.047 235.291 203.492 235.664C202.948 236.027 202.281 236.208 201.492 236.208C200.905 236.208 200.367 236.096 199.876 235.872C199.396 235.648 199.033 235.339 198.788 234.944V239.664H196.836ZM198.804 232.048C198.804 232.517 198.895 232.933 199.076 233.296C199.257 233.659 199.513 233.947 199.844 234.16C200.185 234.363 200.58 234.464 201.028 234.464C201.487 234.464 201.881 234.363 202.212 234.16C202.543 233.947 202.793 233.659 202.964 233.296C203.135 232.933 203.22 232.517 203.22 232.048C203.22 231.579 203.135 231.163 202.964 230.8C202.793 230.437 202.543 230.155 202.212 229.952C201.881 229.739 201.487 229.632 201.028 229.632C200.58 229.632 200.185 229.733 199.844 229.936C199.513 230.139 199.257 230.421 199.076 230.784C198.895 231.147 198.804 231.568 198.804 232.048Z" fill="black"/>
<path d="M126.908 246.408V255H126.044V246.408H126.908ZM126.188 255V254.208H130.856V255H126.188Z" fill="black" fill-opacity="0.6"/>
<path d="M133.637 255.144C133.021 255.144 132.537 254.984 132.185 254.664C131.841 254.344 131.669 253.932 131.669 253.428C131.669 252.892 131.861 252.464 132.245 252.144C132.629 251.824 133.161 251.636 133.841 251.58L135.761 251.424V251.232C135.761 250.848 135.693 250.548 135.557 250.332C135.421 250.108 135.237 249.952 135.005 249.864C134.773 249.776 134.513 249.732 134.225 249.732C133.713 249.732 133.317 249.84 133.037 250.056C132.757 250.272 132.617 250.576 132.617 250.968H131.861C131.861 250.576 131.961 250.236 132.161 249.948C132.361 249.66 132.641 249.436 133.001 249.276C133.361 249.116 133.777 249.036 134.249 249.036C134.705 249.036 135.105 249.116 135.449 249.276C135.793 249.428 136.065 249.668 136.265 249.996C136.473 250.316 136.577 250.732 136.577 251.244V255H135.881L135.773 253.98C135.597 254.348 135.317 254.636 134.933 254.844C134.557 255.044 134.125 255.144 133.637 255.144ZM133.829 254.472C134.445 254.472 134.921 254.276 135.257 253.884C135.593 253.492 135.761 252.984 135.761 252.36V252.048L134.045 252.18C133.501 252.228 133.109 252.364 132.869 252.588C132.629 252.812 132.509 253.084 132.509 253.404C132.509 253.756 132.629 254.024 132.869 254.208C133.109 254.384 133.429 254.472 133.829 254.472Z" fill="black" fill-opacity="0.6"/>
<path d="M137.747 253.368H138.539C138.539 253.704 138.659 253.972 138.899 254.172C139.139 254.364 139.459 254.46 139.859 254.46C140.307 254.46 140.655 254.372 140.903 254.196C141.159 254.012 141.287 253.764 141.287 253.452C141.287 253.212 141.219 253.02 141.083 252.876C140.947 252.732 140.707 252.616 140.363 252.528L139.367 252.276C138.863 252.148 138.487 251.952 138.239 251.688C137.991 251.424 137.867 251.096 137.867 250.704C137.867 250.368 137.955 250.076 138.131 249.828C138.307 249.572 138.551 249.376 138.863 249.24C139.183 249.104 139.551 249.036 139.967 249.036C140.375 249.036 140.731 249.108 141.035 249.252C141.339 249.396 141.575 249.6 141.743 249.864C141.919 250.12 142.011 250.428 142.019 250.788H141.215C141.207 250.444 141.091 250.18 140.867 249.996C140.643 249.812 140.335 249.72 139.943 249.72C139.535 249.72 139.219 249.804 138.995 249.972C138.779 250.14 138.671 250.38 138.671 250.692C138.671 251.14 138.987 251.444 139.619 251.604L140.615 251.856C141.119 251.984 141.487 252.172 141.719 252.42C141.959 252.668 142.079 253 142.079 253.416C142.079 253.76 141.987 254.064 141.803 254.328C141.619 254.592 141.359 254.796 141.023 254.94C140.695 255.076 140.311 255.144 139.871 255.144C139.223 255.144 138.707 254.984 138.323 254.664C137.939 254.336 137.747 253.904 137.747 253.368Z" fill="black" fill-opacity="0.6"/>
<path d="M142.794 249.192H145.938V249.888H142.794V249.192ZM144.774 255H143.958V247.356H144.774V255Z" fill="black" fill-opacity="0.6"/>
<path d="M155.576 247.104L152.384 250.272L151.832 249.792L154.916 246.744L155.024 247.176H150.368V246.408H155.576V247.104ZM152.516 250.392H151.832V249.792C151.968 249.744 152.116 249.708 152.276 249.684C152.436 249.66 152.6 249.648 152.768 249.648C153.208 249.648 153.608 249.712 153.968 249.84C154.328 249.96 154.644 250.14 154.916 250.38C155.188 250.612 155.396 250.892 155.54 251.22C155.692 251.548 155.768 251.916 155.768 252.324C155.768 252.892 155.64 253.388 155.384 253.812C155.128 254.236 154.772 254.564 154.316 254.796C153.868 255.028 153.356 255.144 152.78 255.144C152.212 255.144 151.716 255.036 151.292 254.82C150.868 254.596 150.536 254.276 150.296 253.86C150.064 253.444 149.948 252.952 149.948 252.384H150.8C150.8 253 150.98 253.484 151.34 253.836C151.7 254.188 152.18 254.364 152.78 254.364C153.428 254.364 153.94 254.176 154.316 253.8C154.7 253.424 154.892 252.924 154.892 252.3C154.892 251.708 154.688 251.244 154.28 250.908C153.872 250.564 153.284 250.392 152.516 250.392Z" fill="black" fill-opacity="0.6"/>
<path d="M161.321 255H160.493V249.192H161.213L161.333 250.284L161.213 250.248C161.333 249.88 161.557 249.588 161.885 249.372C162.221 249.148 162.613 249.036 163.061 249.036C163.581 249.036 164.013 249.18 164.357 249.468C164.709 249.748 164.933 250.132 165.029 250.62H164.849C164.929 250.132 165.145 249.748 165.497 249.468C165.857 249.18 166.305 249.036 166.841 249.036C167.465 249.036 167.969 249.228 168.353 249.612C168.737 249.996 168.929 250.524 168.929 251.196V255H168.125V251.364C168.125 250.868 167.997 250.48 167.741 250.2C167.485 249.92 167.133 249.78 166.685 249.78C166.365 249.78 166.089 249.856 165.857 250.008C165.625 250.152 165.445 250.348 165.317 250.596C165.197 250.844 165.137 251.116 165.137 251.412V255H164.321V251.352C164.321 250.856 164.189 250.472 163.925 250.2C163.669 249.928 163.321 249.792 162.881 249.792C162.561 249.792 162.281 249.864 162.041 250.008C161.809 250.152 161.629 250.348 161.501 250.596C161.381 250.836 161.321 251.104 161.321 251.4V255Z" fill="black" fill-opacity="0.6"/>
<path d="M170.186 252.096C170.186 251.496 170.314 250.968 170.57 250.512C170.826 250.056 171.178 249.696 171.626 249.432C172.074 249.168 172.578 249.036 173.138 249.036C173.706 249.036 174.21 249.168 174.65 249.432C175.098 249.696 175.45 250.056 175.706 250.512C175.962 250.968 176.09 251.496 176.09 252.096C176.09 252.68 175.962 253.204 175.706 253.668C175.45 254.124 175.098 254.484 174.65 254.748C174.21 255.012 173.706 255.144 173.138 255.144C172.578 255.144 172.074 255.012 171.626 254.748C171.178 254.484 170.826 254.124 170.57 253.668C170.314 253.204 170.186 252.68 170.186 252.096ZM171.026 252.084C171.026 252.54 171.114 252.944 171.29 253.296C171.474 253.64 171.722 253.912 172.034 254.112C172.354 254.304 172.722 254.4 173.138 254.4C173.554 254.4 173.918 254.304 174.23 254.112C174.55 253.912 174.798 253.64 174.974 253.296C175.158 252.944 175.25 252.54 175.25 252.084C175.25 251.636 175.158 251.24 174.974 250.896C174.798 250.552 174.55 250.28 174.23 250.08C173.918 249.88 173.554 249.78 173.138 249.78C172.722 249.78 172.354 249.88 172.034 250.08C171.722 250.28 171.474 250.552 171.29 250.896C171.114 251.24 171.026 251.636 171.026 252.084Z" fill="black" fill-opacity="0.6"/>
<path d="M178.243 255H177.415V249.192H178.135L178.255 250.2C178.447 249.832 178.719 249.548 179.071 249.348C179.431 249.14 179.823 249.036 180.247 249.036C181.047 249.036 181.623 249.256 181.975 249.696C182.327 250.136 182.503 250.72 182.503 251.448V255H181.675V251.628C181.675 250.948 181.531 250.472 181.243 250.2C180.963 249.928 180.583 249.792 180.103 249.792C179.511 249.792 179.051 249.992 178.723 250.392C178.403 250.784 178.243 251.308 178.243 251.964V255Z" fill="black" fill-opacity="0.6"/>
<path d="M183.505 249.192H186.649V249.888H183.505V249.192ZM185.485 255H184.669V247.356H185.485V255Z" fill="black" fill-opacity="0.6"/>
<path d="M188.555 254.988H187.727V246.252H188.555V250.2C188.739 249.848 189.003 249.568 189.347 249.36C189.699 249.144 190.119 249.036 190.607 249.036C191.375 249.036 191.935 249.256 192.287 249.696C192.639 250.136 192.815 250.72 192.815 251.448V255H191.987V251.628C191.987 251.172 191.923 250.812 191.795 250.548C191.667 250.276 191.487 250.084 191.255 249.972C191.023 249.852 190.755 249.792 190.451 249.792C190.035 249.792 189.687 249.884 189.407 250.068C189.127 250.252 188.915 250.5 188.771 250.812C188.627 251.116 188.555 251.456 188.555 251.832V254.988Z" fill="black" fill-opacity="0.6"/>
<path d="M193.903 253.368H194.695C194.695 253.704 194.815 253.972 195.055 254.172C195.295 254.364 195.615 254.46 196.015 254.46C196.463 254.46 196.811 254.372 197.059 254.196C197.315 254.012 197.443 253.764 197.443 253.452C197.443 253.212 197.375 253.02 197.239 252.876C197.103 252.732 196.863 252.616 196.519 252.528L195.523 252.276C195.019 252.148 194.643 251.952 194.395 251.688C194.147 251.424 194.023 251.096 194.023 250.704C194.023 250.368 194.111 250.076 194.287 249.828C194.463 249.572 194.707 249.376 195.019 249.24C195.339 249.104 195.707 249.036 196.123 249.036C196.531 249.036 196.887 249.108 197.191 249.252C197.495 249.396 197.731 249.6 197.899 249.864C198.075 250.12 198.167 250.428 198.175 250.788H197.371C197.363 250.444 197.247 250.18 197.023 249.996C196.799 249.812 196.491 249.72 196.099 249.72C195.691 249.72 195.375 249.804 195.151 249.972C194.935 250.14 194.827 250.38 194.827 250.692C194.827 251.14 195.143 251.444 195.775 251.604L196.771 251.856C197.275 251.984 197.643 252.172 197.875 252.42C198.115 252.668 198.235 253 198.235 253.416C198.235 253.76 198.143 254.064 197.959 254.328C197.775 254.592 197.515 254.796 197.179 254.94C196.851 255.076 196.467 255.144 196.027 255.144C195.379 255.144 194.863 254.984 194.479 254.664C194.095 254.336 193.903 253.904 193.903 253.368Z" fill="black" fill-opacity="0.6"/>
<path d="M113 162C113 174.15 103.15 184 91 184C78.8497 184 69 174.15 69 162C69 149.85 78.8497 140 91 140C103.15 140 113 149.85 113 162Z" fill="#00B3FF"/>
<path d="M113 238C113 250.15 103.15 260 91 260C78.8497 260 69 250.15 69 238C69 225.85 78.8497 216 91 216C103.15 216 113 225.85 113 238Z" fill="#002F86"/>
<path d="M91 167C89.6739 167 88.4022 166.473 87.4645 165.535C86.5268 164.598 86 163.326 86 162C86 160.674 86.5268 159.402 87.4645 158.464C88.4022 157.527 89.6739 157 91 157C92.3261 157 93.5979 157.527 94.5355 158.464C95.4732 159.402 96 160.674 96 162C96 163.326 95.4732 164.598 94.5355 165.535C93.5979 166.473 92.3261 167 91 167ZM90.1667 152.833H91.8333V155.333H90.1667V152.833ZM90.1667 168.667H91.8333V171.167H90.1667V168.667ZM83.9292 156.107L85.1075 154.929L86.875 156.697L85.6967 157.875L83.9292 156.108V156.107ZM95.125 167.303L96.3033 166.125L98.0708 167.892L96.8925 169.071L95.125 167.303ZM96.8925 154.928L98.0708 156.107L96.3033 157.875L95.125 156.697L96.8925 154.929V154.928ZM85.6967 166.125L86.875 167.303L85.1075 169.071L83.9292 167.892L85.6967 166.125ZM100.167 161.167V162.833H97.6667V161.167H100.167ZM84.3333 161.167V162.833H81.8333V161.167H84.3333Z" fill="white"/>
<path d="M91.8333 245V246.667H95.1667V248.333H86.8333V246.667H90.1667V245H83.4933C83.3839 244.999 83.2757 244.977 83.1749 244.935C83.074 244.892 82.9826 244.83 82.9058 244.752C82.829 244.674 82.7684 244.582 82.7273 244.48C82.6863 244.379 82.6657 244.27 82.6667 244.161V233.339C82.6667 232.876 83.0458 232.5 83.4933 232.5H98.5067C98.9633 232.5 99.3333 232.874 99.3333 233.339V244.161C99.3333 244.624 98.9542 245 98.5067 245H91.8333Z" fill="white"/>
<g opacity="0.3">
<path d="M247.977 162L243.852 157.875L245.03 156.697L250.333 162L245.03 167.303L243.852 166.125L247.977 162Z" fill="black"/>
</g>
<g opacity="0.3">
<path d="M247.977 238L243.852 233.875L245.03 232.697L250.333 238L245.03 243.303L243.852 242.125L247.977 238Z" fill="black"/>
</g>
<defs>
<filter id="filter0_d_1_194" x="-27" y="0" width="380" height="358" filterUnits="userSpaceOnUse" color-interpolation-filters="sRGB">
<feFlood flood-opacity="0" result="BackgroundImageFix"/>
<feColorMatrix in="SourceAlpha" type="matrix" values="0 0 0 0 0 0 0 0 0 0 0 0 0 0 0 0 0 0 127 0" result="hardAlpha"/>
<feOffset dy="4"/>
<feGaussianBlur stdDeviation="30"/>
<feComposite in2="hardAlpha" operator="out"/>
<feColorMatrix type="matrix" values="0 0 0 0 0.66277 0 0 0 0 0.66277 0 0 0 0 0.66277 0 0 0 0.16 0"/>
<feBlend mode="normal" in2="BackgroundImageFix" result="effect1_dropShadow_1_194"/>
<feBlend mode="normal" in="SourceGraphic" in2="effect1_dropShadow_1_194" result="shape"/>
</filter>
</defs>
</svg>
